<?xml version="1.0" encoding="UTF-8" standalone="no"?>
<svg width="31px" height="29px" viewBox="0 0 31 29" version="1.1" xmlns="http://www.w3.org/2000/svg" xmlns:xlink="http://www.w3.org/1999/xlink" xmlns:sketch="http://www.bohemiancoding.com/sketch/ns">
    <!-- Generator: Sketch 3.3.2 (12043) - http://www.bohemiancoding.com/sketch -->
    <title> + Line</title>
    <desc>Created with Sketch.</desc>
    <defs></defs>
    <g id="Page-1" stroke="none" stroke-width="1" fill="none" fill-rule="evenodd" sketch:type="MSPage">
        <g id="Artboard-2" sketch:type="MSArtboardGroup" transform="translate(-586.000000, -1001.000000)">
            <g id="See-all-feeds" sketch:type="MSLayerGroup" transform="translate(50.500000, 885.000000)">
                <g id="Group-Copy-4" transform="translate(367.000000, 0.500000)" sketch:type="MSShapeGroup">
                    <g id="Arrow" transform="translate(144.000000, 90.000000)">
                        <g id="-+-Line" transform="translate(27.000000, 26.000000)">
                            <path d="M0.5,13.5 L23.5512466,13.5" id="Line" stroke="#FFFFFF" stroke-width="5" stroke-linecap="round" stroke-linejoin="round"></path>
                            <path d="M27.6015625,13.9285714 C27.6015625,14.1703881 27.5085575,14.3842997 27.3225446,14.5703125 L14.3203125,27.5725446 C14.1342997,27.7585575 13.9203881,27.8515625 13.6785714,27.8515625 C13.4367547,27.8515625 13.2228432,27.7585575 13.0368304,27.5725446 L11.6417411,26.1774554 C11.4557282,25.9914425 11.3627232,25.777531 11.3627232,25.5357143 C11.3627232,25.2938976 11.4557282,25.079986 11.6417411,24.8939732 L22.6071429,13.9285714 L11.6417411,2.96316964 C11.4557282,2.77715681 11.3627232,2.56324526 11.3627232,2.32142857 C11.3627232,2.07961189 11.4557282,1.86570033 11.6417411,1.6796875 L13.0368304,0.284598214 C13.2228432,0.0985853795 13.4367547,0.00558035714 13.6785714,0.00558035714 C13.9203881,0.00558035714 14.1342997,0.0985853795 14.3203125,0.284598214 L27.3225446,13.2868304 C27.5085575,13.4728432 27.6015625,13.6867547 27.6015625,13.9285714 L27.6015625,13.9285714 Z" id="" fill="#FFFFFF"></path>
                        </g>
                    </g>
                </g>
            </g>
        </g>
    </g>
</svg>