<svg id="Layer_1" data-name="Layer 1" xmlns="http://www.w3.org/2000/svg" viewBox="0 0 1080 512"><defs><style>.cls-1,.cls-2{fill:none;stroke:#375eb4;stroke-linecap:round;stroke-linejoin:round;}.cls-1{stroke-width:16px;}.cls-2{stroke-width:8px;}</style></defs><path class="cls-1" d="M704.79,174.74H375.07s22,40.44,22,135.7-18,135.7-18,135.7H700.79s-18-40.44-18-135.7S704.79,174.74,704.79,174.74Z"/><polyline class="cls-1" points="375.18 174.74 398.61 126.06 411.1 126.06"/><path class="cls-1" d="M541.71,74.46a12.28,12.28,0,0,0-12.28-12.28h-85a12.28,12.28,0,0,0-12.28,12.28v75.62"/><path class="cls-2" d="M515.27,88.18H458.15v61.9"/><path class="cls-1" d="M658.82,150.08,614.3,70.36a12.29,12.29,0,0,0-16.78-4.49l-94,54.3a12.27,12.27,0,0,0-4.5,16.77l7.74,13.14"/><polyline class="cls-2" points="629.3 150.56 598.47 95.34 528.45 135.77 537.17 150.56"/><polyline class="cls-1" points="704.93 174.9 681.5 126.22 669.01 126.22"/><path class="cls-2" d="M609.15,242.47v27a71.22,71.22,0,0,1-71.22,71.22h0a71.22,71.22,0,0,1-71.22-71.22v-27"/><circle class="cls-2" cx="609.15" cy="242.47" r="13.45"/><circle class="cls-2" cx="466.71" cy="242.47" r="13.45"/><line class="cls-2" x1="386.52" y1="430.26" x2="423.18" y2="393.6"/><line class="cls-2" x1="403.13" y1="443.65" x2="441.45" y2="405.33"/><line class="cls-2" x1="431.96" y1="444.82" x2="462.13" y2="414.65"/><line class="cls-2" x1="460.84" y1="445.93" x2="484.36" y2="422.42"/><line class="cls-2" x1="393.18" y1="393.6" x2="409.86" y2="376.92"/></svg>