<svg id="Layer_1" data-name="Layer 1" xmlns="http://www.w3.org/2000/svg" viewBox="0 0 1080 512"><defs><style>.cls-1,.cls-2,.cls-3{fill:none;stroke:#dedede;stroke-linecap:round;}.cls-1{stroke-miterlimit:10;}.cls-1,.cls-2{stroke-width:16px;}.cls-2,.cls-3{stroke-linejoin:round;}.cls-3{stroke-width:8px;}</style></defs><circle class="cls-1" cx="540" cy="256" r="61.01"/><path class="cls-2" d="M733.44,292.06a198.08,198.08,0,0,0,0-72.12H692.36a155.65,155.65,0,0,0-19.14-46.16l29-29.05a197.84,197.84,0,0,0-51-51l-29,29.05a155.65,155.65,0,0,0-46.16-19.14V62.56a198.08,198.08,0,0,0-72.12,0v41.08a155.65,155.65,0,0,0-46.16,19.14l-29-29a197.84,197.84,0,0,0-51,51l29,29.05a155.65,155.65,0,0,0-19.14,46.16H346.56a198.08,198.08,0,0,0,0,72.12h41.08a155.65,155.65,0,0,0,19.14,46.16l-29,29a197.84,197.84,0,0,0,51,51l29-29a155.65,155.65,0,0,0,46.16,19.14v41.08a198.08,198.08,0,0,0,72.12,0V408.36a155.65,155.65,0,0,0,46.16-19.14l29,29a197.84,197.84,0,0,0,51-51l-29-29a155.65,155.65,0,0,0,19.14-46.16Z"/><polyline class="cls-3" points="532.12 129.61 547.89 145.38 532.12 161.14"/><polyline class="cls-3" points="547.77 382.39 532 366.62 547.77 350.86"/><path class="cls-3" d="M516,284h32a14,14,0,0,0,14-14h0a14,14,0,0,0-14-14h-18a14,14,0,0,1-14-14h0a14,14,0,0,1,14-14h32"/><line class="cls-3" x1="540.01" y1="214.83" x2="540.01" y2="296.97"/><polyline class="cls-3" points="666.37 248.14 650.61 263.91 634.84 248.14"/><polyline class="cls-3" points="413.59 263.79 429.36 248.02 445.13 263.79"/><path class="cls-3" d="M563.71,148A110.66,110.66,0,0,1,650.6,256"/><path class="cls-3" d="M516.54,364.15A110.65,110.65,0,0,1,429.36,256"/><polyline class="cls-3" points="532.12 129.61 547.89 145.38 532.12 161.14"/><polyline class="cls-3" points="547.77 382.39 532 366.62 547.77 350.86"/><path class="cls-3" d="M431.92,232.3A110.66,110.66,0,0,1,540,145.38"/><path class="cls-3" d="M648.08,279.7A110.66,110.66,0,0,1,540,366.62"/></svg>