<svg id="Layer_1" data-name="Layer 1" xmlns="http://www.w3.org/2000/svg" viewBox="0 0 1080 512"><defs><style>.cls-1,.cls-2{fill:none;stroke:#dedede;stroke-linecap:round;}.cls-1{stroke-miterlimit:10;stroke-width:16px;}.cls-2{stroke-linejoin:round;stroke-width:8px;}</style></defs><path class="cls-1" d="M657,321.16v116a20,20,0,0,1-20,20H442.58a20,20,0,0,1-20-20V401.63"/><path class="cls-1" d="M422.58,148.79V75.07a20,20,0,0,1,20-20H637a20,20,0,0,1,20,20v27.07"/><line class="cls-2" x1="478.56" y1="425.43" x2="600.99" y2="425.43"/><path class="cls-2" d="M587.46,83.76H492.09c-5.22,0-9.86-2.94-11.57-7.34l-9.39-24.14h137.3L599,76.42C597.33,80.82,592.68,83.76,587.46,83.76Z"/><circle class="cls-1" cx="656.81" cy="210.52" r="79.74"/><path class="cls-2" d="M625.48,247.07h41.85a18.34,18.34,0,0,0,18.34-18.34h0a18.34,18.34,0,0,0-18.34-18.34H643.82a18.34,18.34,0,0,1-18.34-18.33h0a18.34,18.34,0,0,1,18.34-18.34h41.85"/><line class="cls-2" x1="656.82" y1="156.71" x2="656.82" y2="264.08"/><polyline class="cls-1" points="359.18 275.33 359.18 367.02 525.97 367.02 525.97 275.33"/><rect class="cls-2" x="410.73" y="302.93" width="63.69" height="64.09"/><path class="cls-1" d="M373,273.73h0c-21.39,0-35.69-23.49-27-44.34l33-55.13h46.4l-24.35,77.92C397,265.05,385.74,273.73,373,273.73Z"/><path class="cls-1" d="M512.13,273.73h0c21.38,0,35.69-23.49,27-44.34l-33-55.13H459.75l24.36,77.92C488.13,265.05,499.42,273.73,512.13,273.73Z"/><path class="cls-1" d="M442.58,273.73h0a25.86,25.86,0,0,0,25.68-29l-8.51-70.51H425.4l-8.5,70.51A25.86,25.86,0,0,0,442.58,273.73Z"/><line class="cls-2" x1="344.07" y1="237.84" x2="541.45" y2="237.84"/></svg>