<svg id="Layer_1" data-name="Layer 1" xmlns="http://www.w3.org/2000/svg" viewBox="0 0 1080 512"><defs><style>.cls-1,.cls-2{fill:none;stroke:#dedede;stroke-linecap:round;}.cls-1{stroke-miterlimit:10;stroke-width:16px;}.cls-2{stroke-linejoin:round;stroke-width:8px;}</style></defs><path class="cls-1" d="M570.53,161.1c-27.79-1-58.58,11.21-82.8,35.43-40.65,40.65-39.86,88.78-20.43,132.24s19.08,90-19.36,128.44"/><path class="cls-1" d="M337.49,346.77c23.92-23.92,55.71-35.39,84.12-32.85"/><path class="cls-1" d="M743,162.18C719,186.1,687.25,197.57,658.85,195"/><path class="cls-1" d="M509.93,347.85c27.79,1,58.58-11.21,82.8-35.43,40.65-40.65,39.86-88.78,20.43-132.24s-19.09-90,19.36-128.44"/><line class="cls-2" x1="350.98" y1="335.18" x2="431.33" y2="415.53"/><line class="cls-2" x1="497.39" y1="188.77" x2="577.74" y2="269.12"/><line class="cls-2" x1="424.93" y1="353.86" x2="473.95" y2="402.88"/><line class="cls-2" x1="571.52" y1="207.27" x2="620.54" y2="256.29"/><line class="cls-2" x1="729.48" y1="173.78" x2="649.12" y2="93.42"/><line class="cls-2" x1="578.12" y1="325.13" x2="497.77" y2="244.78"/><line class="cls-2" x1="655.52" y1="155.09" x2="606.5" y2="106.07"/><line class="cls-2" x1="503.98" y1="306.63" x2="454.96" y2="257.61"/></svg>