<svg id="Layer_1" data-name="Layer 1" xmlns="http://www.w3.org/2000/svg" viewBox="0 0 1080 512"><defs><style>.cls-1,.cls-2{fill:none;stroke:#375eb4;stroke-linecap:round;}.cls-1{stroke-miterlimit:10;stroke-width:16px;}.cls-2{stroke-linejoin:round;stroke-width:8px;}</style></defs><circle class="cls-1" cx="540" cy="66.68" r="25.61"/><path class="cls-1" d="M554.72,409.26a14.72,14.72,0,0,1-29.44,0"/><rect class="cls-1" x="429.41" y="92.29" width="221.18" height="310.25" rx="19.48"/><line class="cls-2" x1="468.37" y1="132.39" x2="507.78" y2="132.39"/><line class="cls-2" x1="468.37" y1="159.68" x2="483.22" y2="159.68"/><line class="cls-2" x1="468.37" y1="186.97" x2="507.78" y2="186.97"/><path class="cls-2" d="M454.3,210.78H625.7V364.61a12.14,12.14,0,0,1-12.14,12.15H466.44a12.14,12.14,0,0,1-12.14-12.15Z"/><line class="cls-1" x1="540" y1="462.92" x2="540" y2="423.98"/><line class="cls-2" x1="456.53" y1="331.47" x2="575.71" y2="212.28"/><line class="cls-2" x1="456.83" y1="361.16" x2="605.71" y2="212.28"/><line class="cls-2" x1="471.42" y1="376.57" x2="623.74" y2="224.26"/><line class="cls-2" x1="501.32" y1="376.67" x2="623.85" y2="254.15"/><line class="cls-2" x1="532.92" y1="375.08" x2="624.12" y2="283.87"/><line class="cls-2" x1="562.5" y1="375.49" x2="623.83" y2="314.16"/><line class="cls-2" x1="591.96" y1="375.49" x2="624.64" y2="342.81"/><line class="cls-2" x1="456.81" y1="301.19" x2="545.71" y2="212.28"/><line class="cls-2" x1="455.36" y1="272.63" x2="517.22" y2="210.78"/><line class="cls-2" x1="454.3" y1="244.06" x2="487.58" y2="210.78"/></svg>