<?xml version="1.0" encoding="UTF-8"?>
<svg width="240px" height="135px" viewBox="0 0 240 135" version="1.1" xmlns="http://www.w3.org/2000/svg" xmlns:xlink="http://www.w3.org/1999/xlink">
    <title>logo_wechat</title>
    <defs>
        <polygon id="path-1" points="0 0 16.6776479 0 16.6776479 16.6649195 0 16.6649195"></polygon>
        <polygon id="path-3" points="0 0 79.566959 0 79.566959 73.3442919 0 73.3442919"></polygon>
    </defs>
    <g id="logo_wechat" stroke="none" stroke-width="1" fill="none" fill-rule="evenodd">
        <g id="wechat">
            <path d="M201,27 C207.627586,27 213,32.3725517 213,39 L213,95 C213,101.627586 207.627586,107 201,107 L145,107 C138.372276,107 133,101.627586 133,95 L133,39 C133,32.3725517 138.372552,27 145,27 L201,27 Z M203.989655,67.013931 C197.533241,58.6895172 184.103172,56.6895172 174.945517,62.6889655 C164.641793,69.4394483 163.369241,82.0692414 172.275172,90.3070345 C176.957655,94.6375172 182.636966,96.404 188.975724,95.7555862 C191.05669,95.5428966 193.147862,94.3953103 195.136966,94.6031724 C197.133655,94.8117241 199.009379,96.1775172 201.053655,97.0881379 C200.91669,96.5449655 200.889793,96.0008276 200.654345,95.5708966 C199.377241,93.2426207 200.092966,91.7893793 202.083724,90.0230345 C208.961793,83.9206897 209.624138,74.278069 203.989655,67.013931 Z M154.384828,38.3942069 C146.836552,40.8601379 141.281379,45.5904828 139.019034,53.3903448 C136.574069,61.8222069 139.841241,70.0114483 147.592276,75.4835862 C148.799448,76.337931 148.982069,77.0667586 148.587724,78.3771034 C148.051448,80.1598621 147.748552,82.0136552 147.280414,84.1306207 C149.831448,82.5361379 151.98331,81.105931 154.228,79.8390345 C154.904414,79.4573793 155.851724,79.361931 156.650207,79.4291034 C158.961931,79.6238621 161.26069,79.968 163.784276,80.2804138 C163.209793,73.4937931 165.312,68.0194483 169.917655,63.5514483 C174.476,59.1292414 180.090621,57.172 186.547448,56.8346207 C186.180828,52.9125517 184.793241,49.5962759 182.530759,46.6415172 C176.266207,38.4617931 164.687724,35.0288276 154.384828,38.3942069 Z M177.797655,69.743835 C179.160138,69.7495172 180.255034,70.8908966 180.203034,72.252 C180.153931,73.5373793 179.082207,74.5562759 177.780414,74.554898 C176.488276,74.5533793 175.409103,73.5172414 175.36469,72.2357241 C175.317793,70.8953103 176.447862,69.7373793 177.797655,69.743835 Z M192.783448,69.7489655 C194.127586,69.7583448 195.188552,70.888 195.138069,72.2557241 C195.090621,73.5551724 194.058345,74.5433103 192.752,74.5385004 C191.401793,74.5354483 190.341241,73.4148966 190.395862,72.050069 C190.44731,70.773931 191.521103,69.7402759 192.783448,69.7489655 Z M172.335172,51.2285517 C173.956414,51.1988966 175.270897,52.4677241 175.284552,54.0762759 C175.3,55.7148966 174.054483,56.9835862 172.412,57.0034483 C170.773931,57.0231724 169.453379,55.7677241 169.424276,54.1628966 C169.396,52.6147586 170.742207,51.2577931 172.335172,51.2285517 Z M153.966897,51.2295172 C155.554069,51.2761379 156.890345,52.6653793 156.830897,54.2074483 C156.770897,55.7877241 155.410759,57.0313103 153.788,56.990069 C152.151172,56.9485517 150.909793,55.648 150.957793,54.0249655 C151.005379,52.4237241 152.341931,51.181931 153.966897,51.2295172 Z" fill="#2DC100"></path>
            <g id="enterprise" transform="translate(27.000000, 27.000000)">
                <g id="Group-3" transform="translate(63.679267, 63.335081)">
                    <mask id="mask-2" fill="white">
                        <use xlink:href="#path-1"></use>
                    </mask>
                    <g id="Clip-2"></g>
                    <path d="M0.294174561,2.15070983 C0.323284444,2.18623651 0.354011542,2.2212249 0.387434,2.25406017 C0.445114694,2.31219473 0.507647035,2.36225506 0.572335663,2.40747083 C0.700634776,2.52804623 0.828933889,2.65077476 0.955076714,2.7761947 C3.4304949,5.24852864 4.98679548,8.2909043 5.62505661,11.4796929 C5.63583805,11.6594795 5.65578371,11.8381894 5.68435452,12.0163611 C5.71562069,12.2122961 5.7576683,12.4071546 5.80995828,12.5987833 C6.05523599,13.4955629 6.52854112,14.3428203 7.23364717,15.0468945 C9.39370829,17.2043329 12.8965975,17.2043329 15.0571977,15.0468945 C17.2177979,12.8894562 17.2177979,9.39223136 15.0571977,7.234793 C14.2954891,6.47419909 13.3672073,5.98328497 12.3893309,5.75882094 C12.2804383,5.73405993 12.1704677,5.7125286 12.0599579,5.69422698 C11.9489091,5.67538708 11.8373212,5.66031515 11.7251943,5.64793464 C8.45248875,5.03913654 5.32317635,3.47111809 2.79061655,0.942802719 C2.60787117,0.760324773 2.43105559,0.574078846 2.25855258,0.386218071 L2.25801351,0.386756354 C1.74158262,-0.128918785 0.903864884,-0.128918785 0.387434,0.386756354 C-0.0961134973,0.869057944 -0.126840596,1.63180499 0.294174561,2.15070983" id="Fill-1" fill="#FB6500" mask="url(#mask-2)"></path>
                </g>
                <path d="M81.4648695,69.7300443 C81.5004482,69.7009771 81.5349488,69.6702949 81.5683713,69.6369214 C81.626052,69.5793251 81.6767248,69.5168843 81.7214677,69.4522903 C81.8427589,69.3236407 81.9651282,69.1960676 82.0912711,69.0701093 C84.5666892,66.5983137 87.6135236,65.0442906 90.8075247,64.4069635 C90.9875747,64.3961978 91.1665465,64.3762814 91.3449793,64.3477524 C91.5412015,64.316532 91.7358065,64.2745459 91.9282551,64.2223324 C92.8263489,63.9774136 93.6748481,63.5048011 94.3799542,62.800727 C96.5400153,60.6432886 96.5400153,57.1460638 94.3799542,54.9886254 C92.219354,52.831187 88.7170038,52.831187 86.5564036,54.9886254 C85.794695,55.748681 85.3030615,56.6761427 85.0782685,57.6520498 C85.0529321,57.7613213 85.0319083,57.871131 85.0135798,57.981479 C84.9947123,58.0923653 84.9790792,58.2037899 84.9672197,58.3157528 C84.3569903,61.583669 82.7872129,64.708402 80.2551921,67.2367174 C80.0724468,67.4191953 79.8859279,67.5957521 79.6972527,67.7680027 L79.6983309,67.7690793 C79.1813609,68.2847544 79.1813609,69.1207079 79.6983309,69.6369214 C80.1813393,70.1197612 80.9452042,70.1499051 81.4648695,69.7300443" id="Fill-4" fill="#0082EF"></path>
                <path d="M85.7150741,52.2642135 C85.6859642,52.2286869 85.6552371,52.1936985 85.6218147,52.1608632 C85.564134,52.1027286 85.5016016,52.0526683 85.436913,52.0074525 C85.3080748,51.8868771 85.1803148,51.7641486 85.054172,51.6387287 C82.5787538,49.1663947 81.0224532,46.1240191 80.3841921,42.9352304 C80.3734106,42.7554439 80.353465,42.5767339 80.3248941,42.3985622 C80.293628,42.2026272 80.2515804,42.0077688 80.1992904,41.81614 C79.9540127,40.9193605 79.4807075,40.072103 78.7756015,39.3680288 C76.6155404,37.2105904 73.1126511,37.2105904 70.952051,39.3680288 C68.7914508,41.5254672 68.7914508,45.022692 70.952051,47.1801304 C71.7137596,47.9407243 72.6420414,48.4316384 73.6193787,48.6561024 C73.7288103,48.6808634 73.838781,48.7023948 73.9492907,48.7206964 C74.0603396,48.738998 74.1719274,48.7546082 74.2840544,48.7669887 C77.5567599,49.3757868 80.6860723,50.9438053 83.2186321,53.4721206 C83.4013775,53.6545986 83.5781931,53.8408445 83.7506961,54.0287053 L83.7512352,54.028167 C84.267666,54.5438421 85.1053838,54.5438421 85.6218147,54.028167 C86.1053622,53.5458654 86.1360893,52.7831184 85.7150741,52.2642135" id="Fill-6" fill="#2DBC00"></path>
                <path d="M68.2236463,48.0199595 C68.1880676,48.0490268 68.1530279,48.079709 68.1201445,48.1130825 C68.0624638,48.1706788 68.0117911,48.2331196 67.9670481,48.2977136 C67.8457569,48.4263632 67.7233876,48.5539363 67.5972448,48.6798945 C65.1218266,51.1516902 62.0744531,52.7057133 58.8809912,53.3430404 C58.7009412,53.353806 58.5219693,53.3737225 58.3435365,53.4022515 C58.1473143,53.4334719 57.9527094,53.475458 57.7602607,53.5276714 C56.8621669,53.7725902 56.0136677,54.2452027 55.3085617,54.9492769 C53.1485006,57.1067153 53.1485006,60.6039401 55.3085617,62.7613785 C57.4691619,64.9188168 60.971512,64.9188168 63.1321122,62.7613785 C63.8938208,62.0013228 64.3854544,61.0738612 64.6102474,60.0979541 C64.6350447,59.9886826 64.6566075,59.8788729 64.674936,59.7685248 C64.6938035,59.6576385 64.7094366,59.546214 64.7212962,59.4342511 C65.3309865,56.1663348 66.901303,53.0416019 69.4333237,50.5132865 C69.6160691,50.3308086 69.8025879,50.1542517 69.9912631,49.9820012 L69.990185,49.9809246 C70.5066158,49.4652495 70.5066158,48.6292959 69.990185,48.1130825 C69.5071765,47.6302426 68.7433116,47.6000988 68.2236463,48.0199595" id="Fill-8" fill="#FFCC00"></path>
                <g id="Group-12">
                    <mask id="mask-4" fill="white">
                        <use xlink:href="#path-3"></use>
                    </mask>
                    <g id="Clip-11"></g>
                    <path d="M76.4495062,21.0291029 C74.910995,17.872073 72.8436543,14.9411219 70.3046256,12.318607 C63.88967,5.69341956 54.908732,1.42645002 45.0162235,0.303591626 C43.2405207,0.101735492 41.4804509,0 39.7845307,0 C38.1683931,0 36.4832544,0.0936612464 34.7754746,0.27936889 C24.8387622,1.35808807 15.8076906,5.60298801 9.34583568,12.2324817 C6.79548651,14.8496138 4.71682525,17.7730289 3.16807167,20.9214463 C1.06569125,25.194337 -5.39071904e-05,29.730448 -5.39071904e-05,34.4027447 C-5.39071904e-05,40.4180575 1.83279056,46.3493982 5.30171826,51.5562099 C7.26286185,54.5016946 10.6169672,58.3073556 13.4875251,60.6391976 L13.4875251,60.6397359 L11.8978021,67.2062505 L11.439591,69.055791 C11.3592692,69.2377307 11.2967369,69.4282829 11.2530721,69.626371 C11.2255794,69.748023 11.2174933,69.8745195 11.2056338,70.001016 C11.1964695,70.0962921 11.1765239,70.1888768 11.1765239,70.2873826 C11.1765239,71.9754381 12.5468446,73.3442919 14.2384523,73.3442919 C14.7915401,73.3442919 15.3025802,73.186575 15.7500099,72.9314288 C15.7640258,72.9228163 15.7791198,72.9163569 15.7925966,72.9077443 C15.8583633,72.8695263 15.9257473,72.8350761 15.9877406,72.7920135 L27.3432903,67.1007471 C29.7874423,67.8015916 32.2132658,68.2489048 34.7700839,68.5298885 C36.4320425,68.7123664 38.1193376,68.8049511 39.7845307,68.8049511 C41.4826072,68.8049511 43.242677,68.7026774 45.0162235,68.5013595 C48.5034797,68.1057215 51.8575851,67.3031415 55.0424219,66.1619815 C54.6979549,66.0478655 54.3594178,65.8982228 54.0332793,65.7119769 C52.0845343,64.5988076 51.0764699,62.482817 51.2764656,60.3878195 C49.001043,61.109657 46.6248141,61.626947 44.1682634,61.9057776 C42.6777296,62.0753367 41.2022898,62.1609237 39.7845307,62.1609237 C38.3910298,62.1609237 36.9792005,62.0839493 35.5878559,61.9305386 C35.2978353,61.8987799 35.0083536,61.8546407 34.718872,61.8158843 C32.8073231,61.5618147 30.9189542,61.1720978 29.0936567,60.6386594 C28.7216971,60.5196988 28.3276355,60.4599494 27.9244098,60.4599494 C27.2947738,60.4599494 26.6840053,60.6262788 26.0651508,60.9465572 C25.9848291,60.988005 25.9050464,61.0229934 25.8241856,61.0703623 L18.5380898,65.3577866 L18.5305428,65.3615546 C18.3790636,65.4492947 18.2944293,65.4826683 18.2162639,65.4826683 C17.9602047,65.4826683 17.7521229,65.2668168 17.7521229,65.0003667 L18.0211198,63.9141116 C18.0965899,63.627745 18.2027871,63.2240327 18.3316252,62.7336569 C18.6502167,61.5219818 19.0852478,59.8651466 19.4086909,58.6357082 C19.4787703,58.38433 19.5504668,58.0828915 19.5504668,57.743235 C19.5504668,56.8071608 19.1014199,55.9222235 18.3537272,55.3785576 C17.9736815,55.0975739 17.5936358,54.8031331 17.1941835,54.4790867 C16.5823369,53.9817132 15.9974439,53.4638849 15.4346528,52.9304464 C13.8524768,51.4318665 12.4643666,49.7971009 11.297276,48.0449897 C8.55070463,43.9217417 7.09898399,39.2424474 7.09898399,34.513631 C7.09898399,30.8430791 7.93939709,27.2742626 9.59650412,23.9051491 C10.8347523,21.388676 12.5021017,19.04553 14.5538093,16.9403051 C19.8658239,11.491266 27.3357432,7.99673262 35.5873169,7.10102967 C37.0234044,6.94492759 38.4352337,6.86579999 39.7845307,6.86579999 C41.2012117,6.86579999 42.6761124,6.95192527 44.1682634,7.12094614 C52.381563,8.05325234 59.8078175,11.5650108 65.0804798,17.0102819 C67.1224842,19.1192748 68.7806693,21.4678036 70.0102923,23.9901979 C71.6409849,27.3372417 72.4679212,30.8775292 72.4679212,34.513631 C72.4679212,34.8915057 72.4436629,35.2677655 72.4253345,35.6451019 C74.5557466,34.3429953 77.3713192,34.5981414 79.2154842,36.4396077 C79.3092827,36.5327306 79.3874481,36.6344661 79.4720824,36.7324336 C79.5329975,35.9578444 79.566959,35.181102 79.566959,34.4027447 C79.566959,29.7735107 78.5179251,25.2740029 76.4495062,21.0291029" id="Fill-10" fill="#0079DE" mask="url(#mask-4)"></path>
                </g>
            </g>
        </g>
    </g>
</svg>