<?xml version="1.0" encoding="UTF-8"?>
<svg width="240px" height="135px" viewBox="0 0 240 135" version="1.1" xmlns="http://www.w3.org/2000/svg" xmlns:xlink="http://www.w3.org/1999/xlink">
    <title>logo_danone</title>
    <defs>
        <radialGradient cx="50%" cy="88.1946976%" fx="50%" fy="88.1946976%" r="80.3875646%" gradientTransform="translate(0.500000,0.881947),scale(0.187568,1.000000),rotate(-90.000000),scale(1.000000,2.983771),translate(-0.500000,-0.881947)" id="radialGradient-1">
            <stop stop-color="#00A6E2" offset="0%"></stop>
            <stop stop-color="#092D4F" offset="100%"></stop>
        </radialGradient>
    </defs>
    <g id="Page-1" stroke="none" stroke-width="1" fill="none" fill-rule="evenodd">
        <g id="logos-colored" transform="translate(-656.000000, -80.000000)">
            <g id="logo_danone" transform="translate(656.000000, 80.000000)">
                <path d="M176.840716,79.4269094 C176.840716,78.8651805 176.381168,78.4088895 175.81543,78.4088895 C175.678115,78.4088895 175.546293,78.4397937 175.425455,78.4870589 L175.410809,78.4870589 L175.324758,78.5415957 L175.216737,78.6070398 C164.55926,85.1823574 145.294876,92.7229759 120.691685,92.7229759 C96.1049714,92.7229759 76.8460809,85.1914468 66.1849421,78.619765 L66.0128406,78.5161452 L65.9688998,78.4870589 L65.9597455,78.4870589 C65.8389082,78.4397937 65.7070858,78.4088895 65.5679399,78.4088895 C65.0040329,78.4088895 64.5463161,78.8651805 64.5463161,79.4269094 C64.5463161,79.7741268 64.7220793,80.0849865 64.9930476,80.2685936 L65.0223415,80.2976799 C75.6450321,86.9039017 95.9438551,100 120.691685,100 C145.437684,100 165.740169,86.9039017 176.357367,80.2976799 L176.381168,80.2758652 C176.657629,80.092258 176.840716,79.7795805 176.840716,79.4269094" id="Fill-3" fill="#ED1C25"></path>
                <path d="M219.287354,41.6045629 C222.332086,45.716636 222.958243,49.9577794 222.993029,53.8426159 C223.041298,55.1465407 222.82931,56.5916902 222.652813,57.7082259 L222.601224,58.0328584 L197.331597,58.0328584 C197.774666,62.0213148 200.480688,67.2241234 206.595784,67.4113664 C209.079857,67.4870142 211.920578,67.1676817 214.467485,64.7431795 L214.721172,64.4936487 L222.183786,66.2024678 C217.017079,73.3885973 210.674956,74.1484764 207.108427,74.4102529 C202.020447,74.7447452 197.688616,73.0177472 194.625575,70.0636717 C191.007782,66.4969664 189.510133,61.0741927 189.554073,55.0878724 C189.649279,49.2906129 191.520425,44.1714273 195.008226,40.7592428 C197.966908,37.7706274 202.020447,36.118163 206.656203,36.118163 C210.275827,36.118163 215.572525,36.6635308 219.287354,41.6045629 Z M50.2214292,54.5334151 C49.8918731,70.8144613 35.4774569,74.2466426 27.4564283,74.3048151 C23.2637428,74.3048151 19.1406302,73.6758243 18.2178732,73.3885973 C18.3480682,72.2628504 18.6372118,68.5676159 18.6443313,55.5880603 L18.6440669,54.1290051 C18.6335788,41.619853 18.4160589,38.3551135 18,36.9562115 C19.5580679,36.6635308 23.8203264,36.118163 28.7014179,36.118163 C35.5561841,36.118163 50.4301481,37.9415093 50.2214292,54.5334151 Z M136.33443,36 C146.354765,36 154.575358,44.5077374 154.575358,55.0878724 C154.575358,65.6952758 146.354765,74.3048151 136.33443,74.3048151 C126.251845,74.3048151 118.100825,65.6952758 118.100825,55.0878724 C118.100825,44.5077374 126.251845,36 136.33443,36 Z M70.0735206,37.2343491 C78.2687257,46.0168004 82.3407932,59.5154321 83.5657596,72.3649665 L83.6255985,73.0177472 L75.4581006,73.0177472 C75.2415352,70.7381098 74.973855,68.5092251 74.5951057,66.2978939 L74.3961977,65.1935374 L57.7371384,65.1935374 C57.3573643,67.3999396 57.0798198,69.6183622 56.8433978,71.8820042 L56.7283307,73.0177472 L48.8556024,73.0177472 C49.9772221,60.1917574 54.0588614,46.6257333 62.1015041,37.6849528 L62.5138706,37.2343491 L70.0735206,37.2343491 Z M163.039457,37.2343491 C165.160446,38.5583343 168.09421,41.316669 170.922012,44.09097 L171.626223,44.7840571 C174.399987,47.6236053 177.236,50.8467289 179.714994,54.671575 L179.714994,54.671575 L179.714994,37.2343491 L187.536458,37.2343491 L187.536458,73.0177472 L180.489451,73.0177472 C177.662592,62.8011907 170.921339,54.1734724 164.319233,48.5143727 L164.319233,48.5143727 L164.319233,73.0177472 L156.481291,73.0177472 L156.481291,37.2343491 Z M91.6466271,37.2343491 C93.9260565,38.6686663 97.2930211,41.7863522 100.26818,44.7840571 C103.111517,47.6236053 105.852325,50.8467289 108.349627,54.671575 L108.349627,54.671575 L108.349627,37.2343491 L116.108842,37.2343491 L116.108842,73.0177472 L109.140562,73.0177472 C106.24413,62.8011907 99.5285097,54.1734724 92.9520353,48.5143727 L92.9520353,48.5143727 L92.9520353,73.0177472 L85.1232478,73.0177472 L85.1232478,37.2343491 Z M29.4483574,42.9268102 L29.3092658,42.9261708 C28.4396039,42.9625287 27.581385,43.0165605 26.8108951,43.0335612 L26.3597389,43.0388802 L26.3597389,67.2932034 C26.9199843,67.3944859 27.6201228,67.4089549 28.30681,67.4110219 L28.6483228,67.4113664 C33.5019513,67.4477242 42.6965656,65.6952758 42.6965656,55.0878724 C42.6965656,44.7200504 33.66787,43.0030296 29.5918019,42.9287755 L29.4483574,42.9268102 Z M136.33443,43.0388802 C130.217503,43.0388802 125.294302,48.3925739 125.294302,55.0878724 C125.294302,61.797714 130.217503,67.2241234 136.33443,67.2241234 C142.466004,67.2241234 147.328787,61.797714 147.328787,55.0878724 C147.328787,48.3925739 142.466004,43.0388802 136.33443,43.0388802 Z M66.0547675,43.6333311 C63.252717,48.0147249 61.0950859,52.70292 59.596002,57.7664953 L59.3647793,58.5691367 L72.7960199,58.5691367 C71.334988,53.1972641 69.0299264,48.2453246 66.0547675,43.6333311 Z M206.804503,42.8316404 C203.82514,42.8316404 198.918069,44.8875336 197.667574,50.6871395 L197.600734,51.0194287 L197.392015,51.9011066 L215.572525,51.9011066 L215.556047,51.0975981 C215.433379,49.8432522 215.03425,47.0964165 212.806085,45.0676483 C211.240694,43.5824301 208.80564,42.8316404 206.804503,42.8316404 Z" id="Combined-Shape" fill="url(#radialGradient-1)"></path>
            </g>
        </g>
    </g>
</svg>