<?xml version="1.0" encoding="UTF-8"?>
<svg width="240px" height="135px" viewBox="0 0 240 135" version="1.1" xmlns="http://www.w3.org/2000/svg" xmlns:xlink="http://www.w3.org/1999/xlink">
    <title>logo_html5</title>
    <g id="logo_html5" stroke="none" stroke-width="1" fill="none" fill-rule="evenodd">
        <g id="html5" fill-rule="nonzero">
            <g transform="translate(81.000000, 12.000000)">
                <polygon id="Path" fill="#E44D26" points="7.18935909 103.004257 1.67466695e-14 22.0104724 79 22.0104724 71.8027409 102.991453 39.4515227 112"></polygon>
                <polygon id="Path" fill="#F16529" points="39.5 105.114379 65.6411 97.8347213 71.7919682 28.6331627 39.5 28.6331627"></polygon>
                <path d="M39.5,58.672592 L26.4132909,58.672592 L25.5092795,48.500512 L39.5,48.500512 L39.5,38.5668373 L14.7004636,38.5668373 L14.9374636,41.2318552 L17.36815,68.605906 L39.5,68.605906 L39.5,58.672592 Z M39.5,84.4708595 L39.45655,84.4827617 L28.4421545,81.4953016 L27.7379773,73.573104 L17.8101909,73.573104 L19.1959227,89.1702573 L39.4547545,94.8189482 L39.5,94.8061443 L39.5,84.4708595 Z" id="Shape" fill="#EBEBEB"></path>
                <path d="M7.35023182,1.26153633e-13 L12.3760682,1.26153633e-13 L12.3760682,4.98739574 L16.9735091,4.98739574 L16.9735091,1.26153633e-13 L21.999525,1.26153633e-13 L21.999525,15.1032106 L16.9735091,15.1032106 L16.9735091,10.0458442 L12.3760682,10.0458442 L12.3760682,15.1032106 L7.35059091,15.1032106 L7.35023182,1.26153633e-13 Z M28.6091318,5.00867549 L24.1847727,5.00867549 L24.1847727,1.26153633e-13 L38.0623795,1.26153633e-13 L38.0623795,5.00867549 L33.6358659,5.00867549 L33.6358659,15.1032106 L28.6093114,15.1032106 L28.6093114,5.00867549 L28.6091318,5.00867549 Z M40.2645045,1.26153633e-13 L45.5054364,1.26153633e-13 L48.729175,5.30695263 L51.9498614,1.26153633e-13 L57.1925886,1.26153633e-13 L57.1925886,15.1032106 L52.1865023,15.1032106 L52.1865023,7.61706759 L48.7286364,12.9871381 L48.642275,12.9871381 L45.182075,7.61706759 L45.182075,15.1032106 L40.264325,15.1032106 L40.264325,1.26153633e-13 L40.2645045,1.26153633e-13 Z M59.6934773,1.26153633e-13 L64.72075,1.26153633e-13 L64.72075,10.1111261 L71.7890955,10.1111261 L71.7890955,15.1032106 L59.6934773,15.1032106 L59.6934773,1.26153633e-13 Z" id="Shape" fill="#000000"></path>
                <path d="M39.4658864,58.672592 L39.4658864,68.605906 L51.6444545,68.605906 L50.4962614,81.4891701 L39.4658864,84.479155 L39.4658864,94.8137185 L59.7408773,89.1702573 L59.8891818,87.4915016 L62.2135773,61.3401346 L62.4548864,58.672592 L59.7900727,58.672592 L39.4658864,58.672592 Z M39.4658864,38.5668373 L39.4658864,48.500512 L63.3549477,48.500512 L63.5529864,46.2675812 L64.0036455,41.2318552 L64.2402864,38.5668373 L39.4658864,38.5668373 Z" id="Shape" fill="#FFFFFF"></path>
            </g>
        </g>
    </g>
</svg>