<?xml version="1.0" encoding="UTF-8"?>
<svg width="240px" height="135px" viewBox="0 0 240 135" version="1.1" xmlns="http://www.w3.org/2000/svg" xmlns:xlink="http://www.w3.org/1999/xlink">
    <title>logo_whirlpool</title>
    <g id="Page-1" stroke="none" stroke-width="1" fill="none" fill-rule="evenodd">
        <g id="logos-colored" transform="translate(-1232.000000, -80.000000)" fill-rule="nonzero">
            <g id="logo_whirlpool" transform="translate(1232.000000, 80.000000)">
                <path d="M148.232048,52.3540526 C153.722447,52.3540526 157.72951,56.3665425 157.72951,65.9828831 C157.72951,75.4377715 153.49928,80.109944 146.474547,80.109944 C143.886856,80.109944 141.03857,79.5596092 141.03857,79.5596092 L141.03857,91.9243813 L134.997734,92.5849683 L134.997734,52.739512 L139.556635,52.739512 L140.049935,54.7180703 C141.861924,53.7277456 145.209645,52.3540526 148.232048,52.3540526 Z M161.530167,85.448787 C163.279638,85.448787 164.417018,86.3440571 164.417018,88.6885451 C164.417018,91.0262261 163.270519,91.9281796 161.512185,91.9281796 C159.762728,91.9281796 158.618649,91.0510187 158.618649,88.6885451 C158.618649,86.2876693 159.781851,85.448787 161.530167,85.448787 Z M181.857515,85.448787 C183.606986,85.448787 184.744366,86.3440571 184.744366,88.6885451 C184.744366,91.0262261 183.597881,91.9281796 181.839547,91.9281796 C180.090085,91.9281796 178.94601,91.0510187 178.94601,88.6885451 C178.94601,86.2876693 180.109213,85.448787 181.857515,85.448787 Z M211.944833,85.448787 C213.694304,85.448787 214.831684,86.3440571 214.831684,88.6885451 C214.831684,91.0262261 213.685198,91.9281796 211.926864,91.9281796 C210.177402,91.9281796 209.033328,91.0510187 209.033328,88.6885451 C209.033328,86.2876693 210.19653,85.448787 211.944833,85.448787 Z M155.836729,85.448787 C156.430706,85.448787 156.828965,85.5557968 157.134934,85.6480457 L157.134934,86.7933067 C156.909951,86.7302355 156.278868,86.622189 155.809655,86.622189 C154.690355,86.622189 153.808259,86.7933067 153.808259,88.6885451 C153.808259,90.5543807 154.728593,90.7638962 155.737656,90.7638962 C156.278868,90.7638962 156.719861,90.6545836 157.208087,90.5543807 L157.208087,91.7277739 C156.828961,91.8021474 156.160689,91.9281796 155.566685,91.9281796 C153.529219,91.9281796 152.376158,91.0701602 152.376158,88.7324792 C152.376158,86.3046183 153.907332,85.448787 155.836729,85.448787 Z M168.228222,85.5388434 C170.086775,85.5388434 170.990198,85.9634063 170.990198,87.5770629 C170.990198,88.5108154 170.630919,89.0615222 170.066836,89.3605503 L169.942883,89.4208234 L171.315317,91.9281708 L169.697869,91.9281708 L168.866942,89.6540815 L168.715981,89.6610815 L168.715981,89.6610815 L168.562296,89.6637207 L167.878351,89.6637207 L167.878351,91.8369718 L166.517108,91.8369718 L166.517108,85.5388434 L168.228222,85.5388434 Z M188.157633,85.5388434 C190.016186,85.5388434 190.919609,85.9634063 190.919609,87.5770629 C190.919609,88.5108154 190.56033,89.0615222 189.996247,89.3605503 L189.872294,89.4208234 L191.244727,91.9281708 L189.627279,91.9281708 L188.796353,89.6540815 L188.645392,89.6610815 L188.645392,89.6610815 L188.491707,89.6637207 L187.807762,89.6637207 L187.807762,91.8369718 L186.446519,91.8369718 L186.446519,85.5388434 L188.157633,85.5388434 Z M196.282926,85.493877 L198.636502,91.6918025 L198.636502,91.8369718 L197.13001,91.8369718 L196.606877,90.4293852 L194.633569,90.4293852 L194.172425,91.8369718 L192.704171,91.8369718 L192.704171,91.6918025 L194.948652,85.493877 L196.282926,85.493877 Z M174.852096,85.5388478 C176.710649,85.5388478 177.614072,85.9634195 177.614072,87.5770717 C177.614072,89.1930223 176.539585,89.6637251 175.186183,89.6637251 L174.502225,89.6637251 L174.502225,91.8369718 L173.140995,91.8369718 L173.140995,85.5388478 L174.852096,85.5388478 Z M207.095257,85.5388478 L207.095257,91.8369718 L205.735063,91.8369718 L205.735063,85.5388478 L207.095257,85.5388478 Z M204.309569,85.493877 L204.309569,86.6526372 L202.470158,86.651787 L202.470664,91.8369718 L200.905218,91.8369718 L200.905158,86.651787 L199.066318,86.6526372 L199.066318,85.493877 L204.309569,85.493877 Z M217.90709,85.5388478 L220.232556,88.8495207 L220.556626,89.3911296 L220.637611,89.3911296 L220.637611,85.5388478 L222,85.5388478 L222,91.8369718 L220.834497,91.8369718 L218.446006,88.3979639 L218.17828,87.9397236 L218.078184,87.9397236 L218.078184,91.8369718 L216.715778,91.8369718 L216.715778,85.5388478 L217.90709,85.5388478 Z M211.953816,86.4870427 C211.044755,86.4870427 210.494667,87.0905758 210.466557,88.678403 C210.438447,90.2661023 211.01561,90.8820935 211.92686,90.8820935 C212.826832,90.8820935 213.394995,90.3573101 213.394995,88.678403 C213.394995,87.0028266 212.844801,86.4870427 211.953816,86.4870427 Z M161.53915,86.4870427 C160.63009,86.4870427 160.079988,87.0905758 160.051891,88.678403 C160.023781,90.2661023 160.600944,90.8820935 161.512181,90.8820935 C162.412166,90.8820935 162.980329,90.3573101 162.980329,88.678403 C162.980329,87.0028266 162.430122,86.4870427 161.53915,86.4870427 Z M181.866498,86.4870427 C180.957438,86.4870427 180.407349,87.0905758 180.379239,88.678403 C180.351129,90.2661023 180.928292,90.8820935 181.839542,90.8820935 C182.739514,90.8820935 183.307677,90.3573101 183.307677,88.678403 C183.307677,87.0028266 182.757483,86.4870427 181.866498,86.4870427 Z M195.652875,86.9937168 L195.561748,86.9937168 L195.489749,87.3440253 L194.830446,89.5184367 L196.354925,89.5184367 L195.723732,87.3440253 L195.652875,86.9937168 Z M175.0613,86.648014 L174.50223,86.648014 L174.50223,88.7053794 L174.996093,88.7053794 C175.790425,88.7053794 176.187516,88.4531915 176.187516,87.6682751 C176.187516,86.8755239 175.790425,86.648014 175.0613,86.648014 Z M168.437426,86.648014 L167.878356,86.648014 L167.878356,88.7053794 L168.372219,88.7053794 C169.166538,88.7053794 169.563642,88.4531959 169.563642,87.6682795 C169.563642,86.8755107 169.166538,86.648014 168.437426,86.648014 Z M188.366833,86.648014 L187.807762,86.648014 L187.807762,88.7053794 L188.301626,88.7053794 C189.095944,88.7053794 189.493048,88.4531959 189.493048,87.6682795 C189.493048,86.8755107 189.095944,86.648014 188.366833,86.648014 Z M172.99014,52.3540526 C181.556095,52.3540526 184.850729,57.4120374 184.850729,66.3686909 C184.850729,74.7771801 181.777244,80.2747445 172.879916,80.2747445 C163.986757,80.2747445 160.856069,74.7771801 160.856069,66.3686909 C160.856069,57.4120374 164.425639,52.3540526 172.99014,52.3540526 Z M200.073309,52.3540526 C208.638511,52.3540526 211.93251,57.4120374 211.93251,66.3686909 C211.93251,74.7771801 208.857641,80.2747445 199.963081,80.2747445 C191.069155,80.2747445 187.93848,74.7771801 187.93848,66.3686909 C187.93848,57.4120374 191.508742,52.3540526 200.073309,52.3540526 Z M24.0408359,41.363675 L31.5078663,69.2278026 L39.0290324,41.363675 L45.0160807,41.363675 L52.5929869,69.2278026 L60.0600173,41.363675 L66.0988257,41.363675 L55.6114193,79.7258125 L49.5178404,79.7258125 L42.1041833,51.859938 L34.5830832,79.7258125 L28.4874814,79.7258125 L18,41.363675 L24.0408359,41.363675 Z M74.9342215,40.9795435 L74.9342215,50.3759178 L74.8253198,53.8929652 L75.0454944,53.8929652 C77.8447218,52.8488687 80.0956061,52.35336 82.8428573,52.35336 C87.7303502,52.35336 91.0229519,54.5539051 91.0229519,62.9616973 L91.0229519,79.7258169 L84.9831651,79.7258169 L84.9831651,63.4558075 C84.9831651,58.4008931 82.5128774,57.741978 79.7128788,57.741978 C77.9553028,57.741978 76.4730156,58.1264624 74.9342215,58.5654112 L74.9342215,79.7258169 L68.8933945,79.7258169 L68.8933945,41.4733096 L74.9342215,40.9795435 Z M102.331011,52.7405575 L102.331011,79.7258125 L96.2912197,79.7258125 L96.2912197,52.7405575 L102.331011,52.7405575 Z M120.175299,52.3544012 C120.557674,52.3544012 120.99998,52.3544012 121.438174,52.4099199 L121.438174,58.3453832 C120.340637,58.1819812 119.185901,58.0147411 118.034991,58.0147411 C116.385272,58.0147411 115.068676,58.4008975 113.475746,59.1147005 L113.475746,79.7258125 L107.435959,79.7258125 L107.435959,52.7402134 L111.554573,52.7402134 L112.378906,54.9376881 L112.762682,54.9376881 C114.354854,53.5646965 116.880604,52.3544012 120.175299,52.3544012 Z M130.057851,40.9798876 L130.057851,79.7244141 L124.018342,79.7244141 L124.018342,41.4730273 L130.057851,40.9798876 Z M221.884456,40.9798876 L221.884456,79.7244141 L215.844943,79.7244141 L215.844943,41.4730273 L221.884456,40.9798876 Z M173.04525,57.0813204 C168.159788,57.0813204 166.951393,61.0938147 166.951393,66.3686909 C166.951393,71.2601327 167.93864,75.4929329 172.773094,75.4929329 C177.602829,75.4929329 178.700357,71.4800946 178.700357,66.3686909 C178.700357,61.2583328 177.877699,57.0813204 173.04525,57.0813204 Z M200.128428,57.0813204 C195.242257,57.0813204 194.031773,61.0938147 194.031773,66.3686909 C194.031773,71.2601327 195.020404,75.4929329 199.854188,75.4929329 C204.684531,75.4929329 205.782768,71.4800946 205.782768,66.3686909 C205.782768,61.2583328 204.958083,57.0813204 200.128428,57.0813204 Z M145.485846,58.1812797 C143.948793,58.1812797 142.521267,58.4533414 141.038566,58.9498294 L141.038566,74.7240391 C142.738312,74.7771801 143.675941,74.8329723 145.431424,74.8329723 C149.16292,74.8329723 151.636271,72.8551816 151.636271,64.9936039 C151.636271,59.6074166 149.439187,58.1812797 145.485846,58.1812797 Z M99.3126491,41.8584866 C102.441583,41.8584866 102.93524,43.6714813 102.93524,45.7054834 C102.93524,47.7378091 102.276241,49.6079901 99.3126491,49.6079901 C96.3459857,49.6079901 95.7421053,47.7378091 95.7421053,45.7054834 C95.7421053,43.6714813 96.2912197,41.8584866 99.3126491,41.8584866 Z" id="whirlpool" fill="#000000"></path>
                <path d="M164.899167,36.1589549 C160.382484,30.9209014 146.051964,35.5252162 130.057851,46.6051429 L130.057851,49.3975836 C144.143404,39.3750011 156.559164,34.7519286 160.115767,38.8760735 C164.554894,44.0256278 153.508813,60.867712 135.44276,76.4750302 C117.372233,92.0844438 99.1176978,100.546003 94.6802417,95.397146 C92.372921,92.7225719 94.2529867,86.891992 99.1176934,79.7237171 L96.2894743,79.7237171 C90.2666911,88.7165669 88.0080058,96.2709321 91.1012048,99.8594722 C96.7392378,106.399739 117.829868,97.450541 138.203943,79.8538564 C158.575298,62.2563997 170.536565,42.6992879 164.899167,36.1589549" id="Path" fill="#EFB200"></path>
            </g>
        </g>
    </g>
</svg>