<?xml version="1.0" encoding="UTF-8"?>
<svg width="240px" height="135px" viewBox="0 0 240 135" version="1.1" xmlns="http://www.w3.org/2000/svg" xmlns:xlink="http://www.w3.org/1999/xlink">
    <title>logo_servicenow</title>
    <g id="logo_servicenow" stroke="none" stroke-width="1" fill="none" fill-rule="evenodd">
        <g id="servicenow" fill-rule="nonzero">
            <g transform="translate(15.000000, 52.000000)">
                <path d="M51.3110853,9.66974715 C48.9843297,9.66974715 47.0249565,10.5265602 45.4329658,11.7505788 L45.4329658,9.79214901 L40.0446895,9.79214901 L40.0446895,30.7228675 L45.6778874,30.7228675 L45.6778874,17.3810645 C46.4126524,16.2794477 48.3720255,14.8106254 50.6987812,14.8106254 C51.556007,14.8106254 52.2907719,14.9330272 52.903076,15.177831 L52.903076,9.79214901 C52.4132327,9.66974715 51.9233894,9.66974715 51.3110853,9.66974715 M2.57167731,24.3579707 C4.0412072,25.7043912 6.12304121,26.4388023 8.32733604,26.4388023 C9.79686593,26.4388023 11.0214742,25.7043912 11.0214742,24.7251763 C11.0214742,21.5427278 0.979686593,22.6443446 0.979686593,15.9122421 C0.979686593,11.8729807 4.89843297,9.42494343 8.93964016,9.42494343 C11.6337783,9.42494343 14.5728381,10.4041583 16.042368,11.5057751 L13.4706907,15.5450366 C12.3685432,14.8106254 11.0214742,14.0762142 9.42948346,14.0762142 C7.83749275,14.0762142 6.6128845,14.6882235 6.6128845,15.7898403 C6.6128845,18.4826813 16.6546721,17.3810645 16.6546721,24.7251763 C16.6546721,28.7644377 12.7359257,31.212475 8.32733604,31.212475 C5.38827626,31.212475 2.44921648,30.2332601 -1.42108547e-14,28.3972321 L2.57167731,24.3579707 Z M37.7179338,20.0739055 C37.7179338,14.1986161 33.6767266,9.42494343 27.9210679,9.42494343 C21.6755659,9.42494343 17.7568195,14.5658217 17.7568195,20.3187092 C17.7568195,26.9284098 22.4103308,31.212475 28.6558328,31.212475 C31.8398143,31.212475 35.1462565,29.8660545 37.2280905,27.4180172 L34.0441091,24.2355688 C33.0644225,25.3371856 31.1050493,26.6836061 28.7782937,26.6836061 C25.8392339,26.6836061 23.3900174,24.6027744 23.1450958,21.6651297 L37.595473,21.6651297 C37.595473,21.1755222 37.7179338,20.6859148 37.7179338,20.0739055 M23.3900174,17.6258682 C23.6349391,15.6674384 25.5943122,13.9538123 27.7986071,13.9538123 C30.1253627,13.9538123 31.7173535,15.7898403 31.9622751,17.6258682 L23.3900174,17.6258682 Z M66.2513059,22.6443446 L72.0069646,9.79214901 L77.7626233,9.79214901 L68.210679,30.7228675 L64.2919327,30.7228675 L54.7399884,9.79214901 L60.618108,9.79214901 L66.2513059,22.6443446 Z M82.5385955,-2.30926389e-14 C84.4979687,-2.30926389e-14 86.2124202,1.59122421 86.2124202,3.54965402 C86.2124202,5.50808382 84.6204295,7.09930804 82.5385955,7.09930804 C80.4567615,7.09930804 78.8647707,5.50808382 78.8647707,3.54965402 C78.8647707,1.59122421 80.4567615,-2.30926389e-14 82.5385955,-2.30926389e-14 M79.7219965,9.79214901 L85.3551944,9.79214901 L85.3551944,30.7228675 L79.7219965,30.7228675 L79.7219965,9.79214901 Z M108.377829,26.4388023 C105.928613,29.7436526 102.867092,31.0900731 98.9483459,31.0900731 C92.4579222,31.0900731 87.8044109,26.1939986 87.8044109,20.1963073 C87.8044109,14.0762142 92.7028439,9.30254156 99.0708067,9.30254156 C102.622171,9.30254156 105.928613,11.0161676 107.887986,13.4642049 L103.96924,17.0138589 C102.867092,15.5450366 101.152641,14.5658217 99.1932676,14.5658217 C96.0092861,14.5658217 93.5600696,17.1362608 93.5600696,20.3187092 C93.5600696,23.6235595 95.8868253,26.0715968 99.3157284,26.0715968 C101.642484,26.0715968 103.356936,24.7251763 104.336622,23.2563539 L108.377829,26.4388023 Z M128.706326,27.4180172 C126.746953,29.8660545 123.31805,31.212475 120.134068,31.212475 C113.888566,31.212475 109.235055,26.9284098 109.235055,20.3187092 C109.235055,14.4434198 113.153802,9.42494343 119.399304,9.42494343 C125.154962,9.42494343 129.196169,14.3210179 129.196169,20.0739055 C129.196169,20.6859148 129.196169,21.1755222 129.073709,21.6651297 L114.623331,21.6651297 C114.868253,24.6027744 117.31747,26.6836061 120.256529,26.6836061 C122.583285,26.6836061 124.542658,25.3371856 125.522345,24.2355688 L128.706326,27.4180172 Z M123.440511,17.6258682 C123.31805,15.7898403 121.603598,13.9538123 119.276843,13.9538123 C116.950087,13.9538123 115.113175,15.6674384 114.868253,17.6258682 L123.440511,17.6258682 Z M131.400464,30.7228675 L131.400464,9.79214901 L136.788741,9.79214901 L136.788741,11.5057751 C138.380731,10.1593546 140.340104,9.42494343 142.66686,9.42494343 C145.60592,9.42494343 148.177597,10.7713639 149.892049,12.8521956 C151.239118,14.4434198 152.096344,16.6466533 152.096344,20.1963073 L152.096344,30.8452694 L146.463146,30.8452694 L146.463146,19.7066999 C146.463146,17.6258682 145.973302,16.5242515 145.238537,15.7898403 C144.503772,15.0554291 143.401625,14.5658217 142.054556,14.5658217 C139.7278,14.5658217 137.768427,16.034644 137.033662,17.1362608 L137.033662,30.7228675 L131.400464,30.7228675 Z" id="Shape" fill="#293F41"></path>
                <path d="M166.42426,9.42494343 C159.811376,9.42494343 154.178178,14.8106254 154.178178,21.5427278 C154.178178,25.0923818 155.647707,28.2748303 157.974463,30.6004657 C158.831689,31.4572787 160.178758,31.4572787 161.158445,30.7228675 C162.505514,29.6212508 164.342426,29.0092415 166.42426,29.0092415 C168.506094,29.0092415 170.220546,29.6212508 171.690075,30.7228675 C172.669762,31.4572787 174.016831,31.3348768 174.874057,30.4780638 C177.200813,28.2748303 178.670342,25.0923818 178.670342,21.5427278 C178.547882,14.9330272 173.159605,9.42494343 166.42426,9.42494343 M166.301799,27.7852228 C162.750435,27.7852228 160.178758,25.0923818 160.178758,21.6651297 C160.178758,18.2378775 162.627974,15.5450366 166.301799,15.5450366 C169.975624,15.5450366 172.42484,18.3602794 172.42484,21.6651297 C172.42484,24.96998 169.975624,27.7852228 166.301799,27.7852228" id="Shape" fill="#82B6A1"></path>
                <polygon id="Path" fill="#293F41" points="189.569356 30.7228675 185.405688 30.7228675 177.078352 9.79214901 182.71155 9.79214901 187.2426 21.7875316 191.773651 9.79214901 196.427162 9.79214901 200.835752 21.7875316 205.366802 9.79214901 211 9.79214901 202.672664 30.7228675 198.508996 30.7228675 194.100406 18.8498869"></polygon>
            </g>
        </g>
    </g>
</svg>