<?xml version="1.0" encoding="UTF-8"?>
<svg width="240px" height="135px" viewBox="0 0 240 135" version="1.1" xmlns="http://www.w3.org/2000/svg" xmlns:xlink="http://www.w3.org/1999/xlink">
    <title>logo_msazure</title>
    <g id="logo_msazure" stroke="none" stroke-width="1" fill="none" fill-rule="evenodd">
        <g id="msazure" fill-rule="nonzero">
            <path d="M2,57.5408329 L15.4763024,55.6806426 L15.4763024,68.7393529 L2.00124074,68.7393529 L2,57.5408329 Z M15.4763024,70.4104716 L15.4763024,83.3215378 L2.00186111,81.4641509 L2.00155093,70.4110945 L15.4766126,70.4110945 L15.4766126,70.4104716 L15.4763024,70.4104716 Z M16.9664317,55.4753738 L34.898233,53 L34.898233,68.7393529 L16.9664317,68.7393529 L16.9664317,55.4753738 Z M34.898233,70.4104716 L34.898233,86 L16.9664317,83.5264951 L16.9664317,70.4104716 L34.898233,70.4104716 Z" id="Shape" fill="#0DADEA"></path>
            <path d="M65.3407305,79.2547855 L62.2255414,79.2547855 L62.2255414,67.1594994 C62.2255414,66.1680416 62.2872682,64.9572982 62.4104117,63.5222854 L62.3583006,63.5222854 C62.1638145,64.3389998 61.9922822,64.9252152 61.8433933,65.2828003 L56.1943021,79.2547855 L54.0295202,79.2547855 L48.3667808,65.3874594 C48.2085863,64.9794137 48.0410864,64.357689 47.8655216,63.5238428 L47.8134105,63.5238428 C47.8844429,64.2714075 47.9191836,65.491807 47.9191836,67.1859756 L47.9191836,79.2547855 L45.0149204,79.2547855 L45.0149204,60.5644208 L49.4366092,60.5644208 L54.412909,73.0119969 C54.7910246,73.9676338 55.0376218,74.6809352 55.1514597,75.1494091 L55.217219,75.1494091 C55.5429133,74.1672959 55.8065707,73.4368629 56.0091215,72.9590444 L61.0781666,60.5644208 L65.341661,60.5644208 L65.3404203,79.2547855 L65.3407305,79.2547855 Z M71.1883402,63.105518 C70.6870811,63.105518 70.2568543,62.9454146 69.9016923,62.6236502 C69.5449795,62.3021974 69.3669332,61.8932172 69.3669332,61.398267 C69.3669332,60.9033168 69.5449795,60.4902873 69.9016923,60.1594899 C70.2584052,59.8299385 70.6870811,59.6642283 71.1883402,59.6642283 C71.7069697,59.6642283 72.1480529,59.8299385 72.508488,60.1594899 C72.8689231,60.4902873 73.0500712,60.9017594 73.0500712,61.398267 C73.0500712,61.8667409 72.8689231,62.2691799 72.508488,62.6037152 C72.146502,62.9388734 71.7069697,63.105518 71.1883402,63.105518 Z M72.7054556,79.2547855 L69.6442387,79.2547855 L69.6442387,65.9076399 L72.7057658,65.9076399 L72.7057658,79.2547855 L72.7054556,79.2547855 Z M86.3939246,78.6420939 C85.3123091,79.2588349 84.0309344,79.5672053 82.5525921,79.5672053 C80.5463148,79.5672053 78.9271486,78.9479725 77.6950933,77.7104414 C76.4636584,76.4729102 75.8470104,74.8675149 75.8470104,72.8942555 C75.8470104,70.6957921 76.5092556,68.9302934 77.8334359,67.5958903 C79.1579263,66.2621102 80.9281527,65.5949086 83.1462865,65.5949086 C84.3780315,65.5949086 85.4649202,65.8079646 86.4060218,66.234388 L86.4060218,69.0492808 C85.4636794,68.3546685 84.4611611,68.0064279 83.3972262,68.0064279 C82.1037543,68.0064279 81.0435416,68.4393925 80.2165881,69.3034528 C79.3896346,70.1678245 78.9752273,71.2994507 78.9752273,72.6983312 C78.9752273,74.08008 79.3638892,75.1705901 80.142764,75.9698614 C80.9213286,76.7694442 81.9666525,77.1690799 83.2778049,77.1690799 C84.3780315,77.1690799 85.4152905,76.7828381 86.3923737,76.0097316 L86.3939246,78.6420939 L86.3939246,78.6420939 Z M97.2823526,68.7885675 C96.9123017,68.5013781 96.3803343,68.3587178 95.6848992,68.3587178 C94.7785383,68.3587178 94.0213765,68.7620913 93.4143442,69.5707072 C92.8070018,70.3780771 92.5030204,71.4779317 92.5030204,72.8677792 L92.5030204,79.2547855 L89.4402526,79.2547855 L89.4402526,65.9076399 L92.5030204,65.9076399 L92.5030204,68.6577437 L92.5551315,68.6577437 C92.8541499,67.7192385 93.3138442,66.987248 93.9342145,66.4617723 C94.5545847,65.936608 95.2478484,65.6730914 96.0130751,65.6730914 C96.5679963,65.6730914 96.9901582,65.7565695 97.2811118,65.9207223 L97.2823526,68.7885675 L97.2823526,68.7885675 Z M105.465966,79.5672053 C103.380592,79.5672053 101.715828,78.9439232 100.469505,77.6970475 C99.2244216,76.4504833 98.6012597,74.7971192 98.6012597,72.7382013 C98.6012597,70.4958185 99.2498567,68.7449596 100.548602,67.4850015 C101.847347,66.2250434 103.59493,65.5949086 105.795693,65.5949086 C107.908054,65.5949086 109.552655,66.2079117 110.731979,67.4332949 C111.911613,68.6589897 112.500034,70.3568961 112.500034,72.5288832 C112.500034,74.6585083 111.864775,76.3632674 110.592706,77.644095 C109.322188,78.9267915 107.613378,79.5672053 105.465966,79.5672053 L105.465966,79.5672053 Z M105.610823,68.0064279 C104.414129,68.0064279 103.467754,68.4194574 102.77356,69.2439591 C102.077814,70.0697066 101.730717,71.207874 101.730717,72.6584611 C101.730717,74.0573416 102.083088,75.1587537 102.786898,75.9620743 C103.490397,76.7653949 104.43274,77.1675225 105.612064,77.1675225 C106.818684,77.1675225 107.744586,76.7719361 108.390702,75.9820094 C109.036507,75.1905252 109.360961,74.0654402 109.360961,72.6055086 C109.360961,71.1377898 109.038058,70.0036718 108.390702,69.204089 C107.743345,68.4060636 106.817133,68.0064279 105.610823,68.0064279 L105.610823,68.0064279 Z M114.785168,78.8380182 L114.785168,76.0362078 C115.929751,76.8965302 117.192204,77.32638 118.572528,77.32638 C120.421231,77.32638 121.344342,76.7878219 121.344342,75.7103942 C121.344342,75.406073 121.265555,75.1481632 121.107361,74.9347957 C120.949166,74.7217398 120.736069,74.5326682 120.466518,74.3685154 C120.196968,74.2043627 119.880889,74.0560957 119.516421,73.9252718 C119.150403,73.7941365 118.74406,73.6471155 118.295223,73.4817168 C117.781743,73.2835563 117.281335,73.052799 116.797029,72.7908423 C116.351913,72.5472608 115.983413,72.2722193 115.688427,71.9638488 C115.397948,71.6628384 115.171379,71.3057177 115.02246,70.9141433 C114.87233,70.5238522 114.798506,70.0669033 114.798506,69.5457883 C114.798506,68.9025712 114.952668,68.3359794 115.260682,67.8450785 C115.569316,67.3538662 115.981862,66.9411482 116.500802,66.6075474 C117.020672,66.2727007 117.609093,66.021332 118.269787,65.851884 C118.93826,65.6813485 119.625444,65.5959538 120.315148,65.5976854 C121.564264,65.5976854 122.68186,65.7842917 123.667319,66.1574511 L123.667319,68.8032074 C122.716911,68.1599902 121.62599,67.8382259 120.394245,67.8382259 C120.006824,67.8382259 119.656935,67.878096 119.344889,67.9547214 C119.032533,68.0329042 118.765773,68.1416126 118.545852,68.280535 C118.326241,68.4194574 118.154709,68.5861021 118.031255,68.7820264 C117.908875,68.9744938 117.844662,69.1984515 117.846385,69.426801 C117.846385,69.7136789 117.908112,69.9572604 118.031255,70.157234 C118.154709,70.3568961 118.336787,70.5328853 118.579352,70.6852016 C118.820676,70.8375179 119.11163,70.9764404 119.450662,71.101969 C119.789694,71.227809 120.178356,71.3654855 120.61944,71.5125066 C121.152374,71.7252134 121.674348,71.9646311 122.183393,72.2298573 C122.645879,72.4731273 123.039814,72.7484803 123.365508,73.0568508 C123.686256,73.3579675 123.942149,73.721897 124.117397,74.1261799 C124.293272,74.5298648 124.381675,75.0104867 124.381675,75.5661765 C124.381675,76.2439685 124.22348,76.8339217 123.905851,77.3385279 C123.589462,77.8428226 123.166059,78.25959 122.639365,78.5891414 C122.11112,78.9199388 121.501296,79.1647663 120.811134,79.3248697 C120.119421,79.4865306 119.391727,79.5659642 118.6265,79.5659642 C117.146917,79.5672053 115.866783,79.3248697 114.785168,78.8380182 L114.785168,78.8380182 Z M133.290502,79.5672053 C131.205127,79.5672053 129.539123,78.9439232 128.29373,77.6970475 C127.048646,76.4504833 126.426725,74.7971192 126.426725,72.7382013 C126.426725,70.4958185 127.075633,68.7449596 128.374378,67.4850015 C129.671572,66.2250434 131.420706,65.5949086 133.620228,65.5949086 C135.732589,65.5949086 137.37688,66.2079117 138.556514,67.4332949 C139.735838,68.6589897 140.3255,70.3568961 140.3255,72.5288832 C140.3255,74.6585083 139.690241,76.3632674 138.418482,77.644095 C137.146723,78.9267915 135.436362,79.5672053 133.290502,79.5672053 L133.290502,79.5672053 Z M133.435358,68.0064279 C132.238354,68.0064279 131.291979,68.4194574 130.596544,69.2439591 C129.900799,70.0697066 129.553701,71.207874 129.553701,72.6584611 C129.553701,74.0573416 129.906382,75.1587537 130.609882,75.9620743 C131.313692,76.7653949 132.255724,77.1675225 133.435358,77.1675225 C134.640117,77.1675225 135.56633,76.7719361 136.213686,75.9820094 C136.861042,75.1905252 137.183945,74.0654402 137.183945,72.6055086 C137.183945,71.1377898 136.861042,70.0036718 136.213686,69.204089 C135.56633,68.4060636 134.640117,68.0064279 133.435358,68.0064279 L133.435358,68.0064279 Z M151.096057,61.9592521 C150.683511,61.7250151 150.21172,61.6072737 149.683474,61.6072737 C148.195827,61.6072737 147.453244,62.4370705 147.453244,64.0966643 L147.453244,65.9085743 L150.594796,65.9085743 L150.594796,68.280535 L147.466581,68.280535 L147.466581,79.2547855 L144.404124,79.2547855 L144.404124,68.280535 L142.094796,68.280535 L142.094796,65.9085743 L144.404124,65.9085743 L144.404124,63.7446859 C144.404124,62.3367723 144.870642,61.2275731 145.803369,60.4149079 C146.736096,59.6019312 147.902392,59.1957544 149.301637,59.1957544 C150.058798,59.1957544 150.656525,59.2779865 151.096057,59.4433852 L151.096057,61.9592521 L151.096057,61.9592521 Z M159.926097,79.1118138 C159.32837,79.4071019 158.54019,79.5553689 157.563107,79.5553689 C154.941422,79.5553689 153.63058,78.3125425 153.63058,75.8284471 L153.63058,68.2817809 L151.373673,68.2817809 L151.373673,65.9101318 L153.63058,65.9101318 L153.63058,62.8208204 L156.693348,61.9608095 L156.693348,65.9101318 L159.927338,65.9101318 L159.927338,68.2817809 L156.693348,68.2817809 L156.693348,74.9544193 C156.693348,75.7446576 156.837894,76.3096919 157.128848,76.6485879 C157.419801,76.987484 157.90338,77.156932 158.580514,77.156932 C159.099144,77.156932 159.548292,77.0099109 159.926097,76.7133769 L159.926097,79.1118138 L159.926097,79.1118138 Z M185.902239,79.2547855 L182.457633,79.2547855 L180.755338,74.4968474 L173.311515,74.4968474 L171.674979,79.2547855 L168.24247,79.2547855 L175.32989,60.5644208 L178.866931,60.5644208 L185.901929,79.2547855 L185.902239,79.2547855 Z M179.923111,71.9691441 L177.297394,64.5137431 C177.218297,64.2701616 177.133926,63.8798705 177.046764,63.3410009 L176.994653,63.3410009 C176.915556,63.8362626 176.827153,64.2277996 176.730376,64.5137431 L174.130404,71.9691441 L179.923111,71.9691441 Z M198.150829,67.1725817 L190.851863,76.8949728 L198.124153,76.8949728 L198.124153,79.2547855 L186.561382,79.2547855 L186.561382,78.1206675 L194.018853,68.2671411 L187.274498,68.2671411 L187.274498,65.9073284 L198.150829,65.9073284 L198.150829,67.1725817 L198.150829,67.1725817 Z M212.524187,79.2547855 L209.46297,79.2547855 L209.46297,77.1426036 L209.410859,77.1426036 C208.522178,78.7585894 207.140304,79.5672053 205.266785,79.5672053 C202.072499,79.5672053 200.475046,77.6733746 200.475046,73.8841558 L200.475046,65.9073284 L203.537503,65.9073284 L203.537503,73.571736 C203.537503,75.9701729 204.474263,77.1690799 206.349642,77.1690799 C207.255382,77.1690799 208.000757,76.8395284 208.586387,76.1791796 C209.172016,75.5188307 209.46421,74.654459 209.46421,73.5851299 L209.46421,65.9073284 L212.526978,65.9073284 L212.524187,79.2547855 L212.524187,79.2547855 Z M224.364262,68.7885675 C223.994522,68.5013781 223.462244,68.3587178 222.766809,68.3587178 C221.860758,68.3587178 221.103286,68.7620913 220.496254,69.5707072 C219.889222,70.3780771 219.58493,71.4779317 219.58493,72.8677792 L219.58493,79.2547855 L216.523403,79.2547855 L216.523403,65.9076399 L219.58493,65.9076399 L219.58493,68.6577437 L219.637041,68.6577437 C219.93606,67.7192385 220.395754,66.987248 221.016124,66.4617723 C221.636805,65.936608 222.329758,65.6730914 223.094985,65.6730914 C223.648665,65.6730914 224.072068,65.7565695 224.361471,65.9207223 L224.364573,68.7885675 L224.364262,68.7885675 Z M237.999069,73.402288 L228.785641,73.402288 C228.820382,74.6357698 229.205011,75.5873575 229.94077,76.2570509 C230.675289,76.9254984 231.684631,77.2603451 232.970038,77.2603451 C234.41333,77.2603451 235.73751,76.8342332 236.942579,75.9832553 L236.942579,78.4196934 C235.711144,79.1847014 234.082672,79.5672053 232.058714,79.5672053 C230.069497,79.5672053 228.510817,78.9610549 227.379572,77.7487541 C226.248327,76.5364532 225.6841,74.8316941 225.6841,72.6335422 C225.6841,70.5568697 226.306021,68.863947 227.552655,67.5563316 C228.797738,66.2487163 230.344321,65.5949086 232.192714,65.5949086 C234.040797,65.5949086 235.46951,66.1814355 236.481644,67.3538662 C237.493468,68.5266084 238,70.1556766 238,72.2416937 L237.998759,73.402288 L237.999069,73.402288 Z M235.042385,71.2648758 C235.029047,70.178415 234.774385,69.3336668 234.26382,68.7303198 C233.752945,68.1269727 233.049446,67.8251435 232.15146,67.8251435 C231.272085,67.8251435 230.525469,68.1428585 229.914405,68.7767311 C229.30334,69.4106037 228.926775,70.2407121 228.785951,71.2661217 L235.042385,71.2661217 L235.042385,71.2648758 Z" id="Shape" fill="#00ADEF"></path>
        </g>
    </g>
</svg>