<?xml version="1.0" encoding="UTF-8"?>
<svg width="240px" height="135px" viewBox="0 0 240 135" version="1.1" xmlns="http://www.w3.org/2000/svg" xmlns:xlink="http://www.w3.org/1999/xlink">
    <title>logo_apple</title>
    <g id="logo_apple" stroke="none" stroke-width="1" fill="none" fill-rule="evenodd" transform="translate(-0.000000, 0.000000)">
        <g id="apple" fill="#000000" fill-rule="nonzero">
            <path d="M151.000425,71.5020799 C151.157473,88.4512255 165.837367,94.091474 166,94.1634646 C165.875875,94.561246 163.654398,102.201371 158.265935,110.093075 C153.607846,116.915852 148.773363,123.713636 141.157625,123.854424 C133.674401,123.992606 131.268127,119.407302 122.712683,119.407302 C114.159823,119.407302 111.486343,123.713625 104.402638,123.992606 C97.0515184,124.271384 91.4537182,116.614676 86.7569184,109.816892 C77.1595769,95.9117952 69.8252221,70.524355 79.6734067,53.3874189 C84.5657746,44.8771467 93.308806,39.4880871 102.798585,39.3498947 C110.017196,39.2119025 116.830707,44.2167888 121.243536,44.2167888 C125.653566,44.2167888 133.933432,38.1979745 142.63775,39.0819134 C146.281675,39.2339035 156.510232,40.557021 163.078269,50.1916159 C162.549047,50.5203999 150.873507,57.3319734 151.000425,71.5020959 M136.93657,29.8824785 C140.839329,25.1481762 143.46611,18.5575894 142.749496,12 C137.123962,12.2265826 130.321429,15.7567679 126.286359,20.4884656 C122.670162,24.6786043 119.503186,31.3851885 120.357691,37.8129891 C126.628008,38.2991593 133.033619,34.6197916 136.93657,29.8824862"></path>
        </g>
    </g>
</svg>