<?xml version="1.0" encoding="UTF-8"?>
<svg width="240px" height="135px" viewBox="0 0 240 135" version="1.1" xmlns="http://www.w3.org/2000/svg" xmlns:xlink="http://www.w3.org/1999/xlink">
    <title>logo_pfizer</title>
    <defs>
        <linearGradient x1="69.6635585%" y1="64.7014828%" x2="32.2769657%" y2="44.8686264%" id="linearGradient-1">
            <stop stop-color="#0070BF" offset="0%"></stop>
            <stop stop-color="#00AFF0" offset="100%"></stop>
        </linearGradient>
        <path d="M105.694007,15.521639 C58.6915661,25.315679 24.018274,52.8996386 24,79.1277174 L24,79.1277174 C24,81.1308363 24.2018449,83.1223381 24.6163329,85.1121803 L24.6163329,85.1121803 C28.0169619,101.400176 45.0483487,112.961673 68.7215112,117.667426 L68.7215112,117.667426 C73.7244396,98.3871994 85.2237821,54.2646471 85.2237821,54.2646471 L85.2237821,54.2646471 C87.4880993,45.5501671 88.7431923,42.1671034 90.9759453,38.3666541 L90.9759453,38.3666541 C93.8881596,33.4659001 98.5388977,29.4073854 105.075182,28.8157434 L105.075182,28.8157434 C108.628649,28.5029116 113.927284,28.9418718 116.881861,31.0155231 L116.881861,31.0155231 C119.678617,32.9713438 120.037452,35.0325482 119.94359,36.9037301 L119.94359,36.9037301 C119.745898,40.7531371 117.383566,43.3362809 113.606658,43.3362809 L113.606658,43.3362809 C109.747517,43.3362809 108.533956,40.5033696 108.51319,38.6313579 L108.51319,38.6313579 C108.492424,36.0755973 110.004184,35.6855948 109.983418,33.8069448 L109.983418,33.8069448 C109.976773,32.846875 109.097959,31.3432911 106.680804,31.7050806 L106.680804,31.7050806 C103.684696,32.1705941 101.20026,34.5512686 99.5805169,38.6728475 L99.5805169,38.6728475 C99.2083914,39.6329174 98.7382507,40.9132871 98.1526514,43.1055986 L98.1526514,43.1055986 L95.1839537,54.6397133 L114.777026,54.6397133 C112.209526,63.9118138 107.880245,80.3798741 106.666684,84.8906257 L106.666684,84.8906257 L96.7688097,84.8906257 L103.562592,59.6093401 L93.857426,59.6093401 L78.3610569,119.156904 C83.3772754,119.726971 88.6210886,120.01242 94.0310292,119.999586 L94.0310292,119.999586 C104.455527,119.985037 115.491374,118.857349 126.785549,116.504887 L126.785549,116.504887 C173.90428,106.690102 209.97055,78.8348007 209.999816,52.5312107 L209.999816,52.5312107 C210.007098,50.5886667 209.797778,48.6610589 209.414854,46.7392596 L209.414854,46.7392596 C204.9128,25.1762738 175.614562,12 139.177827,12 L139.177827,12 C128.475896,12 117.174245,13.1343262 105.694007,15.521639 L105.694007,15.521639 Z M52.1768779,39.5491083 L63.743502,39.5491083 C81.5000352,39.5491083 82.75762,48.5979947 81.2525053,55.0504605 L81.2525053,55.0504605 C79.3893858,63.0197869 74.6024232,68.7146523 54.22606,68.7627803 L54.22606,68.7627803 C52.2117646,76.1761457 50.4807165,82.578824 49.8494322,84.8906257 L49.8494322,84.8906257 L39.8900912,84.8906257 C41.7191545,78.1593496 52.1768779,39.5491083 52.1768779,39.5491083 L52.1768779,39.5491083 Z M141.491152,74.1987504 C141.491152,63.2571076 151.356631,53.9227726 161.902401,53.9227726 L161.902401,53.9227726 C167.145384,53.9227726 171.671527,56.351575 171.671527,60.5005371 L171.671527,60.5005371 C171.671527,64.802181 168.245978,69.2150171 163.066124,70.8920276 L163.066124,70.8920276 C159.839929,71.9715875 156.578847,72.6047192 151.123221,72.6047192 L151.123221,72.6047192 C150.993642,73.7531519 151.04265,74.1987504 151.04265,74.8252437 L151.04265,74.8252437 C151.04265,77.7411342 153.527916,80.240469 156.993335,80.240469 L156.993335,80.240469 C161.630783,80.240469 166.012395,75.9811445 166.518253,75.4650136 L166.518253,75.4650136 L168.245978,80.0803191 C166.856322,81.507562 165.312998,82.7597188 163.563676,83.6791288 L163.563676,83.6791288 C160.776888,85.1121803 157.607176,85.8921852 154.126806,85.8921852 L154.126806,85.8921852 C146.591264,85.8921852 141.491152,81.179794 141.491152,74.1987504 L141.491152,74.1987504 Z M196.698628,54.125242 C202.199108,54.125242 203.028084,57.3962837 203.028084,59.9155335 L203.028084,59.9155335 C203.028084,62.8944883 200.92408,64.9415862 198.51357,64.9415862 L198.51357,64.9415862 C196.684507,64.9415862 195.89374,64.2039007 195.566469,63.8836008 L195.566469,63.8836008 C194.722542,63.0488297 194.579672,62.184186 194.493286,61.460607 L194.493286,61.460607 C194.36786,60.6258358 194.095411,59.8184478 193.11692,59.665766 L193.11692,59.665766 C191.740554,59.441722 190.599258,60.0068106 189.413108,61.0573279 L189.413108,61.0573279 C187.818285,62.4704643 186.459362,64.718372 185.470904,66.869194 L185.470904,66.869194 C184.769015,68.3586714 184.271463,69.7718078 183.978248,70.7741971 L183.978248,70.7741971 L180.139874,84.8906257 L170.172226,84.8906257 L178.341544,54.6397133 L188.016807,54.6397133 L186.274961,60.7096448 C188.550076,57.9605425 192.797125,54.125242 196.698628,54.125242 L196.698628,54.125242 Z M131.750268,59.6093401 L117.930125,59.6027017 L119.278249,54.6397133 L144.037885,54.6397133 C141.197937,64.0503891 127.778991,71.6927773 124.081825,78.8065877 L124.081825,78.8065877 L139.692822,78.8065877 L138.059789,84.8906257 L112.700433,84.8906257 C112.700433,75.3264383 128.705983,64.2868799 131.750268,59.6093401 L131.750268,59.6093401 Z M60.9035531,44.0664983 C59.4831634,49.3298716 57.4655454,56.7830671 55.5251767,63.9250905 L55.5251767,63.9250905 C63.4303518,63.9118138 68.387595,62.5401669 70.8188704,54.7301607 L70.8188704,54.7301607 C72.8115692,48.3332909 72.0415684,44.0664983 62.6429076,44.0664983 L62.6429076,44.0664983 L60.9035531,44.0664983 Z M156.944328,60.389345 C154.474843,62.2829313 152.569361,65.2685244 151.827602,68.6026303 L151.827602,68.6026303 C156.331317,68.4491187 158.878882,67.7744975 161.226263,65.9439754 L161.226263,65.9439754 C163.316146,64.3076248 164.257258,62.4422514 164.257258,60.8764331 L164.257258,60.8764331 C164.257258,60.0275555 163.731465,58.6766534 161.317633,58.6766534 L161.317633,58.6766534 C160.212055,58.6766534 158.414556,59.2616571 156.944328,60.389345 L156.944328,60.389345 Z" id="path-2"></path>
    </defs>
    <g id="Page-1" stroke="none" stroke-width="1" fill="none" fill-rule="evenodd">
        <g id="logos-colored" transform="translate(-368.000000, -80.000000)">
            <g id="logo_pfizer" transform="translate(368.000000, 80.000000)">
                <mask id="mask-3" fill="white">
                    <use xlink:href="#path-2"></use>
                </mask>
                <use id="pfizer" fill="url(#linearGradient-1)" xlink:href="#path-2"></use>
            </g>
        </g>
    </g>
</svg>