<?xml version="1.0" encoding="UTF-8"?>
<svg width="240px" height="135px" viewBox="0 0 240 135" version="1.1" xmlns="http://www.w3.org/2000/svg" xmlns:xlink="http://www.w3.org/1999/xlink">
    <title>logo_aws</title>
    <g id="logo_aws" stroke="none" stroke-width="1" fill="none" fill-rule="evenodd">
        <g id="aws">
            <path d="M96.160451,59.243604 C96.160451,60.5606229 96.3028314,61.6284761 96.5519972,62.4115684 C96.836758,63.1946607 97.1927091,64.0489433 97.6910406,64.974416 C97.8690161,65.2591769 97.9402063,65.5439377 97.9402063,65.7931034 C97.9402063,66.1490545 97.7266357,66.5050056 97.2638993,66.8609566 L95.0214076,68.3559511 C94.7010517,68.5695217 94.3806957,68.676307 94.0959349,68.676307 C93.7399838,68.676307 93.3840328,68.4983315 93.0280817,68.1779755 C92.5297502,67.6440489 92.102609,67.0745273 91.7466579,66.5050056 C91.3907068,65.8998888 91.0347558,65.2235818 90.6432096,64.4048943 C87.8667914,67.679644 84.378471,69.3170189 80.1782486,69.3170189 C77.1882597,69.3170189 74.8033876,68.4627364 73.0592274,66.7541713 C71.3150672,65.0456062 70.4251896,62.7675195 70.4251896,59.919911 C70.4251896,56.894327 71.4930428,54.4382647 73.6643442,52.5873192 C75.8356457,50.7363737 78.7188492,49.810901 82.3851451,49.810901 C83.5953787,49.810901 84.8412074,49.9176863 86.1582263,50.0956618 C87.4752452,50.2736374 88.8278592,50.5583982 90.2516635,50.8787542 L90.2516635,48.2803115 C90.2516635,45.5750834 89.6821418,43.6885428 88.5786935,42.5850945 C87.4396501,41.4816463 85.5175144,40.9477197 82.7766913,40.9477197 C81.5308626,40.9477197 80.2494388,41.0901001 78.9324199,41.4104561 C77.615401,41.730812 76.3339771,42.1223582 75.0881485,42.6206897 C74.5186268,42.8698554 74.0914855,43.0122358 73.8423198,43.083426 C73.593154,43.1546162 73.4151785,43.1902113 73.2727981,43.1902113 C72.7744666,43.1902113 72.5253008,42.8342603 72.5253008,42.0867631 L72.5253008,40.3426029 C72.5253008,39.7730812 72.5964911,39.3459399 72.7744666,39.0967742 C72.9524421,38.8476085 73.2727981,38.5984427 73.7711295,38.349277 C75.0169582,37.7085651 76.5119527,37.1746385 78.2561129,36.7474972 C80.000273,36.2847608 81.8512185,36.0711902 83.8089493,36.0711902 C88.0447669,36.0711902 91.1415411,37.0322581 93.134867,38.9543938 C95.0925978,40.8765295 96.0892608,43.7953281 96.0892608,47.7107898 L96.0892608,59.243604 L96.160451,59.243604 Z M81.7088381,64.6540601 C82.8834766,64.6540601 84.0937102,64.4404894 85.375134,64.0133482 C86.6565578,63.5862069 87.7956012,62.8031146 88.756669,61.7352614 C89.3261907,61.0589544 89.753332,60.3114572 89.9669026,59.4571746 C90.1804733,58.6028921 90.3228537,57.570634 90.3228537,56.3604004 L90.3228537,54.865406 C89.2905956,54.6162403 88.1871473,54.4026696 87.048104,54.2602892 C85.9090606,54.1179088 84.8056123,54.0467186 83.702164,54.0467186 C81.3172919,54.0467186 79.5731318,54.5094549 78.3984933,55.4705228 C77.2238548,56.4315907 76.6543331,57.7842047 76.6543331,59.56396 C76.6543331,61.2369299 77.0814744,62.4827586 77.971352,63.3370412 C78.8256345,64.2269188 80.0714632,64.6540601 81.7088381,64.6540601 L81.7088381,64.6540601 Z M110.291708,68.4983315 C109.650996,68.4983315 109.223855,68.3915462 108.939094,68.1423804 C108.654333,67.9288098 108.405167,67.4304783 108.191597,66.7541713 L99.8267469,39.2391546 C99.6131763,38.5272525 99.5063909,38.0645161 99.5063909,37.8153504 C99.5063909,37.2458287 99.7911518,36.9254727 100.360673,36.9254727 L103.848994,36.9254727 C104.525301,36.9254727 104.988037,37.0322581 105.237203,37.2814238 C105.521964,37.4949944 105.735534,37.9933259 105.949105,38.6696329 L111.929083,62.2335929 L117.481919,38.6696329 C117.659895,37.9577308 117.873465,37.4949944 118.158226,37.2814238 C118.442987,37.0678532 118.941319,36.9254727 119.582031,36.9254727 L122.429639,36.9254727 C123.105946,36.9254727 123.568682,37.0322581 123.853443,37.2814238 C124.138204,37.4949944 124.38737,37.9933259 124.52975,38.6696329 L130.153777,62.5183537 L136.31173,38.6696329 C136.525301,37.9577308 136.774467,37.4949944 137.023632,37.2814238 C137.308393,37.0678532 137.77113,36.9254727 138.411841,36.9254727 L141.722186,36.9254727 C142.291708,36.9254727 142.612064,37.2102336 142.612064,37.8153504 C142.612064,37.9933259 142.576469,38.1713014 142.540874,38.3848721 C142.505279,38.5984427 142.434088,38.8832036 142.291708,39.2747497 L133.713287,66.7897664 C133.499717,67.5016685 133.250551,67.9644049 132.96579,68.1779755 C132.681029,68.3915462 132.218293,68.5339266 131.613176,68.5339266 L128.551997,68.5339266 C127.87569,68.5339266 127.412954,68.4271413 127.128193,68.1779755 C126.843432,67.9288098 126.594266,67.4660734 126.451886,66.7541713 L120.934645,43.7953281 L115.452998,66.7185762 C115.275023,67.4304783 115.061452,67.8932147 114.776691,68.1423804 C114.49193,68.3915462 113.993599,68.4983315 113.352887,68.4983315 L110.291708,68.4983315 Z M156.031419,69.4593993 C154.180473,69.4593993 152.329528,69.2458287 150.549772,68.8186874 C148.770017,68.3915462 147.381808,67.9288098 146.456335,67.3948832 C145.886814,67.0745273 145.495267,66.7185762 145.352887,66.3982202 C145.210507,66.0778643 145.139316,65.7219132 145.139316,65.4015573 L145.139316,63.5862069 C145.139316,62.8387097 145.424077,62.4827586 145.958004,62.4827586 C146.171574,62.4827586 146.385145,62.5183537 146.598716,62.5895439 C146.812286,62.6607341 147.132642,62.8031146 147.488593,62.945495 C148.698827,63.4794216 150.015846,63.9065628 151.404055,64.1913237 C152.827859,64.4760845 154.216068,64.618465 155.639873,64.618465 C157.882364,64.618465 159.626524,64.2269188 160.836758,63.4438265 C162.046992,62.6607341 162.687704,61.5216908 162.687704,60.0622914 C162.687704,59.0656285 162.367348,58.246941 161.726636,57.570634 C161.085924,56.894327 159.87569,56.2892102 158.13153,55.7196885 L152.97024,54.1179088 C150.371797,53.2992214 148.449661,52.0889878 147.275023,50.487208 C146.100384,48.9210234 145.495267,47.1768632 145.495267,45.3259177 C145.495267,43.8309232 145.815623,42.5139043 146.456335,41.374861 C147.097047,40.2358176 147.95133,39.2391546 149.019183,38.4560623 C150.087036,37.6373749 151.29727,37.0322581 152.721074,36.6051168 C154.144878,36.1779755 155.639873,36 157.206057,36 C157.98915,36 158.807837,36.0355951 159.590929,36.1423804 C160.409617,36.2491657 161.157114,36.3915462 161.904611,36.5339266 C162.616513,36.7119021 163.29282,36.8898776 163.933532,37.1034483 C164.574244,37.3170189 165.072576,37.5305895 165.428527,37.7441602 C165.926858,38.028921 166.282809,38.3136819 166.49638,38.6340378 C166.70995,38.9187987 166.816736,39.3103448 166.816736,39.8086763 L166.816736,41.4816463 C166.816736,42.2291435 166.531975,42.6206897 165.998048,42.6206897 C165.713287,42.6206897 165.250551,42.4783092 164.645434,42.1935484 C162.616513,41.2680756 160.338427,40.8053393 157.811174,40.8053393 C155.782253,40.8053393 154.180473,41.1256952 153.077025,41.8020022 C151.973577,42.4783092 151.404055,43.5105673 151.404055,44.9699666 C151.404055,45.9666296 151.760006,46.8209121 152.471908,47.4972191 C153.18381,48.1735261 154.500829,48.8498331 156.38737,49.4549499 L161.441875,51.0567297 C164.004722,51.8754171 165.855668,53.0144605 166.959116,54.4738598 C168.062564,55.9332592 168.596491,57.6062291 168.596491,59.4571746 C168.596491,60.9877642 168.276135,62.3759733 167.671018,63.5862069 C167.030306,64.7964405 166.176024,65.8642937 165.072576,66.7185762 C163.969127,67.6084538 162.652108,68.2491657 161.121519,68.7119021 C159.519739,69.2102336 157.846769,69.4593993 156.031419,69.4593993 L156.031419,69.4593993 Z" id="path" fill="#252F3E" fill-rule="nonzero"></path>
            <path d="M162.758894,86.7586207 C151.048104,95.4082314 134.033643,100 119.404055,100 C98.9012741,100 80.4274143,92.4182425 66.4741329,79.8175751 C65.3706846,78.8209121 66.3673476,77.4682981 67.6843665,78.2513904 C82.7766913,87.0077864 101.392932,92.3114572 120.649884,92.3114572 C133.642097,92.3114572 147.915735,89.6062291 161.050329,84.0533927 C163.008059,83.163515 164.681029,85.3348165 162.758894,86.7586207 L162.758894,86.7586207 Z" id="path" fill="#FF9900"></path>
            <path d="M167.635423,81.2057842 C166.140429,79.2836485 157.739984,80.2803115 153.931308,80.7430478 C152.792264,80.8854283 152.614289,79.8887653 153.646547,79.1412681 C160.338427,74.4427141 171.337314,75.7953281 172.618738,77.3615128 C173.900162,78.9632925 172.262787,89.9621802 165.998048,95.2302558 C165.03698,96.0489433 164.111508,95.621802 164.538649,94.5539488 C165.962453,91.0300334 169.130418,83.0923248 167.635423,81.2057842 L167.635423,81.2057842 Z" id="path" fill="#FF9900"></path>
        </g>
    </g>
</svg>