<?xml version="1.0" encoding="UTF-8"?>
<svg width="240px" height="135px" viewBox="0 0 240 135" version="1.1" xmlns="http://www.w3.org/2000/svg" xmlns:xlink="http://www.w3.org/1999/xlink">
    <title>logo_bi</title>
    <g id="Page-1" stroke="none" stroke-width="1" fill="none" fill-rule="evenodd">
        <g id="logos-colored" transform="translate(-80.000000, -263.000000)" fill="#002F62">
            <g id="logo_bi" transform="translate(80.000000, 263.000000)">
                <path d="M119.25723,78.7168955 C119.947624,78.7168955 120.22184,78.7854956 121.467947,79.0598959 C122.155914,79.2644926 122.638826,79.3318891 122.985843,79.3318891 C123.055004,79.3318891 123.331647,79.3318891 123.605863,79.2644926 L123.605863,79.2644926 L124.22831,79.2644926 L127.059047,79.1958925 L127.059047,81.181684 L124.22831,81.181684 C125.194134,82.4140782 125.469563,83.2348721 125.469563,84.5382734 C125.469563,87.6878591 122.985843,90.0154474 119.670981,90.0154474 C118.980587,90.0154474 118.428514,89.9480508 117.807281,89.7422506 C116.978565,90.2910512 116.495654,90.8374447 116.495654,91.2490452 C116.495654,91.6582386 116.909405,91.8640388 117.944389,91.9338423 L117.944389,91.9338423 L122.086754,92.138439 C125.332455,92.2756392 126.851565,93.5092369 126.851565,96.041422 C126.851565,99.6724117 123.605863,102 118.634783,102 C114.907383,102 112.491611,100.629202 112.491611,98.507414 C112.491611,97.1366161 113.180791,96.2472222 115.184026,94.9462279 C113.803238,94.3974273 113.249952,93.7824337 113.249952,92.8232362 C113.249952,91.590842 114.147828,90.4956479 116.357332,89.12485 C114.28615,87.8238557 113.526595,86.5240649 113.526595,84.4010732 C113.526595,81.181684 116.012742,78.7168955 119.25723,78.7168955 Z M117.047726,95.2194247 C116.14985,96.041422 115.80526,96.7250157 115.80526,97.7540167 C115.80526,99.2620147 117.186048,100.150205 119.463499,100.150205 C122.295449,100.150205 124.434579,98.986411 124.434579,97.3436198 C124.434579,95.9054254 123.675024,95.6298216 118.359354,95.2892282 L118.359354,95.2892282 Z M41.3801698,53.5173217 L41.3801698,98.9871331 C40.9455491,99.04779 40.7900466,99.0538557 40.259995,99.0544622 L39.6366054,99.0542842 C38.9225905,99.0529344 38.6038466,99.0441609 38.1356815,98.9871331 L38.1356815,53.5173217 L41.3801698,53.5173217 Z M47.9407336,53.5173217 L47.9407336,97.9593355 C46.9033225,98.3011324 46.0066595,98.5069326 44.6938187,98.7813329 L44.6938187,53.5173217 L47.9407336,53.5173217 Z M34.8220326,53.5173217 L34.8220326,98.7127328 C33.9938166,98.567462 33.7157629,98.5247354 33.4783224,98.464336 L33.3606276,98.432107 C33.3011134,98.4146996 33.2388296,98.3949353 33.1658147,98.3709359 C32.820011,98.3011324 32.6816895,98.3011324 31.576331,98.0279356 L31.576331,53.5173217 L34.8220326,53.5173217 Z M54.5668182,74.676231 L54.5668182,95.5619436 C53.5318338,96.0409406 52.9093871,96.3153409 51.2531693,97.0687381 L51.2531693,74.676231 L54.5668182,74.676231 Z M28.262682,74.676231 L28.262682,97.000138 C27.6414487,96.8629379 26.1927131,96.1793442 25.0181938,95.5619436 L25.0181938,74.676231 L28.262682,74.676231 Z M177.043943,78.7853752 C179.806733,78.7853752 181.598846,80.2235697 182.427561,82.8941584 C182.702991,83.7847558 182.773365,84.8799499 182.911687,87.1401417 L182.911687,87.1401417 L174.074885,87.1401417 C174.419475,91.8639184 175.593995,93.7823134 178.078928,93.7823134 C179.390555,93.7823134 180.288432,93.1649127 181.323416,91.5907216 L181.323416,91.5907216 L182.842526,92.2081223 C181.254255,95.1519077 179.806733,96.1785018 177.113104,96.1785018 C172.969526,96.1785018 170.621701,93.0975162 170.621701,87.8237353 C170.621701,82.1395576 173.038687,78.7853752 177.043943,78.7853752 Z M135.344868,78.7853752 C138.105231,78.7853752 139.900984,80.2235697 140.7297,82.8941584 C141.005129,83.7847558 141.07429,84.8799499 141.212611,87.1401417 L141.212611,87.1401417 L132.374596,87.1401417 C132.7204,91.8639184 133.894919,93.7823134 136.379853,93.7823134 C137.690267,93.7823134 138.588143,93.1649127 139.624341,91.5907216 L139.624341,91.5907216 L141.142237,92.2081223 C139.55518,95.1519077 138.105231,96.1785018 135.414029,96.1785018 C131.270451,96.1785018 128.922626,93.0975162 128.922626,87.8237353 C128.922626,82.1395576 131.339612,78.7853752 135.344868,78.7853752 Z M190.781815,79.0600162 L190.781815,93.9871508 L192.715889,94.3975477 L192.715889,95.8369456 L185.60568,95.8369456 L185.60568,94.4661477 L187.46938,94.0569543 L187.46938,81.6608013 L185.60568,81.2492009 L185.60568,80.1552103 L189.954313,79.0600162 L190.781815,79.0600162 Z M148.530303,70.6376125 L148.530303,93.9869101 L150.39279,94.397307 L150.39279,95.8367049 L143.214633,95.8367049 L143.214633,94.465907 L145.216654,94.0567136 L145.216654,72.9652009 L143.28258,72.7581971 L143.28258,71.594403 L147.632427,70.6376125 L148.530303,70.6376125 Z M200.310224,78.854216 L200.310224,81.1144078 C202.036816,79.6750098 203.34723,79.1286163 205.004661,79.1286163 C206.731253,79.1286163 207.904559,79.814617 208.870383,81.3190045 C210.666136,79.6750098 211.839442,79.0600162 213.635194,79.0600162 C216.60304,79.0600162 217.84672,80.4970072 217.84672,83.9221966 L217.84672,83.9221966 L217.84672,93.9871508 L219.77958,94.3975477 L219.77958,95.8369456 L212.598997,95.8369456 L212.598997,94.4661477 L214.46391,94.0569543 L214.46391,84.5383937 C214.46391,82.2769984 213.84025,81.3876046 212.391514,81.3876046 C211.288582,81.3876046 210.529028,81.799205 209.145813,83.0315992 L209.145813,83.0315992 L209.145813,93.9871508 L210.872405,94.3975477 L210.872405,95.8369456 L203.900516,95.8369456 L203.900516,94.4661477 L205.83459,94.0569543 L205.83459,84.4685902 C205.83459,82.346802 205.14177,81.3876046 203.623873,81.3876046 C202.518515,81.3876046 201.689799,81.799205 200.517707,82.9629991 L200.517707,82.9629991 L200.517707,93.9871508 L202.10355,94.3975477 L202.10355,95.8369456 L195.063715,95.8369456 L195.063715,94.4661477 L197.064523,94.0569543 L197.064523,81.4574081 L195.063715,81.1144078 L195.063715,79.9494101 L199.412348,78.854216 L200.310224,78.854216 Z M157.989552,70.6376125 L157.989552,81.045567 C159.852039,79.5387725 160.956184,79.0597755 162.545668,79.0597755 C165.100975,79.0597755 166.549711,80.6339666 166.549711,83.4405519 L166.549711,83.4405519 L166.549711,93.9869101 L168.413411,94.397307 L168.413411,95.8367049 L161.510683,95.8367049 L161.510683,94.465907 L163.166901,94.1241102 L163.166901,84.8113498 C163.166901,82.3465613 162.614828,81.4571674 161.163666,81.4571674 C160.196629,81.4571674 159.369127,81.8675643 157.989552,83.032562 L157.989552,83.032562 L157.989552,93.9869101 L159.64577,94.397307 L159.64577,95.8367049 L152.671455,95.8367049 L152.671455,94.465907 L154.67469,94.0567136 L154.67469,73.1011975 L152.740615,72.7581971 L152.740615,71.594403 L157.090462,70.6376125 L157.989552,70.6376125 Z M100.478268,78.8540957 L100.478268,80.9084872 C102.54945,79.3318891 103.517701,78.9214922 105.035597,78.9214922 C107.657639,78.9214922 109.108801,80.5666904 109.108801,83.3744792 L109.108801,83.3744792 L109.108801,93.9870304 L110.902127,94.3974273 L110.902127,95.8368253 L103.930238,95.8368253 L103.930238,94.4660274 L105.724778,94.1242306 L105.724778,84.1278765 C105.724778,82.2094815 105.103544,81.3200876 103.79313,81.3200876 C102.756933,81.3200876 101.857843,81.729281 100.547429,82.8268822 L100.547429,82.8268822 L100.547429,93.9870304 L102.341968,94.3974273 L102.341968,95.8368253 L95.2305449,95.8368253 L95.2305449,94.4660274 L97.2325664,94.056834 L97.2325664,81.5920809 L95.2305449,81.3200876 L95.2305449,79.9492898 L99.5112309,78.8540957 L100.478268,78.8540957 Z M93.0234678,72.2107204 L93.0234678,73.6513219 L90.9510722,74.0605153 L90.9510722,93.9870304 L92.9530937,94.3974273 L92.9530937,95.8368253 L85.0833291,95.8368253 L85.0833291,94.4660274 L87.2928329,94.056834 L87.2928329,74.0605153 L85.0833291,73.7187185 L85.0833291,72.2107204 L93.0234678,72.2107204 Z M39.7931127,34 C57.8804672,34 72.5862254,48.5865412 72.5862254,66.5272648 C72.5862254,73.9240373 70.0309179,81.3196062 65.543963,86.7979838 C63.6802629,89.1243686 62.0932058,90.4951665 57.8113065,93.7145557 L57.8113065,74.676231 L61.0557947,74.676231 L61.0557947,87.6873777 C63.4727807,84.8795888 64.6460866,83.1669941 65.8206059,81.113806 C68.2375919,76.8690263 69.548006,71.5940419 69.548006,66.5272648 C69.548006,50.0933357 56.2242494,36.7391888 39.7931127,36.7391888 C23.2928152,36.7391888 10.037006,50.0933357 10.037006,66.7342685 C10.037006,74.3332307 12.7294216,81.045206 18.4600566,87.6873777 L18.4600566,74.676231 L21.7737056,74.676231 L21.7737056,93.7145557 C17.0792684,90.3591699 14.5931217,87.8931779 12.2465098,84.3319918 C8.86370004,79.129218 7,72.8276397 7,66.5958649 C7,48.5865412 21.6353841,34 39.7931127,34 Z M119.394338,80.15509 C117.876442,80.15509 117.186048,81.4572878 117.186048,84.2638731 C117.186048,87.140262 117.876442,88.4424598 119.533873,88.4424598 C121.12093,88.4424598 121.879272,87.140262 121.879272,84.6056699 C121.879272,81.5920809 121.051769,80.15509 119.394338,80.15509 Z M135.274494,80.4281664 C133.687437,80.4281664 132.789561,81.9349609 132.374596,85.5647471 L132.374596,85.5647471 L137.622319,85.5647471 C137.553159,82.003561 136.862765,80.4281664 135.274494,80.4281664 Z M176.973569,80.4281664 C175.385299,80.4281664 174.488636,81.9349609 174.074885,85.5647471 L174.074885,85.5647471 L179.321395,85.5647471 C179.252234,82.003561 178.56184,80.4281664 176.973569,80.4281664 Z M188.987276,70.6378532 C190.161795,70.6378532 191.127619,71.6632437 191.127619,72.8282414 C191.127619,74.0606357 190.092634,75.0872297 188.848954,75.0872297 C187.606488,75.0872297 186.640664,74.1292357 186.640664,72.8968415 C186.640664,71.6632437 187.675648,70.6378532 188.987276,70.6378532 Z M198.721954,43.7237591 C199.412348,43.7237591 199.688991,43.7923591 200.931458,44.0667594 C201.621852,44.2713561 202.10355,44.3411597 202.449354,44.3411597 C202.518515,44.3411597 202.796371,44.3411597 203.070587,44.2713561 L203.070587,44.2713561 L203.691821,44.2713561 L206.523771,44.2039595 L206.523771,46.1897511 L203.691821,46.1897511 C204.660071,47.4221453 204.934287,48.2441426 204.934287,49.5439334 C204.934287,52.6947226 202.449354,55.0235145 199.135705,55.0235145 C198.447738,55.0235145 197.893238,54.9537109 197.273218,54.7503177 C196.444503,55.2967112 195.961591,55.8455118 195.961591,56.1873086 C195.961591,56.6675091 196.375342,56.8721058 197.410326,56.9419094 L197.410326,56.9419094 L201.552691,57.1465061 C204.797179,57.2837062 206.316289,58.5161005 206.316289,61.049489 C206.316289,64.6792752 203.070587,67.0068635 198.100721,67.0068635 C194.372107,67.0068635 191.956334,65.6372692 191.956334,63.515481 C191.956334,62.1446831 192.715889,61.1854857 194.64875,59.9530914 C193.267962,59.4054944 192.715889,58.7206972 192.715889,57.7627032 C192.715889,56.5977055 193.613766,55.5025114 195.823269,54.1329171 C193.752087,52.8319227 192.992532,51.5309284 192.992532,49.4079368 C192.992532,46.1897511 195.476252,43.7237591 198.721954,43.7237591 Z M196.513664,60.2274917 C195.615787,61.049489 195.269983,61.7354897 195.269983,62.7620838 C195.269983,64.2688783 196.649558,65.1594757 198.929436,65.1594757 C201.760173,65.1594757 203.900516,63.9258779 203.900516,62.3504834 C203.900516,60.7762923 203.34723,60.6378886 196.513664,60.2274917 Z M214.877661,43.7923591 C218.743383,43.7923591 220.608296,46.5315479 220.676243,52.2145221 L220.676243,52.2145221 L211.907389,52.2145221 C212.253193,56.8721058 213.426499,58.7892973 215.912645,58.7892973 C217.156326,58.7892973 218.052988,58.1731001 219.089186,56.5977055 L219.089186,56.5977055 L220.608296,57.2139027 C218.880491,60.2960918 217.638024,61.1854857 214.945608,61.1854857 C210.804457,61.1854857 208.456632,58.2429037 208.456632,52.9005228 C208.456632,47.2163451 210.872405,43.7923591 214.877661,43.7923591 Z M127.333263,43.7922388 C131.200198,43.7922388 133.065112,46.5314275 133.134273,52.2144018 L133.134273,52.2144018 L124.365418,52.2144018 C124.711222,56.8719855 125.884528,58.7891769 128.369461,58.7891769 C129.611928,58.7891769 130.511018,58.1729798 131.546002,56.5987887 L131.546002,56.5987887 L133.065112,57.2137823 C131.33852,60.2959714 130.096053,61.1853653 127.403638,61.1853653 C123.261273,61.1853653 120.913448,58.2427834 120.913448,52.9004025 C120.913448,47.2162247 123.331647,43.7922388 127.333263,43.7922388 Z M111.732056,43.7236387 C115.666938,43.7236387 118.359354,47.0790246 118.359354,52.1470052 C118.359354,57.5567827 115.528617,61.1853653 111.386252,61.1853653 C107.452583,61.1853653 104.760167,57.7625829 104.760167,52.7644058 C104.760167,47.4220249 107.589691,43.7236387 111.732056,43.7236387 Z M94.1967738,37.081467 C98.1316561,37.081467 100.754911,39.3416588 100.754911,42.8342448 C100.754911,45.2304332 99.4420702,46.9418245 96.6125464,48.3114188 C100.202838,49.0660196 102.135699,51.3262114 102.135699,54.6803938 C102.135699,57.2835859 100.684537,59.4751776 98.4070857,60.363368 C97.3721013,60.7761719 96.1284212,60.9133721 93.8509701,60.9133721 L93.8509701,60.9133721 L91.710627,60.9133721 C90.5373211,60.8435685 89.6394448,60.8435685 88.9490507,60.8435685 L84.9450076,60.8435685 L84.9450076,59.4751776 L87.2928329,59.0635772 L87.2928329,39.1358586 L84.9450076,38.7254617 L84.9450076,37.2872672 L89.1565329,37.2872672 L92.0552174,37.2186671 C93.0914152,37.1488636 93.9189175,37.081467 94.1967738,37.081467 Z M140.314735,35.7129558 L140.314735,46.0523102 C142.247596,44.5455157 143.352954,44.0665187 144.80169,44.0665187 C147.495319,44.0665187 148.874894,45.6407098 148.874894,48.7228989 L148.874894,48.7228989 L148.874894,59.0634568 L150.670646,59.4064572 L150.670646,60.8434481 L143.835866,60.8434481 L143.835866,59.4750573 L145.493297,59.1320569 L145.493297,49.8866931 C145.493297,47.4219046 144.940012,46.5313072 143.491276,46.5313072 C142.455078,46.5313072 141.69431,46.8743075 140.314735,48.0368982 L140.314735,48.0368982 L140.314735,59.0634568 L141.972166,59.4064572 L141.972166,60.8434481 L134.928691,60.8434481 L134.928691,59.4750573 L137.001086,59.0634568 L137.001086,38.1777443 L135.068225,37.7673474 L135.068225,36.6023497 L139.348911,35.7129558 L140.314735,35.7129558 Z M170.415432,44.0665187 L170.415432,59.0634568 L172.348293,59.4064572 L172.348293,60.8434481 L165.23687,60.8434481 L165.23687,59.4750573 L167.101783,59.0634568 L167.101783,46.7371074 L165.23687,46.3267105 L165.23687,45.1629163 L169.586717,44.0665187 L170.415432,44.0665187 Z M158.195821,43.9305221 L158.195821,47.0789042 C159.576609,44.7513159 160.268216,44.1351188 161.510683,44.1351188 C162.75315,44.1351188 163.511491,44.888516 163.511491,46.1209103 C163.511491,46.8743075 163.09774,47.4905047 162.199864,48.1765054 L162.199864,48.1765054 L160.405325,47.2161044 C159.232019,47.833505 158.264981,49.1332958 158.264981,50.0936968 L158.264981,50.0936968 L158.264981,59.0634568 L160.680754,59.4064572 L160.680754,60.8434481 L153.018472,60.8434481 L153.018472,59.4750573 L155.01928,59.0634568 L155.01928,46.4639106 L153.018472,46.1209103 L153.018472,45.0245127 L157.160836,43.9305221 L158.195821,43.9305221 Z M228.685543,43.9307628 L228.685543,47.0791449 C230.065118,44.7515566 230.755512,44.1353595 231.999192,44.1353595 C233.240445,44.1353595 234,44.8887567 234,46.121151 C234,46.8745482 233.587462,47.4907454 232.689586,48.1755426 L232.689586,48.1755426 L230.893833,47.2163451 C229.720527,47.8337457 228.752277,49.1335365 228.752277,50.0939375 L228.752277,50.0939375 L228.752277,59.0636975 L231.170476,59.4054944 L231.170476,60.8436888 L223.50698,60.8436888 L223.50698,59.475298 L225.507789,59.0636975 L225.507789,46.4641513 L223.50698,46.121151 L223.50698,45.0247534 L227.649345,43.9307628 L228.685543,43.9307628 Z M180.012153,43.8609592 L180.012153,45.9165543 C182.083335,44.3411597 183.050372,43.9307628 184.568268,43.9307628 C187.192737,43.9307628 188.643899,45.5735539 188.643899,48.3813428 L188.643899,48.3813428 L188.643899,58.996301 L190.437225,59.4054944 L190.437225,60.8436888 L183.465337,60.8436888 L183.465337,59.475298 L185.258662,59.1322976 L185.258662,49.1335365 C185.258662,47.2163451 184.637429,46.3269512 183.327015,46.3269512 C182.290817,46.3269512 181.394154,46.7373481 180.082527,47.8337457 L180.082527,47.8337457 L180.082527,58.996301 L181.875853,59.4054944 L181.875853,60.8436888 L174.765643,60.8436888 L174.765643,59.475298 L176.766451,59.0636975 L176.766451,46.6013515 L174.765643,46.3269512 L174.765643,44.9573568 L179.045116,43.8609592 L180.012153,43.8609592 Z M111.592521,45.3676334 C109.590499,45.3676334 108.418407,48.0370186 108.418407,52.6260022 C108.418407,57.0103891 109.522552,59.4751776 111.456626,59.4751776 C113.526595,59.4751776 114.63074,56.8719855 114.63074,51.7366083 C114.63074,47.6278252 113.526595,45.3676334 111.592521,45.3676334 Z M92.263913,49.3392164 L90.7448033,49.3392164 L90.7448033,58.926377 C91.4351974,59.336774 91.9181093,59.4751776 92.8827196,59.4751776 C96.1284212,59.4751776 98.1316561,57.4881826 98.1316561,54.2712004 C98.1316561,50.914611 96.2667427,49.3392164 92.263913,49.3392164 L92.263913,49.3392164 Z M198.859062,45.163157 C197.342379,45.163157 196.649558,46.4641513 196.649558,49.2719402 C196.649558,52.1471256 197.342379,53.4481199 198.998597,53.4481199 C200.585654,53.4481199 201.343995,52.1471256 201.343995,49.613737 C201.343995,46.6013515 200.517707,45.163157 198.859062,45.163157 Z M39.7931127,41.0525686 L49.8032203,48.7911379 L48.008681,51.1199298 L39.7931127,44.8195549 L31.576331,51.1199298 L29.7817917,48.7911379 L39.7931127,41.0525686 Z M127.196155,45.4374369 C125.607885,45.4374369 124.780383,47.011628 124.365418,50.5728141 L124.365418,50.5728141 L129.611928,50.5728141 C129.473607,46.8744279 128.785639,45.4374369 127.196155,45.4374369 Z M214.73934,45.4375573 C213.151069,45.4375573 212.322354,47.0117484 211.907389,50.5729345 L211.907389,50.5729345 L217.156326,50.5729345 C217.016791,46.8745482 216.326397,45.4375573 214.73934,45.4375573 Z M92.8827196,38.5882615 C92.1935389,38.5882615 91.710627,38.6556581 90.7448033,38.9986584 L90.7448033,38.9986584 L90.7448033,47.6964252 L92.4689685,47.6964252 C95.4392405,47.6964252 96.8200287,46.1896307 96.8200287,42.971445 C96.8200287,40.2310527 95.3700797,38.5882615 92.8827196,38.5882615 Z M168.483785,35.7129558 C169.725038,35.7129558 170.692075,36.6709497 170.692075,37.903344 C170.692075,39.1357382 169.725038,40.0949357 168.483785,40.0949357 C167.238891,40.0949357 166.273068,39.1357382 166.273068,37.903344 C166.273068,36.6709497 167.238891,35.7129558 168.483785,35.7129558 Z" id="boehringer"></path>
            </g>
        </g>
    </g>
</svg>