<?xml version="1.0" encoding="UTF-8"?>
<svg width="240px" height="135px" viewBox="0 0 240 135" version="1.1" xmlns="http://www.w3.org/2000/svg" xmlns:xlink="http://www.w3.org/1999/xlink">
    <title>logo_lilly</title>
    <g id="Page-1" stroke="none" stroke-width="1" fill="none" fill-rule="evenodd">
        <g id="logos-colored" transform="translate(-80.000000, -80.000000)" fill="#F01716">
            <g id="logo_lilly" transform="translate(80.000000, 80.000000)">
                <path d="M151.103259,74.9001004 C152.149747,74.2745343 153.198069,73.4410541 154.035626,72.815488 C161.368379,66.7713888 167.02235,60.3096375 168.27777,56.7678026 L168.27777,56.1422365 C168.27777,55.7245845 168.27777,55.5148466 167.859908,55.5148466 C164.507845,55.5148466 153.615931,66.3537368 150.894327,75.1061907 L151.103259,74.9001004 Z M123.876224,73.6489682 C134.137678,65.9379086 145.029592,54.6813664 146.076081,50.0963134 L146.076081,49.6804853 C146.076081,49.2628333 146.076081,49.0549192 145.656385,49.0549192 C142.306155,49.0549192 127.226454,63.019816 123.876224,73.6489682 L123.876224,73.6489682 Z M60.8284833,80.5283715 C58.1068794,78.6516732 53.9190917,76.9847128 50.1491663,76.9847128 C46.3774083,76.9847128 44.0754995,78.4437591 44.0754995,80.3204574 C44.0754995,82.1953319 47.0060346,83.2367262 50.1491663,83.2367262 C53.9190917,83.2367262 57.4782531,82.1953319 60.8284833,80.5283715 L60.8284833,80.5283715 Z M92.2488043,56.1422365 C99.5797237,53.8478862 106.699879,49.0549192 111.727057,43.8443001 C116.545304,39.051333 120.522328,33.4230619 120.522328,30.7110597 C120.522328,30.0873174 120.104466,29.6696654 119.475839,29.6696654 C117.172098,29.6696654 112.982477,32.5895818 107.326673,38.2178528 C102.929954,42.5931679 97.692012,48.639091 92.2488043,56.1422365 L92.2488043,56.1422365 Z M202,74.0666202 C195.717402,80.3204574 175.817621,97.4095371 170.583345,112 L164.298914,110.33304 C166.393724,104.287117 172.676322,94.9090965 179.79831,87.8236029 C178.332126,88.4473452 176.655179,88.6570831 175.399759,88.6570831 C173.515712,88.6570831 172.049528,88.0296932 171.211971,86.9901227 C170.583345,86.1529949 170.163649,85.1134245 170.163649,83.8622923 L170.163649,83.0288121 C164.089983,86.7803848 159.062805,88.6570831 154.035626,88.6570831 C150.265701,88.6570831 147.124402,86.9901227 145.656385,84.0702064 C139.37562,86.9901227 133.509052,88.6570831 128.481874,88.6570831 C123.876224,88.6570831 120.104466,86.7803848 118.42935,83.4464641 C112.14492,86.9901227 106.910643,88.6570831 102.721023,88.6570831 C100.206517,88.6570831 98.3206383,87.8236029 97.0652184,86.5724707 C96.0168969,85.7353429 95.5990345,84.4896822 95.5990345,83.0288121 C91.6183452,85.5292526 85.7554423,88.6570831 79.6799428,88.6570831 C73.606276,88.6570831 69.4184882,86.5724707 66.2753565,84.4896822 C61.2500112,87.196213 55.5942068,88.6570831 49.5187073,88.6570831 C45.1219883,88.6570831 38,86.7803848 38,80.3204574 C38,75.1061907 43.2361092,71.5661796 50.5670287,71.5661796 C56.6406955,71.5661796 62.7143623,74.2745343 66.2753565,76.9847128 C69.8363506,74.0666202 73.606276,70.1071333 78.0029949,64.6867764 L75.0724599,64.6867764 C66.6932189,64.6867764 59.7838273,62.1863358 56.0120692,58.017111 C53.9190917,55.7245845 52.8707702,53.014406 52.8707702,49.8865755 C52.8707702,38.4239431 67.7433731,29.4617513 80.5175003,28.002705 C81.3550579,29.8775795 82.1926154,31.5463637 82.8212418,33.213324 C70.2560458,34.6723703 59.5748961,42.1773397 59.5748961,49.4725712 C59.5748961,54.2655382 65.0181038,59.0585053 76.5386438,59.0585053 C78.633454,59.0585053 80.5175003,59.0585053 82.4033794,58.6426771 C92.6666667,44.6796041 108.376827,23 121.781413,23 C125.76027,23 127.853248,25.2943503 127.853248,28.6282711 C127.853248,35.2979364 121.988512,42.3852538 118.220419,46.1368266 C112.564615,51.9730117 101.883465,60.5193754 87.0108623,63.437468 C81.3550579,71.3564417 76.5386438,76.7749749 71.9311609,80.5283715 C74.8616959,82.1953319 77.3762013,83.0288121 80.7282643,83.0288121 C88.6859774,83.0288121 96.2276608,75.7335806 102.301328,69.6894813 L102.510259,69.4815672 L107.326673,73.0252259 L107.119574,73.4410541 C104.396138,76.3609705 101.883465,79.6948913 101.883465,81.3618517 C101.883465,82.8227218 103.138885,83.0288121 104.185374,83.0288121 C107.119574,83.0288121 111.935989,81.1521138 117.382862,77.6102789 C118.009655,64.0612103 136.650351,43.218734 147.96196,43.218734 C151.103259,43.218734 152.987305,44.8856944 152.987305,47.5958729 C152.987305,54.4752761 141.050735,69.0657391 123.876224,80.3204574 C124.922712,82.1953319 126.806759,83.0288121 130.369586,83.0288121 C133.091189,83.0288121 138.327299,81.7776799 144.609897,78.6516732 C145.449287,71.5661796 149.428144,64.0612103 154.455322,58.6426771 C159.691431,53.2241439 165.345403,49.6804853 170.163649,49.6804853 C173.304948,49.6804853 175.190827,51.3474456 175.190827,54.0576241 C175.190827,59.8919855 168.27777,70.1071333 151.522954,80.7344618 C152.149747,82.1953319 153.615931,83.0288121 155.919673,83.0288121 C160.948684,83.0288121 169.535023,77.818193 176.446247,71.3564417 L181.264494,75.1061907 C179.169684,77.6102789 177.074874,80.3204574 177.283805,81.9874178 C177.283805,82.403246 177.492736,82.8227218 178.332126,82.8227218 C183.359304,82.8227218 191.317018,76.1512326 197.183586,70.3150474 L202,74.0666202 Z M110.8895,60.3096375 C113.191409,60.3096375 114.868356,62.1863358 114.868356,64.2709482 C114.868356,66.5634747 113.191409,68.4383491 110.8895,68.4383491 C108.585758,68.4383491 106.910643,66.5634747 106.910643,64.2709482 C106.910643,62.1863358 108.585758,60.3096375 110.8895,60.3096375 L110.8895,60.3096375 Z" id="lilly"></path>
            </g>
        </g>
    </g>
</svg>