<?xml version="1.0" encoding="UTF-8"?>
<svg width="186px" height="35px" viewBox="0 0 186 35" version="1.1" xmlns="http://www.w3.org/2000/svg" xmlns:xlink="http://www.w3.org/1999/xlink">
    <!-- Generator: Sketch 51.3 (57544) - http://www.bohemiancoding.com/sketch -->
    <title>Group</title>
    <desc>Created with Sketch.</desc>
    <defs></defs>
    <g id="Symbols" stroke="none" stroke-width="1" fill="none" fill-rule="evenodd">
        <g id="footer" transform="translate(-108.000000, -90.000000)" fill="#EF4B46">
            <g id="Group" transform="translate(108.000000, 90.000000)">
                <path d="M7.16779403,34.1747625 C2.80666718,30.6830597 0,25.2231034 0,19.0868214 C0,8.783537 7.912827,0.387015477 17.8107644,0.0130011395 L7.16779403,34.1747625 Z M17.8187716,0.012700337 C18.0448368,0.00425772598 18.2719364,0 18.5,0 C28.7172679,0 37,8.54546103 37,19.0868214 C37,25.7306135 33.7098753,31.5815806 28.7189353,35 L17.8187716,0.012700337 Z" id="Combined-Shape"></path>
                <path d="M50,17.7565217 L50,4.22318841 L52.756239,4.22318841 L52.756239,17.7565217 L50,17.7565217 Z M62.2810688,17.7565217 L62.2810688,11.8318841 C62.2810688,10.4724638 61.6017141,10.0057971 60.5535669,10.0057971 C59.5830602,10.0057971 58.826065,10.573913 58.4184522,11.1623188 L58.4184522,17.7565217 L55.9533653,17.7565217 L55.9533653,7.95652174 L58.4184522,7.95652174 L58.4184522,9.23478261 C59.0201664,8.48405797 60.1653643,7.71304348 61.6987648,7.71304348 C63.756239,7.71304348 64.7461558,8.93043478 64.7461558,10.8376812 L64.7461558,17.7565217 L62.2810688,17.7565217 Z M74.2127552,17.7565217 L74.2127552,11.8318841 C74.2127552,10.4724638 73.5334006,10.0057971 72.4852533,10.0057971 C71.5147467,10.0057971 70.7577514,10.573913 70.3501386,11.1623188 L70.3501386,17.7565217 L67.8850517,17.7565217 L67.8850517,7.95652174 L70.3501386,7.95652174 L70.3501386,9.23478261 C70.9518528,8.48405797 72.0970507,7.71304348 73.6304512,7.71304348 C75.6879254,7.71304348 76.6778422,8.93043478 76.6778422,10.8376812 L76.6778422,17.7565217 L74.2127552,17.7565217 Z M84.164608,18 C81.0783968,18 79.2150239,15.6463768 79.2150239,12.8463768 C79.2150239,10.0666667 81.0783968,7.71304348 84.164608,7.71304348 C87.2702294,7.71304348 89.1336022,10.0666667 89.1336022,12.8463768 C89.1336022,15.6463768 87.2702294,18 84.164608,18 Z M84.164608,15.7072464 C85.6980086,15.7072464 86.5714646,14.3884058 86.5714646,12.8463768 C86.5714646,11.3246377 85.6980086,10.0057971 84.164608,10.0057971 C82.6312075,10.0057971 81.7771616,11.3246377 81.7771616,12.8463768 C81.7771616,14.3884058 82.6312075,15.7072464 84.164608,15.7072464 Z M97.8820267,18 C94.0970507,18 91.08848,15.1594203 91.08848,11 C91.08848,6.84057971 94.0970507,4 97.8820267,4 C100.832367,4 102.482228,5.62318841 103.394505,7.30724638 L101.026468,8.52463768 C100.482985,7.42898551 99.3183766,6.55652174 97.8820267,6.55652174 C95.6304512,6.55652174 93.9223595,8.44347826 93.9223595,11 C93.9223595,13.5565217 95.6304512,15.4434783 97.8820267,15.4434783 C99.3183766,15.4434783 100.482985,14.5913043 101.026468,13.4753623 L103.394505,14.6724638 C102.462818,16.3565217 100.832367,18 97.8820267,18 Z M105.077641,12.8463768 C105.077641,10.0057971 107.076884,7.71304348 109.930174,7.71304348 C112.725233,7.71304348 114.627426,9.90434783 114.627426,13.1101449 L114.627426,13.6782609 L107.659188,13.6782609 C107.814469,14.915942 108.765566,15.9507246 110.357197,15.9507246 C111.230653,15.9507246 112.25939,15.5855072 112.861104,14.9768116 L113.948072,16.6405797 C113.016385,17.5333333 111.541215,18 110.085455,18 C107.232165,18 105.077641,15.9913043 105.077641,12.8463768 Z M109.930174,9.76231884 C108.396773,9.76231884 107.736829,10.9594203 107.620368,11.9333333 L112.23998,11.9333333 C112.181749,11 111.560625,9.76231884 109.930174,9.76231884 Z M117.106378,17.7565217 L117.106378,4.22318841 L119.571465,4.22318841 L119.571465,17.7565217 L117.106378,17.7565217 Z M122.71036,17.7565217 L122.71036,4.22318841 L125.175447,4.22318841 L125.175447,17.7565217 L122.71036,17.7565217 Z M127.712629,12.8463768 C127.712629,10.0057971 129.711873,7.71304348 132.565163,7.71304348 C135.360222,7.71304348 137.262415,9.90434783 137.262415,13.1101449 L137.262415,13.6782609 L130.294177,13.6782609 C130.449458,14.915942 131.400555,15.9507246 132.992186,15.9507246 C133.865642,15.9507246 134.894379,15.5855072 135.496093,14.9768116 L136.58306,16.6405797 C135.651374,17.5333333 134.176204,18 132.720444,18 C129.867154,18 127.712629,15.9913043 127.712629,12.8463768 Z M132.565163,9.76231884 C131.031762,9.76231884 130.371817,10.9594203 130.255357,11.9333333 L134.874968,11.9333333 C134.816738,11 134.195614,9.76231884 132.565163,9.76231884 Z M146.06907,17.7565217 L146.06907,11.8318841 C146.06907,10.4724638 145.389715,10.0057971 144.341568,10.0057971 C143.371061,10.0057971 142.614066,10.573913 142.206453,11.1623188 L142.206453,17.7565217 L139.741366,17.7565217 L139.741366,7.95652174 L142.206453,7.95652174 L142.206453,9.23478261 C142.808167,8.48405797 143.953365,7.71304348 145.486766,7.71304348 C147.54424,7.71304348 148.534157,8.93043478 148.534157,10.8376812 L148.534157,17.7565217 L146.06907,17.7565217 Z M151.071339,12.8463768 C151.071339,9.84347826 153.148223,7.71304348 156.040333,7.71304348 C157.961936,7.71304348 159.126544,8.58550725 159.747668,9.47826087 L158.136627,11.0608696 C157.690194,10.3710145 157.010839,10.0057971 156.156794,10.0057971 C154.662213,10.0057971 153.614066,11.142029 153.614066,12.8463768 C153.614066,14.5507246 154.662213,15.7072464 156.156794,15.7072464 C157.010839,15.7072464 157.690194,15.3014493 158.136627,14.6521739 L159.747668,16.2144928 C159.126544,17.1275362 157.961936,18 156.040333,18 C153.148223,18 151.071339,15.8695652 151.071339,12.8463768 Z M161.450214,12.8463768 C161.450214,10.0057971 163.449458,7.71304348 166.302748,7.71304348 C169.097807,7.71304348 171,9.90434783 171,13.1101449 L171,13.6782609 L164.031762,13.6782609 C164.187043,14.915942 165.13814,15.9507246 166.729771,15.9507246 C167.603227,15.9507246 168.631964,15.5855072 169.233678,14.9768116 L170.320645,16.6405797 C169.388959,17.5333333 167.913789,18 166.458029,18 C163.604739,18 161.450214,15.9913043 161.450214,12.8463768 Z M166.302748,9.76231884 C164.769347,9.76231884 164.109403,10.9594203 163.992942,11.9333333 L168.612554,11.9333333 C168.554323,11 167.933199,9.76231884 166.302748,9.76231884 Z" id="InnoCellence"></path>
                <path d="M51,30.8762887 L51,24 L51.8608415,24 L51.8608415,30.8762887 L51,30.8762887 Z M57.105406,30.8762887 L57.105406,27.6185567 C57.105406,26.742268 56.6594279,26.4639175 55.9852749,26.4639175 C55.3733514,26.4639175 54.7925427,26.8350515 54.5021383,27.2371134 L54.5021383,30.8762887 L53.7242695,30.8762887 L53.7242695,25.8969072 L54.5021383,25.8969072 L54.5021383,26.6185567 C54.8547722,26.2061856 55.5392968,25.7731959 56.2860509,25.7731959 C57.3335809,25.7731959 57.8832749,26.2989691 57.8832749,27.3814433 L57.8832749,30.8762887 L57.105406,30.8762887 Z M63.0967246,30.8762887 L63.0967246,27.6185567 C63.0967246,26.742268 62.6507465,26.4639175 61.9765935,26.4639175 C61.36467,26.4639175 60.7838613,26.8350515 60.4934569,27.2371134 L60.4934569,30.8762887 L59.7155881,30.8762887 L59.7155881,25.8969072 L60.4934569,25.8969072 L60.4934569,26.6185567 C60.8460908,26.2061856 61.5306154,25.7731959 62.2773695,25.7731959 C63.3248995,25.7731959 63.8745935,26.2989691 63.8745935,27.3814433 L63.8745935,30.8762887 L63.0967246,30.8762887 Z M67.895311,31 C66.3706881,31 65.4165023,29.8247423 65.4165023,28.3814433 C65.4165023,26.9381443 66.3706881,25.7731959 67.895311,25.7731959 C69.4199339,25.7731959 70.3741197,26.9381443 70.3741197,28.3814433 C70.3741197,29.8247423 69.4199339,31 67.895311,31 Z M67.895311,30.3092784 C68.9635842,30.3092784 69.5547645,29.4020619 69.5547645,28.3814433 C69.5547645,27.371134 68.9635842,26.4639175 67.895311,26.4639175 C66.8270378,26.4639175 66.2254859,27.371134 66.2254859,28.3814433 C66.2254859,29.4020619 66.8270378,30.3092784 67.895311,30.3092784 Z M73.253963,30.8762887 L71.1692745,25.8969072 L72.0093728,25.8969072 L73.6791979,29.9793814 L75.3386514,25.8969072 L76.1891214,25.8969072 L74.1044329,30.8762887 L73.253963,30.8762887 Z M80.406899,30.8762887 L80.406899,30.3092784 C79.9920356,30.7628866 79.4215985,31 78.7474455,31 C77.8969756,31 76.9946478,30.4329897 76.9946478,29.3505155 C76.9946478,28.2371134 77.8969756,27.7113402 78.7474455,27.7113402 C79.4319701,27.7113402 80.0024072,27.9278351 80.406899,28.3917526 L80.406899,27.4948454 C80.406899,26.8247423 79.8675766,26.443299 79.1415657,26.443299 C78.5400138,26.443299 78.0525494,26.6597938 77.6065712,27.1340206 L77.2435658,26.5979381 C77.7828882,26.0412371 78.4259264,25.7731959 79.2452816,25.7731959 C80.3031832,25.7731959 81.1847679,26.2474227 81.1847679,27.4536082 L81.1847679,30.8762887 L80.406899,30.8762887 Z M80.406899,29.8247423 L80.406899,28.8865979 C80.1061231,28.4742268 79.5771723,28.2680412 79.0274783,28.2680412 C78.3014674,28.2680412 77.7932597,28.7216495 77.7932597,29.3608247 C77.7932597,29.9896907 78.3014674,30.443299 79.0274783,30.443299 C79.5771723,30.443299 80.1061231,30.2371134 80.406899,29.8247423 Z M84.2824144,31 C83.5460319,31 83.1726549,30.5773196 83.1726549,29.8350515 L83.1726549,26.5773196 L82.3429281,26.5773196 L82.3429281,25.8969072 L83.1726549,25.8969072 L83.1726549,24.5360825 L83.9505237,24.5360825 L83.9505237,25.8969072 L84.966939,25.8969072 L84.966939,26.5773196 L83.9505237,26.5773196 L83.9505237,29.6701031 C83.9505237,30.0412371 84.1164691,30.3092784 84.4587313,30.3092784 C84.6765346,30.3092784 84.8839663,30.2164948 84.9876821,30.1030928 L85.215857,30.6804124 C85.0187969,30.8659794 84.7387641,31 84.2824144,31 Z M86.7266511,25.0927835 C86.4466184,25.0927835 86.2080719,24.8659794 86.2080719,24.5773196 C86.2080719,24.2886598 86.4466184,24.0515464 86.7266511,24.0515464 C87.0170555,24.0515464 87.2556019,24.2886598 87.2556019,24.5773196 C87.2556019,24.8659794 87.0170555,25.0927835 86.7266511,25.0927835 Z M86.3429025,30.8762887 L86.3429025,25.8969072 L87.1207713,25.8969072 L87.1207713,30.8762887 L86.3429025,30.8762887 Z M91.1414889,31 C89.616866,31 88.6626802,29.8247423 88.6626802,28.3814433 C88.6626802,26.9381443 89.616866,25.7731959 91.1414889,25.7731959 C92.6661118,25.7731959 93.6202976,26.9381443 93.6202976,28.3814433 C93.6202976,29.8247423 92.6661118,31 91.1414889,31 Z M91.1414889,30.3092784 C92.2097621,30.3092784 92.8009424,29.4020619 92.8009424,28.3814433 C92.8009424,27.371134 92.2097621,26.4639175 91.1414889,26.4639175 C90.0732157,26.4639175 89.4716638,27.371134 89.4716638,28.3814433 C89.4716638,29.4020619 90.0732157,30.3092784 91.1414889,30.3092784 Z M98.543343,30.8762887 L98.543343,27.6185567 C98.543343,26.742268 98.0973648,26.4639175 97.4232119,26.4639175 C96.8112884,26.4639175 96.2304797,26.8350515 95.9400753,27.2371134 L95.9400753,30.8762887 L95.1622065,30.8762887 L95.1622065,25.8969072 L95.9400753,25.8969072 L95.9400753,26.6185567 C96.2927092,26.2061856 96.9772337,25.7731959 97.7239878,25.7731959 C98.7715178,25.7731959 99.3212118,26.2989691 99.3212118,27.3814433 L99.3212118,30.8762887 L98.543343,30.8762887 Z M110.152603,30.8762887 L110.152603,27.4948454 C110.152603,26.8659794 109.87257,26.4639175 109.229532,26.4639175 C108.710953,26.4639175 108.161259,26.8350515 107.901969,27.2268041 L107.901969,30.8762887 L107.1241,30.8762887 L107.1241,27.4948454 C107.1241,26.8659794 106.854439,26.4639175 106.201029,26.4639175 C105.692822,26.4639175 105.153499,26.8350515 104.883838,27.2371134 L104.883838,30.8762887 L104.105969,30.8762887 L104.105969,25.8969072 L104.883838,25.8969072 L104.883838,26.6185567 C105.09127,26.2989691 105.765423,25.7731959 106.501805,25.7731959 C107.269303,25.7731959 107.704909,26.185567 107.850111,26.7010309 C108.130144,26.2474227 108.804297,25.7731959 109.530308,25.7731959 C110.443008,25.7731959 110.930472,26.2783505 110.930472,27.2783505 L110.930472,30.8762887 L110.152603,30.8762887 Z M112.472381,28.3814433 C112.472381,26.9381443 113.509539,25.7731959 114.940818,25.7731959 C116.455069,25.7731959 117.347026,26.9484536 117.347026,28.443299 L117.347026,28.6391753 L113.291736,28.6391753 C113.353966,29.5773196 114.017747,30.3608247 115.096392,30.3608247 C115.666829,30.3608247 116.247638,30.1340206 116.641758,29.7319588 L117.015135,30.2371134 C116.517299,30.7319588 115.843146,31 115.023791,31 C113.540654,31 112.472381,29.9381443 112.472381,28.3814433 Z M114.930446,26.4123711 C113.862173,26.4123711 113.333222,27.3092784 113.291736,28.0721649 L116.579528,28.0721649 C116.569157,27.3298969 116.071321,26.4123711 114.930446,26.4123711 Z M118.588158,28.3814433 C118.588158,26.9381443 119.625317,25.7731959 121.056596,25.7731959 C122.570847,25.7731959 123.462803,26.9484536 123.462803,28.443299 L123.462803,28.6391753 L119.407514,28.6391753 C119.469743,29.5773196 120.133525,30.3608247 121.212169,30.3608247 C121.782606,30.3608247 122.363415,30.1340206 122.757535,29.7319588 L123.130912,30.2371134 C122.633076,30.7319588 121.958923,31 121.139568,31 C119.656432,31 118.588158,29.9381443 118.588158,28.3814433 Z M121.046224,26.4123711 C119.977951,26.4123711 119.449,27.3092784 119.407514,28.0721649 L122.695306,28.0721649 C122.684934,27.3298969 122.187098,26.4123711 121.046224,26.4123711 Z M126.259674,31 C125.523291,31 125.149914,30.5773196 125.149914,29.8350515 L125.149914,26.5773196 L124.320187,26.5773196 L124.320187,25.8969072 L125.149914,25.8969072 L125.149914,24.5360825 L125.927783,24.5360825 L125.927783,25.8969072 L126.944198,25.8969072 L126.944198,26.5773196 L125.927783,26.5773196 L125.927783,29.6701031 C125.927783,30.0412371 126.093728,30.3092784 126.435991,30.3092784 C126.653794,30.3092784 126.861226,30.2164948 126.964941,30.1030928 L127.193116,30.6804124 C126.996056,30.8659794 126.716023,31 126.259674,31 Z M127.884555,30.2164948 L128.289047,29.6597938 C128.620938,30.0412371 129.253604,30.371134 129.938129,30.371134 C130.705626,30.371134 131.12049,30.0309278 131.12049,29.5463918 C131.12049,29 130.508566,28.8247423 129.834413,28.6597938 C128.983943,28.4639175 128.019386,28.2371134 128.019386,27.2061856 C128.019386,26.4329897 128.693539,25.7731959 129.886271,25.7731959 C130.736741,25.7731959 131.338293,26.0927835 131.742785,26.4948454 L131.379779,27.0309278 C131.079003,26.6701031 130.529309,26.4020619 129.886271,26.4020619 C129.201747,26.4020619 128.776512,26.7113402 128.776512,27.1546392 C128.776512,27.6391753 129.346949,27.7938144 130.000359,27.9484536 C130.871572,28.1443299 131.877615,28.3917526 131.877615,29.4948454 C131.877615,30.3298969 131.203462,31 129.907014,31 C129.087659,31 128.392763,30.7525773 127.884555,30.2164948 Z M136.081564,28.3814433 C136.081564,26.9381443 137.118723,25.7731959 138.550001,25.7731959 C140.064253,25.7731959 140.956209,26.9484536 140.956209,28.443299 L140.956209,28.6391753 L136.900919,28.6391753 C136.963149,29.5773196 137.62693,30.3608247 138.705575,30.3608247 C139.276012,30.3608247 139.856821,30.1340206 140.250941,29.7319588 L140.624318,30.2371134 C140.126482,30.7319588 139.452329,31 138.632974,31 C137.149837,31 136.081564,29.9381443 136.081564,28.3814433 Z M138.53963,26.4123711 C137.471357,26.4123711 136.942406,27.3092784 136.900919,28.0721649 L140.188712,28.0721649 C140.17834,27.3298969 139.680504,26.4123711 138.53963,26.4123711 Z M145.402161,30.8762887 L143.898282,28.8350515 L142.394402,30.8762887 L141.502446,30.8762887 L143.421189,28.3195876 L141.606161,25.8969072 L142.508489,25.8969072 L143.898282,27.7938144 L145.288074,25.8969072 L146.190402,25.8969072 L144.375375,28.3195876 L146.304489,30.8762887 L145.402161,30.8762887 Z M146.861098,28.3814433 C146.861098,26.9072165 147.867141,25.7731959 149.360649,25.7731959 C150.273349,25.7731959 150.812671,26.1443299 151.19642,26.6391753 L150.677841,27.1134021 C150.34595,26.6597938 149.920715,26.4639175 149.402136,26.4639175 C148.333863,26.4639175 147.670081,27.2783505 147.670081,28.3814433 C147.670081,29.4845361 148.333863,30.3092784 149.402136,30.3092784 C149.920715,30.3092784 150.34595,30.1030928 150.677841,29.6597938 L151.19642,30.1340206 C150.812671,30.628866 150.273349,31 149.360649,31 C147.867141,31 146.861098,29.8659794 146.861098,28.3814433 Z M152.271607,28.3814433 C152.271607,26.9381443 153.308766,25.7731959 154.740045,25.7731959 C156.254296,25.7731959 157.146252,26.9484536 157.146252,28.443299 L157.146252,28.6391753 L153.090963,28.6391753 C153.153192,29.5773196 153.816974,30.3608247 154.895618,30.3608247 C155.466055,30.3608247 156.046864,30.1340206 156.440984,29.7319588 L156.814361,30.2371134 C156.316525,30.7319588 155.642372,31 154.823017,31 C153.339881,31 152.271607,29.9381443 152.271607,28.3814433 Z M154.729673,26.4123711 C153.6614,26.4123711 153.132449,27.3092784 153.090963,28.0721649 L156.378755,28.0721649 C156.368383,27.3298969 155.870547,26.4123711 154.729673,26.4123711 Z M158.677789,30.8762887 L158.677789,24 L159.455658,24 L159.455658,30.8762887 L158.677789,30.8762887 Z M161.287972,30.8762887 L161.287972,24 L162.06584,24 L162.06584,30.8762887 L161.287972,30.8762887 Z M163.607749,28.3814433 C163.607749,26.9381443 164.644908,25.7731959 166.076186,25.7731959 C167.590438,25.7731959 168.482394,26.9484536 168.482394,28.443299 L168.482394,28.6391753 L164.427104,28.6391753 C164.489334,29.5773196 165.153115,30.3608247 166.23176,30.3608247 C166.802197,30.3608247 167.383006,30.1340206 167.777126,29.7319588 L168.150503,30.2371134 C167.652667,30.7319588 166.978514,31 166.159159,31 C164.676022,31 163.607749,29.9381443 163.607749,28.3814433 Z M166.065815,26.4123711 C164.997542,26.4123711 164.468591,27.3092784 164.427104,28.0721649 L167.714897,28.0721649 C167.704525,27.3298969 167.206689,26.4123711 166.065815,26.4123711 Z M173.395068,30.8762887 L173.395068,27.6185567 C173.395068,26.742268 172.94909,26.4639175 172.274937,26.4639175 C171.663013,26.4639175 171.082204,26.8350515 170.7918,27.2371134 L170.7918,30.8762887 L170.013931,30.8762887 L170.013931,25.8969072 L170.7918,25.8969072 L170.7918,26.6185567 C171.144434,26.2061856 171.828958,25.7731959 172.575713,25.7731959 C173.623243,25.7731959 174.172937,26.2989691 174.172937,27.3814433 L174.172937,30.8762887 L173.395068,30.8762887 Z M175.714845,28.3814433 C175.714845,26.9072165 176.720889,25.7731959 178.214397,25.7731959 C179.127097,25.7731959 179.666419,26.1443299 180.050168,26.6391753 L179.531589,27.1134021 C179.199698,26.6597938 178.774463,26.4639175 178.255884,26.4639175 C177.18761,26.4639175 176.523829,27.2783505 176.523829,28.3814433 C176.523829,29.4845361 177.18761,30.3092784 178.255884,30.3092784 C178.774463,30.3092784 179.199698,30.1030928 179.531589,29.6597938 L180.050168,30.1340206 C179.666419,30.628866 179.127097,31 178.214397,31 C176.720889,31 175.714845,29.8659794 175.714845,28.3814433 Z M181.125355,28.3814433 C181.125355,26.9381443 182.162514,25.7731959 183.593792,25.7731959 C185.108044,25.7731959 186,26.9484536 186,28.443299 L186,28.6391753 L181.94471,28.6391753 C182.00694,29.5773196 182.670721,30.3608247 183.749366,30.3608247 C184.319803,30.3608247 184.900612,30.1340206 185.294732,29.7319588 L185.668109,30.2371134 C185.170273,30.7319588 184.49612,31 183.676765,31 C182.193629,31 181.125355,29.9381443 181.125355,28.3814433 Z M183.583421,26.4123711 C182.515148,26.4123711 181.986197,27.3092784 181.94471,28.0721649 L185.232503,28.0721649 C185.222131,27.3298969 184.724295,26.4123711 183.583421,26.4123711 Z" id="Innovation-meets-exc"></path>
            </g>
        </g>
    </g>
</svg>