<?xml version="1.0" encoding="UTF-8"?>
<svg width="240px" height="135px" viewBox="0 0 240 135" version="1.1" xmlns="http://www.w3.org/2000/svg" xmlns:xlink="http://www.w3.org/1999/xlink">
    <title>logo_jnj</title>
    <g id="Page-1" stroke="none" stroke-width="1" fill="none" fill-rule="evenodd">
        <g id="logos-colored" transform="translate(-656.000000, -263.000000)" fill="#D71500">
            <g id="logo_jnj" transform="translate(656.000000, 263.000000)">
                <path d="M169.401792,55.7083629 C166.735438,57.4007719 163.382287,60.5776055 159.908834,64.5977902 C159.388166,60.0519379 158.823579,55.3183923 158.476679,49.910166 C157.681038,37.2687777 157.632026,26.7148417 159.733156,21.3135904 C160.976903,18.093004 159.783441,17.4633442 157.632026,18.3897621 C148.62982,22.2209854 135.432991,33.3823878 135.168838,51.3165965 C135.07909,57.5776854 136.560892,63.1368272 138.942088,67.6623884 C135.751884,70.4365695 131.880611,70.014894 128.88136,70.5868509 C127.408469,65.6954148 126.100434,59.9897962 121.027424,57.2162492 C112.681462,51.055982 101.909112,57.2333699 93.5364172,62.7798297 C93.0774912,58.7831067 92.6141096,54.6101043 92.3117658,49.910166 C91.5148512,37.2687777 91.4620206,26.7148417 93.5644238,21.3135904 C94.8113532,18.093004 93.6191639,17.4633442 91.4620206,18.3897621 C82.4636331,22.2209854 69.2668043,33.3823878 69.0039244,51.3165965 C68.8110609,64.725244 75.7554202,74.9659353 83.5374309,78.5466897 C83.3057401,78.9341239 83.0492253,79.3120466 82.8054407,79.687433 C77.0997361,89.1126735 75.5631932,94.1011267 74.085846,99.7230442 C71.945252,107.953643 72.6034067,116.760004 77.9074714,117.874115 C85.1586301,119.408633 92.6198382,106.643596 94.2671344,94.34145 C95.6101773,84.1755824 95.0589569,76.3875842 94.1729305,68.2952188 C94.2709535,68.1696673 94.4058943,67.9952902 94.4988252,67.884957 C95.4166773,66.7518229 96.0926543,65.8260391 96.6432383,65.0264408 C99.9836597,61.8641915 103.768367,59.9276546 107.281284,58.3582607 C111.374064,57.3779444 115.629791,58.1959315 118.737885,60.8046128 C120.208231,62.5978435 122.338004,64.7138303 121.516266,66.9972191 C118.244588,66.1824025 115.629791,64.0638793 112.027127,64.2255744 C108.589955,63.8996478 105.154057,64.3917082 103.35527,67.4892795 C102.210183,69.9318271 104.170644,72.2145818 105.808392,74.0071783 C110.392561,79.224541 124.136154,71.4016675 124.954074,80.6931132 C127.246158,79.8751261 127.081301,76.6152256 128.064714,74.494166 C132.121213,72.9101879 135.926289,72.3426697 141.251995,71.3636216 C143.679656,74.6520565 146.62162,77.1275772 149.703618,78.5466897 C149.472563,78.9341239 149.219867,79.3120466 148.972264,79.687433 C143.263377,89.1126735 141.731926,94.1011267 140.252669,99.7230442 C138.112712,107.953643 138.772776,116.760004 144.076841,117.874115 C151.323544,119.408633 158.786025,106.643596 160.434594,94.34145 C161.77891,84.1755824 161.226416,76.3875842 160.339117,68.2952188 C160.435231,68.1696673 160.568898,67.9952902 160.665648,67.884957 C163.930961,63.8489199 168.449569,59.7989326 170.002024,58.1959315 C171.217128,56.912516 171.646138,54.280373 169.401792,55.7083629 Z M89.4207227,99.6792914 C88.2228048,112.08099 82.5177367,113.193199 80.0296065,112.279463 C77.0997361,111.197057 76.3028216,102.222661 80.821429,90.8462989 C82.9772993,85.4101722 85.7009394,80.5479047 88.2196222,76.6152256 C89.2482276,85.0747341 90.0406866,93.227973 89.4207227,99.6792914 Z M90.8751554,22.900105 C89.2265862,26.6501637 85.9339032,33.731142 85.5290808,45.6021006 C85.2528341,53.4008784 86.5093112,62.9193314 87.6874972,72.312233 C86.7021747,73.6971041 85.7448588,75.1301668 84.791362,76.5809843 C79.2632446,72.7421518 76.5103249,64.5977902 76.1265074,52.0337619 C75.5256389,33.2251313 84.719436,24.0142161 89.7809892,21.632542 C91.0151883,21.046635 91.6650683,21.117654 90.8751554,22.900105 Z M120.208231,72.5411425 C117.919966,73.3546909 113.991406,72.8645328 111.701868,71.4016675 C111.046896,70.748546 109.2462,69.442303 110.392561,68.1392305 C114.154354,66.0181709 117.427941,68.3015598 120.208231,71.4016675 L120.208231,72.5411425 Z M155.585636,99.6792914 C154.390264,112.08099 148.68456,113.193199 146.198976,112.279463 C143.263377,111.197057 142.468372,102.222661 146.985706,90.8462989 C149.147305,85.4101722 151.865216,80.5479047 154.387082,76.6152256 C155.414414,85.0747341 156.208146,93.227973 155.585636,99.6792914 Z M157.038796,22.900105 C155.390863,26.6501637 152.100726,33.731142 151.693994,45.6021006 C151.42093,53.4008784 152.673588,62.9193314 153.855593,72.312233 C152.868361,73.6971041 151.908499,75.1301668 150.958185,76.5809843 C145.429431,72.7421518 142.675875,64.5977902 142.293967,52.0337619 C141.694372,33.2251313 150.887532,24.0142161 155.948449,21.632542 C157.183284,21.046635 157.831255,21.117654 157.038796,22.900105 L157.038796,22.900105 Z" id="jnj"></path>
            </g>
        </g>
    </g>
</svg>