<?xml version="1.0" encoding="UTF-8"?>
<svg width="240px" height="135px" viewBox="0 0 240 135" version="1.1" xmlns="http://www.w3.org/2000/svg" xmlns:xlink="http://www.w3.org/1999/xlink">
    <title>logo_gilead</title>
    <g id="Page-1" stroke="none" stroke-width="1" fill="none" fill-rule="evenodd">
        <g id="logos-colored" transform="translate(-944.000000, -263.000000)">
            <g id="logo_gilead" transform="translate(944.000000, 263.000000)">
                <path d="M93.703381,66.407915 L93.6946981,76.9806901 C92.9802205,77.2585931 91.4644366,77.6561314 88.6487004,77.6561314 C81.7334012,77.6561314 77.2654357,73.5274652 77.2654357,67.1394354 C77.2654357,60.8074847 81.8797699,56.7149584 89.0208241,56.7149584 C91.7212019,56.7149584 93.8224606,57.1162353 95.8306883,58.0159929 L96.4632986,58.3001269 L97.7905399,54.1365671 L97.2968557,53.9035274 C95.8331691,53.2143778 92.8214478,52.4093316 89.1523078,52.4093316 C77.4477764,52.4093316 72.1152434,60.1245662 72.1152434,67.291472 C72.1152434,71.450047 73.6483932,75.2758862 76.3227223,77.7844902 C79.2811059,80.5784744 83.2045304,81.935588 88.3175103,81.935588 C92.7693504,81.935588 96.4236054,80.8414229 98.2073184,80.1884132 L98.6141737,80.0376228 L98.6141737,66.4191309 L93.703381,66.407915 Z" id="Fill-2" fill="#646569"></path>
                <polygon id="Fill-4" fill="#646569" points="107.249057 81.6474662 112.218149 81.6474662 112.218149 52.6969549 107.249057 52.6969549"></polygon>
                <polygon id="Fill-6" fill="#646569" points="126.646998 77.2701828 126.646998 52.6963318 121.676665 52.6963318 121.676665 81.6480893 139.781725 81.6480893 139.781725 77.2701828"></polygon>
                <polygon id="Fill-7" fill="#646569" points="150.975579 77.3432102 150.975579 68.7194945 162.929433 68.7194945 162.929433 64.4138677 150.975579 64.4138677 150.975579 57.0014601 163.624064 57.0014601 163.624064 52.6970795 146.006487 52.6970795 146.006487 81.6475908 164.295127 81.6475908 164.295127 77.3432102"></polygon>
                <path d="M183.040984,58.3933428 C183.318836,59.271915 186.051465,66.5684258 186.855252,68.6769991 L179.294938,68.6769991 C179.294938,68.6769991 182.773055,59.2669302 183.040984,58.3933428 L183.040984,58.3933428 Z M185.593752,52.6969549 L180.676758,52.6969549 L169.807024,81.6474662 L174.825732,81.6474662 L178.014833,72.8081576 L188.145281,72.8081576 L191.478269,81.6474662 L196.585047,81.6474662 L185.593752,52.6969549 Z" id="Fill-8" fill="#646569"></path>
                <path d="M224.833455,56.5094597 C221.985468,53.8176641 217.557196,52.4505808 211.67516,52.4505808 L202.403077,52.4593042 L202.403077,56.6191255 L211.781835,56.6428033 C216.09599,56.6428033 219.326024,57.6995823 221.380147,59.7807391 C223.041059,61.4656038 223.869654,63.7723231 223.843606,66.6410794 C223.843606,69.8213861 222.851276,72.4932425 220.974532,74.375007 C218.788925,76.5633372 215.369108,77.7135813 211.083483,77.7011193 C209.786012,77.7011193 208.36698,77.6836725 207.327514,77.5764991 L207.327514,64.470196 L202.403077,64.470196 L202.403077,81.5381743 L202.960022,81.5954996 C205.113378,81.8160772 207.461479,81.919512 210.445911,81.919512 C216.557423,81.919512 221.593498,80.319389 224.623825,77.4144929 C227.447004,74.6329708 229,70.7572835 229,66.4940276 C229,62.4152095 227.598334,59.0566959 224.833455,56.5094597" id="Fill-9" fill="#646569"></path>
                <path d="M55.8835788,38.1657448 C55.8835788,38.0772645 55.8116348,38.0049848 55.724806,38.0012462 L55.724806,38 L55.7223251,38 L55.7186039,38 C55.7111614,38 55.7074402,38.0024924 55.7012381,38.0024924 C18.4417302,41.5628906 13.6909507,67.3804508 25.8730409,75.624075 C23.7730227,84.9431711 25.7291531,84.7267608 25.7291531,84.7267608 C26.1025172,81.9497947 26.6569816,79.1907042 27.3627762,76.4864465 C32.1160366,58.3205646 43.8788675,42.4713716 55.7396909,38.3327358 L55.7372101,38.327751 C55.8203177,38.3177814 55.8835788,38.2504865 55.8835788,38.1657448" id="Fill-10" fill="#C80037"></path>
                <path d="M53.9145481,44.0967925 C53.9145481,44.0058198 53.8401234,43.9322939 53.7495733,43.9322939 C53.6788697,43.9322939 53.6168491,43.9784033 53.5945217,44.0432058 C50.5158181,50.1097156 49.6264424,58.7944951 47.2808225,65.4392425 C44.5953297,73.0435651 39.8271844,78.1629616 32.4591347,77.6781892 L32.4591347,96.1606063 C32.4591347,96.1606063 12.783713,87.2203555 12.783713,72.8441729 L12.783713,45.9075235 L28.8619387,44.4320207 L28.8681407,44.4320207 C28.9599313,44.4320207 29.0331156,44.3584948 29.0331156,44.2650297 C29.0331156,44.1777956 28.9648929,44.1067621 28.8768236,44.1017773 L28.8768236,44.0967925 L11,44.0967925 L11,72.8441729 C11,89.0173783 32.4554134,98 32.4554134,98 C32.4554134,98 53.9182693,88.8678341 53.9182693,72.8441729 L53.9182693,44.0967925 L53.9145481,44.0967925 Z" id="Fill-11" fill="#C80037"></path>
            </g>
        </g>
    </g>
</svg>