<?xml version="1.0" encoding="UTF-8"?>
<svg width="240px" height="135px" viewBox="0 0 240 135" version="1.1" xmlns="http://www.w3.org/2000/svg" xmlns:xlink="http://www.w3.org/1999/xlink">
    <title>logo_android</title>
    <g id="logo_android" stroke="none" stroke-width="1" fill="none" fill-rule="evenodd">
        <g id="android" fill="#3DDB85" fill-rule="nonzero">
            <path d="M153.922315,52.8989197 L165.286778,33.4234361 C165.927676,32.3315376 165.540502,30.944486 164.451231,30.3104533 C163.362809,29.6760001 161.945864,30.0447313 161.319416,31.1362094 L149.805779,50.8635401 C141.021908,46.8941085 131.13389,44.6808803 120.500425,44.6808803 C109.86611,44.6808803 99.9780924,46.8941085 91.1942213,50.8635401 L79.6797341,31.1362094 C79.0388362,30.0447313 77.6371908,29.6760001 76.5338944,30.3104533 C75.429748,30.944486 75.0565993,32.3315376 75.6983472,33.4234361 L87.0628098,52.8989197 C67.4656992,63.4046062 54.1925678,83.0272459 52,106 L189,106 C186.807432,83.0276663 173.534726,63.4046062 153.922315,52.8989197 L153.922315,52.8989197 Z M89.0462783,86.9672462 C85.8694138,86.9672462 83.3045472,84.4142975 83.3045472,81.2861786 C83.3045472,78.1437645 85.8842887,75.6055314 89.0462783,75.6055314 C92.2231429,75.6055314 94.787656,78.1584801 94.787656,81.2861786 C94.8033094,84.4142975 92.2231429,86.9672462 89.0462783,86.9672462 Z M151.938847,86.9672462 C148.761982,86.9672462 146.197116,84.4142975 146.197116,81.2861786 C146.197116,78.1437645 148.776857,75.6055314 151.938847,75.6055314 C155.115711,75.6055314 157.681067,78.1584801 157.681067,81.2861786 C157.695878,84.4142975 155.115286,86.9672462 151.938847,86.9672462 Z"></path>
        </g>
    </g>
</svg>