<?xml version="1.0" encoding="UTF-8"?>
<svg width="240px" height="135px" viewBox="0 0 240 135" version="1.1" xmlns="http://www.w3.org/2000/svg" xmlns:xlink="http://www.w3.org/1999/xlink">
    <title>logo_takeda</title>
    <g id="Page-1" stroke="none" stroke-width="1" fill="none" fill-rule="evenodd">
        <g id="logos-colored" transform="translate(-368.000000, -263.000000)" fill="#F01716">
            <g id="logo_takeda" transform="translate(368.000000, 263.000000)">
                <path d="M119.722704,32 C190.117161,32 228,81.6936831 228,81.6936831 L228,81.6936831 L212.715345,91.8744078 C212.715345,91.8744078 210.884284,87.4021404 206.729377,80.9668986 C206.721136,82.605855 206.50276,83.6845476 206.50276,83.6845476 C203.963569,103.310862 185.555318,103.989767 183.355469,104.000581 L183.195415,104.000169 C183.183366,104.000029 183.173268,103.999879 183.165158,103.999741 L56.7008424,103.999665 C56.6928392,103.999778 56.6828732,103.999897 56.6709825,104 L56.5768472,104.000257 C54.7303314,103.995813 36.200979,103.455341 33.6332096,83.6140019 C33.6332096,83.6140019 33.4057692,82.457381 33.3876399,80.8020186 C29.8943939,86.2442243 28.024277,90.3328382 27.4756132,91.5999355 L27.4127263,91.7462521 C27.3383866,91.9206028 27.3019606,92.0113976 27.3019606,92.0113976 L27.3019606,92.0113976 L12,81.720753 C12,81.720753 49.3233022,32 119.722704,32 Z M119.66502,34.7685074 C75.9634972,34.7685074 50.6805282,57.2446863 37.9100783,73.9910802 C36.5816944,76.0122957 35.7485703,78.9465034 36.4300675,83.2260007 C36.4300675,83.2260007 38.9294399,99.3473271 56.6730887,99.3473271 L56.6730887,99.3473271 L182.877799,99.3473271 C200.620624,99.3473271 203.37463,83.3720138 203.37463,83.3720138 C204.033878,79.2270455 203.479286,76.1829178 202.006692,74.3150981 C189.234594,57.5744463 163.743962,34.7685074 119.66502,34.7685074 Z M113.565579,61.3503623 L107.498853,73.564607 C107.498853,73.564607 106.855262,75.3134834 108.523159,74.6244327 L108.523159,74.6244327 L115.947935,70.0422452 L121.989115,70.0422452 L112.115234,76.4766667 C112.115234,76.4766667 113.172502,82.4410571 113.455155,83.1284672 C113.733687,83.8027526 114.022932,84.9117961 116.364909,84.1718869 C116.364909,84.1718869 117.987482,83.9340003 120.804941,82.4410571 C120.532178,81.0744398 120.667323,79.5749341 121.118084,78.1131622 C122.592326,73.3234392 128.686246,68.4172339 135.721242,68.8388673 C135.721242,68.8388673 140.005527,69.0004661 140.317846,72.1061163 C140.643349,75.2101258 137.147689,79.2673222 127.837465,82.6945293 C127.837465,82.6945293 128.787606,86.7427024 137.098245,84.2703227 C137.098245,84.2703227 141.027361,83.3663538 144.189277,77.9154702 C144.299701,77.700552 144.421662,77.4995789 144.544447,77.2789186 C144.58153,77.2091932 144.621084,77.1361867 144.660639,77.0566177 L144.660639,77.0566177 L144.657343,77.0779455 C145.219352,76.1690547 145.88684,75.2855933 146.691122,74.4398655 C150.652376,70.3260685 157.041309,68.7929306 160.434786,71.7632315 L160.434786,71.7632315 L165.759858,61.3593856 L171.565357,61.3593856 L161.440963,82.1030941 C161.440963,82.1030941 160.90862,83.2326451 161.496175,83.8306427 C162.085377,84.444226 163.449196,83.809315 163.449196,83.809315 C164.848449,83.2629962 165.92467,82.6124995 166.574853,82.1884051 C166.746258,79.7398141 168.040855,76.9220888 170.329268,74.5473246 C174.284754,70.4302464 180.678631,68.8962882 184.073756,71.8674094 L184.073756,71.8674094 L184.962093,70.2735694 L190.780777,70.2735694 L185.073341,82.215475 C185.073341,82.215475 184.548415,83.3360027 185.137617,83.9372815 C185.723523,84.5475836 187.085694,83.9159538 187.085694,83.9159538 C189.299118,83.048078 190.721444,81.9283705 190.88708,81.8340362 L190.88708,81.8340362 L192.0523,83.8856027 C192.0523,83.8856027 192.020316,83.9252813 191.948894,83.9991053 L191.877844,84.0706161 C191.391503,84.5483055 189.805749,85.8872951 186.106711,87.3349579 C181.496922,89.1510988 179.491162,87.0700015 178.998374,86.1471657 C178.510531,85.2563215 177.627963,86.0159179 177.627963,86.0159179 C174.133951,88.3668934 170.236974,88.7458713 168.065577,86.6877424 C167.562901,86.2054069 167.197842,85.6311979 166.943208,84.9815215 C166.016965,85.6008469 164.59711,86.3948958 162.477629,87.2283191 C157.856304,89.0419991 155.857136,86.9625424 155.360228,86.0413472 C154.878977,85.1554248 153.992289,85.9133806 153.992289,85.9133806 C150.496629,88.2569734 146.596355,88.6449746 144.437319,86.5778224 C143.572057,85.7624457 143.090806,84.6607848 142.953188,83.4032672 C141.048787,84.9815215 136.543653,88.0100636 130.171201,88.0100636 C125.853954,88.0100636 123.225204,86.7427024 121.857265,84.8584767 C120.314626,85.5155358 117.398279,86.6212982 114.264381,87.521986 C110.177046,88.6868098 109.204656,87.2283191 108.719285,86.5843848 C108.497913,86.2957889 108.116666,85.1184232 107.766623,83.9198876 L107.628723,83.4414008 C107.267844,82.1733934 106.971455,81.0129174 106.971455,81.0129174 C106.661608,79.7127443 105.889465,80.3197651 105.889465,80.3197651 L105.889465,80.3197651 L103.359602,81.9283705 L100.443255,87.7926845 L94.6286918,87.7926845 L95.836763,85.3604994 C94.6987368,85.9880278 93.371177,86.6516493 91.8870459,87.2283191 C87.2698406,89.0419991 85.2706723,86.9625424 84.7770606,86.0413472 C84.2941618,85.1554248 83.41077,85.9133806 83.41077,85.9133806 C79.9126375,88.2569734 76.013188,88.6449746 73.8459116,86.5778224 C71.137228,83.9988039 72.1442287,78.5651467 76.110427,74.4398655 C80.0667366,70.3260685 86.4573179,68.7929306 89.8516189,71.7632315 L89.8516189,71.7632315 L90.7432513,70.1669306 L96.557815,70.1669306 L90.850379,82.1030941 C90.850379,82.1030941 90.322981,83.2326451 90.9163038,83.8306427 C91.5038582,84.444226 92.8652045,83.809315 92.8652045,83.809315 C94.5124994,83.1620994 96.778663,81.8520827 97.9092726,81.1777974 L97.9092726,81.1777974 L107.74195,61.3503623 L113.565579,61.3503623 Z M84.9687369,61.4598722 L82.8591446,65.9542877 L73.3000546,65.9542877 L62.4776813,87.8726636 L55.4863607,87.8726636 L66.3161504,65.9542877 L55.8547153,65.9542877 L57.970076,61.4598722 L84.9687369,61.4598722 Z M181.279371,73.5826536 C179.77711,72.5170858 176.927513,73.9468661 174.925048,76.7596697 C172.913519,79.5749341 172.503137,82.7166774 174.002101,83.7789639 C175.507658,84.8412505 178.348191,83.4155717 180.35972,80.6003072 C182.368777,77.7858631 182.784927,74.6515025 181.279371,73.5826536 Z M157.645345,73.4751945 C156.145556,72.4137282 153.296783,73.839407 151.28855,76.6513903 C149.276197,79.4682953 148.874055,82.6059371 150.364779,83.6715048 C151.867864,84.7337914 154.710869,83.3113938 156.72899,80.4969496 C158.733927,77.6792243 159.139364,74.5341998 157.645345,73.4751945 Z M87.0564092,73.4751945 C85.5590931,72.4137282 82.7111435,73.839407 80.6987902,76.6513903 C78.6913813,79.4682953 78.2892403,82.6059371 79.7873804,83.6715048 C81.2855206,84.7337914 84.1235815,83.3113938 86.1425272,80.4969496 C88.1507602,77.6792243 88.563614,74.5341998 87.0564092,73.4751945 Z M134.758741,72.4498213 C134.109382,71.9248303 132.903783,72.3316984 132.903783,72.3316984 C128.668117,74.0805748 127.365279,78.4486643 127.365279,78.4486643 C126.506609,80.8119442 128.781013,79.8193831 128.781013,79.8193831 C131.296867,78.9490464 133.617418,76.3544422 134.57992,74.922201 C135.660262,73.3234392 134.758741,72.4498213 134.758741,72.4498213 Z" id="takeda"></path>
            </g>
        </g>
    </g>
</svg>