<?xml version="1.0" encoding="UTF-8"?>
<svg width="240px" height="135px" viewBox="0 0 240 135" version="1.1" xmlns="http://www.w3.org/2000/svg" xmlns:xlink="http://www.w3.org/1999/xlink">
    <title>logo_fonterra</title>
    <g id="Page-1" stroke="none" stroke-width="1" fill="none" fill-rule="evenodd">
        <g id="logos-colored" transform="translate(-1520.000000, -80.000000)">
            <g id="logo_fonterra" transform="translate(1520.000000, 80.000000)">
                <g id="Group" transform="translate(12.666528, 6.110738)">
                    <path d="M107.833472,125.103897 C79.8368059,125.103897 53.4067356,119.070321 33.4131152,108.115224 C23.3305021,102.59093 15.3505221,96.0745207 9.6942945,88.7474425 C3.48296196,80.7007269 0.333471617,72.0453948 0.333471617,63.0225555 C0.333471617,53.9997162 3.48296196,45.3446916 9.6942945,37.2979759 C15.3505221,29.9705902 23.3305021,23.4541806 33.4131152,17.9295791 C53.4067356,6.97417484 79.8368059,0.943059205 107.833472,0.943059205 C135.830445,0.943059205 162.2599,6.97417484 182.254136,17.9295791 C192.336134,23.4541806 200.316114,29.9705902 205.972649,37.2979759 C212.183981,45.3446916 215.333472,53.9997162 215.333472,63.0225555 C215.333472,72.0453948 212.183981,80.7007269 205.972649,88.7474425 C200.316114,96.0745207 192.336134,102.59093 182.254136,108.115224 C162.2599,119.070321 135.830445,125.103897 107.833472,125.103897" id="Fill-1" fill="#FFFFFE"></path>
                    <path d="M102.556144,48.5601201 C100.649111,48.5601201 99.5090446,49.4886396 99.5090446,51.5581867 L99.5090446,51.5581867 L99.5090446,54.1834387 L97.2915903,54.1834387 L97.2915903,58.8215936 L99.3859145,58.8215936 L99.3859145,65.7425441 C99.3859145,69.7291064 100.617215,72.3869379 106.653557,72.3869379 L106.653557,72.3869379 C107.916382,72.3869379 108.931464,72.2643941 109.916134,72.1411098 L109.916134,72.1411098 L110.808085,72.0181957 L110.808085,71.8923199 L110.592607,67.845041 L110.1012,67.9383373 C109.580122,68.0286717 109.02344,68.1219679 108.500508,68.1219679 L108.500508,68.1219679 C106.713268,68.1219679 106.066835,67.3193242 106.066835,65.0635549 L106.066835,65.0635549 L106.066835,58.7882735 L110.562567,58.7882735 L110.562567,54.3396728 L106.066835,54.3396728 L106.066835,48.5601201 L102.556144,48.5601201 Z" id="Path" fill="#004B86"></path>
                    <path d="M42.4797843,48.6026958 C39.8717999,48.7585597 38.032266,51.0158099 38,53.1497758 L38,53.1497758 L38,71.980433 L44.8081299,71.980433 L44.8081299,62.672284 L49.1035899,62.672284 C52.2604675,62.672284 52.2304267,58.0344993 52.2304267,58.0344993 L52.2304267,58.0344993 L44.8081299,58.0344993 L44.8081299,53.2101222 L52.966982,53.2101222 C56.4632091,53.2101222 56.0036965,48.6026958 56.0036965,48.6026958 L56.0036965,48.6026958 L42.4797843,48.6026958 Z" id="Path" fill="#004B86"></path>
                    <path d="M121.708065,53.4352178 L122.0133,53.4383655 C127.871368,53.5599915 131.223203,57.201422 131.223203,63.5100988 L131.223203,63.5100988 L131.223203,64.7810747 L118.45031,64.7810747 L118.488813,64.9782821 C118.926752,66.9823489 120.608819,67.941299 123.702254,67.941299 L123.702254,67.941299 L123.925542,67.9391564 C125.298157,67.9129016 127.25335,67.6356896 129.289096,66.5796185 L129.289096,66.5796185 L129.503461,66.4859521 L129.503461,71.1348434 L129.41371,71.1652017 L129.010306,71.3094714 C127.110885,71.9613624 124.974524,72.3128933 122.567751,72.3128933 L122.567751,72.3128933 L122.243984,72.3097243 C115.912284,72.1852552 111.698924,68.4047135 111.698924,62.8285181 C111.698924,57.1252314 115.626477,53.4352178 121.708065,53.4352178 L121.708065,53.4352178 Z M121.768518,57.5591328 C119.80437,57.5591328 118.574924,58.8608372 118.360188,61.0303446 L118.360188,61.0303446 L125.176106,61.0303446 L125.172379,60.9142599 C125.116215,59.577791 124.569314,57.5591328 121.768518,57.5591328 Z" id="Combined-Shape" fill="#004B86"></path>
                    <path d="M63.7712768,53.4378094 L64.0964668,53.4409533 C70.455721,53.5644436 74.6705153,57.3156063 74.6705153,62.8903454 L74.6705153,62.8903454 L74.666893,63.1708592 C74.5246134,68.6567909 70.2026299,72.3128933 63.7712768,72.3128933 L63.7712768,72.3128933 L63.4476666,72.3097513 C57.1184643,72.1863403 52.8742636,68.4377805 52.8742636,62.8903454 C52.8742636,57.2211192 57.2635547,53.4378094 63.7712768,53.4378094 L63.7712768,53.4378094 Z M63.7712768,57.9956259 L63.5581401,58.0000892 C61.170931,58.1011032 59.7517469,59.9114034 59.7517469,62.8903454 C59.7517469,65.9295068 61.25564,67.725459 63.7712768,67.725459 L63.7712768,67.725459 L63.9846299,67.7210736 C66.3742189,67.6218183 67.7934029,65.8426736 67.7934029,62.8903454 L67.7934029,62.8903454 L67.7897313,62.6305441 C67.7066381,59.7208135 66.2175603,57.9956259 63.7712768,57.9956259 L63.7712768,57.9956259 Z" id="Combined-Shape" fill="#004B86"></path>
                    <path d="M171.520956,53.4513688 L171.690353,53.4533587 L172.005992,53.4595473 C177.53677,53.616019 180.651405,56.2679798 180.651405,60.9477848 L180.651405,60.9477848 L180.651405,67.5425688 L180.653921,67.9596004 C180.672393,69.4571724 180.79277,70.6164077 181.021908,71.7227577 L181.021908,71.7227577 L181.05232,71.8793621 L174.892848,71.8793621 L174.832767,70.6091267 L174.767493,69.2459652 L174.595533,69.4839943 C173.150752,71.42533 171.405465,72.3128933 168.919184,72.3128933 L168.919184,72.3128933 L168.714543,72.3109078 C165.498403,72.2485246 161.836979,70.7080379 161.836979,66.552222 L161.836979,66.552222 L161.841672,66.2915727 C162.019408,61.4068769 167.211291,60.3613514 171.564998,60.3613514 L171.564998,60.3613514 L172.026473,60.3688073 C172.814657,60.3931803 173.682811,60.4748865 174.401069,60.5779319 L174.401069,60.5779319 L174.387643,60.3922023 C174.219057,58.6287419 172.923051,57.790152 170.306994,57.790152 L170.306994,57.790152 L170.022535,57.7954335 C167.56806,57.8633054 165.408902,58.4938536 164.603336,58.758305 L164.441946,58.8124107 C164.328281,58.8513786 164.267685,58.8741653 164.267685,58.8741653 L164.267685,58.8741653 L164.177563,54.3833591 C164.177563,54.3833591 167.656359,53.4507672 171.352116,53.4507672 L171.352116,53.4507672 L171.520956,53.4513688 L171.520956,53.4513688 Z M171.845378,63.8910584 L171.705396,63.8920626 C170.278958,63.9125853 168.086943,64.2606605 168.086943,66.119061 C168.086943,67.2019635 169.10425,67.9453715 170.582924,67.9453715 L170.582924,67.9453715 L170.79698,67.939546 C172.982313,67.8198145 174.338554,65.8750377 174.401069,64.0143427 L174.401069,64.0143427 L173.81546,63.9821333 L171.845378,63.8910584 Z" id="Combined-Shape" fill="#004B86"></path>
                    <path d="M82.2122335,56.8908802 C82.2122335,54.1664084 79.8527346,53.8561615 79.0568395,53.8561615 L79.0568395,53.8561615 L76.1432551,53.8561615 L76.1432551,71.8826941 L82.7959889,71.8826941 L82.7959889,64.2631326 C82.7959889,60.5779319 84.0202432,58.8112273 86.627115,58.8112273 L86.627115,58.8112273 C88.5274722,58.8112273 89.4457556,60.2376969 89.4457556,63.1495015 L89.4457556,63.1495015 L89.4457556,71.8826941 L96.0977477,71.8826941 L96.0977477,60.6712282 C96.0977477,57.1700284 94.1970196,53.4526183 88.8938955,53.4526183 L88.8938955,53.4526183 C85.8282528,53.4526183 83.4694956,54.6625074 82.2122335,56.8908802 L82.2122335,56.8908802 Z" id="Path" fill="#004B86"></path>
                    <path d="M154.679856,56.8446023 C154.679856,54.117539 152.278449,53.807292 151.483295,53.807292 L151.483295,53.807292 L148.593076,53.807292 L148.593076,71.8826941 L155.229862,71.8826941 L155.229862,64.2553579 C155.229862,60.7834058 156.920676,59.2951089 159.841307,59.0477999 L159.841307,59.0477999 L162.082126,58.9211836 L162.052085,53.7769337 L160.086454,53.7136256 C157.625707,53.7136256 155.905223,54.5210821 154.679856,56.8446023 L154.679856,56.8446023 Z" id="Path" fill="#004B86"></path>
                    <path d="M139.205519,56.8446023 C139.205519,54.117539 136.804111,53.807292 136.009329,53.807292 L136.009329,53.807292 L133.118368,53.807292 L133.118368,71.8826941 L139.755525,71.8826941 L139.755525,64.2553579 C139.755525,60.7834058 141.446338,59.2951089 144.366969,59.0477999 L144.366969,59.0477999 L146.607789,58.9211836 L146.577748,53.7769337 L144.612488,53.7136256 C142.150999,53.7136256 140.430515,54.5210821 139.205519,56.8446023 L139.205519,56.8446023 Z" id="Path" fill="#004B86"></path>
                    <polygon id="Clip-50" fill="#004B86" points="176.611848 47 176.611848 47.5786587 178.61605 47.5786587 178.61605 53.7321367 179.26545 53.7321367 179.26545 47.5786587 181.254817 47.5786587 181.254817 47"></polygon>
                    <polygon id="Clip-53" fill="#004B86" points="188.133042 47 185.665619 52.9261611 183.218223 47 182.171246 47 182.171246 53.7321367 182.840673 53.7321367 182.840673 47.6645505 182.850687 47.6645505 185.383384 53.7321367 185.962688 53.7321367 188.410085 47.6645505 188.419727 47.6645505 188.419727 53.7321367 189.084704 53.7321367 189.084704 47"></polygon>
                </g>
                <path d="M88.5627815,16.678194 C71.0274986,19.7643737 52.5201555,26.3069562 37.5943405,37.9367742 L37.5943405,37.9367742 C3.69610658,64.3496004 29.212964,92.8789919 29.212964,92.8789919 L29.212964,92.8789919 C27.7324359,77.9697378 37.3707036,53.7238274 65.0237939,36.4603246 L65.0237939,36.4603246 C83.9784108,24.627254 111.788752,16.2120831 149.171716,15.9740297 L149.171716,15.9740297 C149.171716,15.9740297 137.483258,14 120.814336,14 L120.814336,14 C111.275833,14 100.108082,14.6460395 88.5627815,16.678194 L88.5627815,16.678194 Z" id="Clip-7" fill="#00B0DE"></path>
                <path d="M33.1523853,97.2457733 C33.1523853,97.2457733 58.4463476,122 99.0985637,122 L99.0985637,122 C158.533682,122 182.5778,95.6971301 186.965237,89.692852 L186.965237,89.692852 C187.441068,89.0419998 187.590901,88.8076486 187.339819,88.9783214 L187.339819,88.9783214 C183.258353,91.7561053 162.253175,95.522755 141.259494,93.3673162 L141.259494,93.3673162 C123.137489,91.4880638 110.136509,86.3308561 80.4962769,84.453825 L80.4962769,84.453825 C78.8737042,84.3512732 77.2848809,84.302774 75.7253567,84.302774 L75.7253567,84.302774 C51.1034177,84.3038847 34.5279561,96.3757491 33.1523853,97.2457733 L33.1523853,97.2457733 Z" id="Clip-10" fill="#74B943"></path>
                <path d="M193.017155,30.9003141 C205.3921,45.7999425 207.609925,60.450781 204.014675,73.0317021 L204.014675,73.0317021 C196.530813,99.2209135 166.945841,116.83909 159.813525,119.937986 L159.813525,119.937986 C159.629614,120.031154 221.06263,106.955244 221,68.6345625 L221,68.6345625 C220.959898,43.781116 193.215943,30.8992035 193.017897,30.8992035 L193.017897,30.8992035 C193.016413,30.8992035 193.016413,30.8992035 193.017155,30.9003141 L193.017155,30.9003141 Z" id="Clip-13" fill="#004B86"></path>
            </g>
        </g>
    </g>
</svg>