<?xml version="1.0" encoding="UTF-8"?>
<svg width="240px" height="135px" viewBox="0 0 240 135" version="1.1" xmlns="http://www.w3.org/2000/svg" xmlns:xlink="http://www.w3.org/1999/xlink">
    <title>logo_bayer</title>
    <g id="Page-1" stroke="none" stroke-width="1" fill="none" fill-rule="evenodd">
        <g id="logos-colored" transform="translate(-1232.000000, -263.000000)">
            <g id="logo_bayer" transform="translate(1232.000000, 262.999865)">
                <g id="Group-8" transform="translate(59.000000, 7.000000)">
                    <path d="M53.2947086,110.602766 L53.2947086,93.7472541 L64.5315411,93.7472541 C67.4211168,93.7472541 69.6683613,96.1552279 69.6683613,99.0447965 C69.6683613,101.29234 68.3843088,103.057984 66.4579249,103.860744 L71.5947452,110.602766 L66.7787856,110.602766 L61.9631309,104.181604 L57.3079066,104.181604 L57.3079066,110.602766 L53.2947086,110.602766 Z M65.8155936,98.8843666 C65.8155936,97.921177 65.1738723,97.2788474 64.2106804,97.2788474 L57.3079066,97.2788474 L57.3079066,100.489581 L64.2106804,100.489581 C65.1738723,100.489581 65.8155936,99.8472511 65.8155936,98.8843666 L65.8155936,98.8843666 Z M68.7051694,72.7184296 L68.7051694,76.4107578 L57.4683369,76.4107578 L57.4683369,79.3000213 L68.3843088,79.3000213 L68.3843088,82.9923495 L57.4683369,82.9923495 L57.4683369,86.2027779 L68.7051694,86.2027779 L68.7051694,89.8948011 L53.4551389,89.8948011 L53.4551389,72.7184296 L68.7051694,72.7184296 Z M27.7710375,60.3580058 C28.7342295,61.3211953 29.3762558,62.6052447 29.3762558,64.050029 C29.3762558,66.9395975 27.1287063,69.1868364 24.2394355,69.1868364 L12.3605767,69.1868364 L12.3605767,52.3316298 L23.9182698,52.3316298 C26.6474153,52.3316298 28.8946598,54.5788687 28.8946598,57.3080073 C28.8946598,58.4316268 28.4130638,59.5552462 27.7710375,60.3580058 L27.7710375,60.3580058 Z M16.3734697,65.4948133 L23.5974092,65.4948133 C24.5606011,65.4948133 25.2026274,64.8527886 25.2026274,63.8895991 C25.2026274,62.9264095 24.5606011,62.2843849 23.5974092,62.2843849 L16.3734697,62.2843849 L16.3734697,65.4948133 Z M16.3734697,58.7527916 L23.4366739,58.7527916 C24.2394355,58.7527916 24.8814618,58.1107669 24.8814618,57.3080073 C24.8814618,56.5052477 24.2394355,55.8632231 23.4366739,55.8632231 L16.3734697,55.8632231 L16.3734697,58.7527916 Z M41.8974458,56.6659827 L39.00787,62.7656746 L44.9474519,62.7656746 L41.8974458,56.6659827 Z M52.3315167,69.1868364 L47.997458,69.1868364 L46.7131004,66.2972679 L37.2422215,66.2972679 L35.9578639,69.1868364 L31.6235002,69.1868364 L40.1314923,52.3316298 L43.98426,52.3316298 L52.3315167,69.1868364 Z M104.342356,55.8632231 L98.5632041,55.8632231 L98.5632041,59.0736515 L104.342356,59.0736515 C105.305243,59.0736515 105.947269,58.2711969 105.947269,57.4684373 C105.947269,56.6659827 105.144812,55.8632231 104.342356,55.8632231 L104.342356,55.8632231 Z M101.45278,62.7656746 L98.4027738,62.7656746 L98.4027738,69.1868364 L94.3895758,69.1868364 L94.3895758,52.3316298 L104.663216,52.3316298 C107.552792,52.3316298 109.800037,54.7396036 109.800037,57.6288672 C109.800037,60.036841 108.194818,61.96322 106.108004,62.6052447 L111.084394,69.1868364 L106.268435,69.1868364 L101.45278,62.7656746 Z M89.0923252,52.3316298 L89.0923252,56.023653 L77.8551877,56.023653 L77.8551877,58.9132215 L88.7711595,58.9132215 L88.7711595,62.6052447 L77.8551877,62.6052447 L77.8551877,65.8156731 L89.0923252,65.8156731 L89.0923252,69.5080012 L73.8422947,69.5080012 L73.8422947,52.3316298 L89.0923252,52.3316298 Z M66.7787856,52.3316298 L71.5947452,52.3316298 L63.0867532,63.2472694 L63.0867532,69.1868364 L59.0735551,69.1868364 L59.0735551,63.2472694 L50.5658681,52.3316298 L55.3815228,52.3316298 L61.1606743,60.036841 L66.7787856,52.3316298 Z M60.999939,36.1184479 L58.1106682,42.2184449 L63.8895148,42.2184449 L60.999939,36.1184479 Z M71.4343149,48.6396067 L67.0999512,48.6396067 L65.8155936,45.7500381 L56.3447147,45.7500381 L55.0606621,48.6396067 L50.7262985,48.6396067 L59.0735551,31.7844001 L62.9263229,31.7844001 L71.4343149,48.6396067 Z M68.7051694,19.7448361 C69.6683613,20.7080256 70.3106926,21.99238 70.3106926,23.4368593 C70.3106926,26.3264278 68.0631431,28.5736667 65.1738723,28.5736667 L53.4551389,28.5736667 L53.4551389,11.7184601 L65.013137,11.7184601 C67.7422825,11.7184601 69.989527,13.966004 69.989527,16.6948377 C69.8287917,17.8184571 69.3471957,18.9423815 68.7051694,19.7448361 L68.7051694,19.7448361 Z M57.3079066,24.8816436 L64.5315411,24.8816436 C65.494733,24.8816436 66.1367593,24.2396189 66.1367593,23.2764294 C66.1367593,22.3132398 65.494733,21.6712152 64.5315411,21.6712152 L57.3079066,21.6712152 L57.3079066,24.8816436 Z M57.3079066,18.1396219 L64.3711107,18.1396219 C65.1738723,18.1396219 65.8155936,17.4975973 65.8155936,16.6948377 C65.8155936,15.8923831 65.1738723,15.2500534 64.3711107,15.2500534 L57.3079066,15.2500534 L57.3079066,18.1396219 Z" id="Fill-1" fill="#00314E"></path>
                    <path d="M0.160430321,64.8527886 C2.08681417,96.6368227 28.5736771,122 61.000122,122 C93.4262619,122 119.91343,96.6368227 121.839509,64.8527886 C121.839509,63.5684342 121.679078,62.2843849 121.518648,61.0000305 C120.234595,50.4052508 116.221092,40.6132307 110.12108,32.4264248 C99.0449831,17.3368623 81.2262375,7.54484223 61.000122,7.54484223 C89.2526335,7.54484223 112.36863,29.5368562 114.295014,57.1475774 C114.455444,58.4316268 114.455444,59.7159811 114.455444,61.0000305 C114.455444,62.2843849 114.455444,63.5684342 114.295014,64.8527886 C112.36863,92.6239397 89.2526335,114.455219 61.000122,114.455219 C40.7737015,114.455219 22.9552609,104.663199 11.8788588,89.5739412 C5.77884656,81.3868303 1.76564853,71.5948102 0.481595963,61.0000305 C0.320860642,59.7159811 0.160430321,58.4316268 0.160430321,57.3080073 C0.160430321,58.5923617 5.13696082e-14,59.8764111 5.13696082e-14,61.1607654 C5.13696082e-14,62.2843849 5.13696082e-14,63.5684342 0.160430321,64.8527886" id="Fill-6" fill="#01BEFF"></path>
                    <path d="M121.83957,57.1475164 C119.913491,25.3631773 93.4263229,-1.13686838e-13 60.999878,-1.13686838e-13 C28.5734331,-1.13686838e-13 2.08687517,25.3631773 0.160491321,57.1475164 C0.160491321,58.4315658 0.320921642,59.7159201 0.481351963,60.9999695 C1.76570953,71.5950542 5.77890756,81.3867693 11.8789198,89.5738802 C22.9553219,104.663443 40.7734575,114.455158 60.999878,114.455158 C32.7473665,114.455158 9.63137026,92.4634488 7.70529141,64.8527276 C7.54455609,63.5683732 7.54455609,62.2843239 7.54455609,60.9999695 C7.54455609,59.7159201 7.54455609,58.4315658 7.70529141,57.1475164 C9.63137026,29.5371002 32.7473665,7.54478123 60.999878,7.54478123 C81.2262985,7.54478123 99.0450441,17.3371063 110.121141,32.4263638 C116.221153,40.6131697 120.234351,50.4054948 121.518404,60.9999695 C121.679139,62.2843239 121.83957,63.5683732 121.83957,64.6922977 C121.83957,63.4079433 122,62.1238939 122,60.8395396 C122,59.7159201 122,58.4315658 121.83957,57.1475164" id="Fill-3" fill="#56D500"></path>
                </g>
            </g>
        </g>
    </g>
</svg>