<?xml version="1.0" encoding="UTF-8"?>
<svg width="240px" height="135px" viewBox="0 0 240 135" version="1.1" xmlns="http://www.w3.org/2000/svg" xmlns:xlink="http://www.w3.org/1999/xlink">
    <title>logo_sanofi</title>
    <g id="Page-1" stroke="none" stroke-width="1" fill="none" fill-rule="evenodd">
        <g id="logos-colored" transform="translate(-1520.000000, -263.000000)">
            <g id="logo_sanofi" transform="translate(1520.000000, 263.000000)">
                <path d="M152.91747,36.0130767 C141.811503,19.7132016 129.377699,34.0269814 116.878927,32.2561223 C104.485014,30.5000678 104.05418,13.5169031 119.311207,12.0785783 C119.677074,12.0387197 120.05092,12.0159434 120.424767,12 C135.673815,12.142352 148.529337,22.1992372 152.91747,36.0130767" id="Fill-13" fill="#BCA36B"></path>
                <path d="M153.221334,36.9823231 C154.070466,39.9774094 154.516118,43.1467347 154.516118,46.4196922 C154.516118,65.421978 139.092684,80.8404094 120.066421,80.8404094 C111.703893,80.8404094 104.053724,77.8544335 98.0927008,72.9131104 C100.437218,73.8492172 103.220548,74.2386924 105.596979,74.2466641 C136.804016,74.4129312 123.477768,32.9554693 153.221334,36.9823231" id="Fill-15" fill="#444492"></path>
                <path d="M91.5482272,65.4056929 C90.4916558,63.9605352 89.6163087,62.4994342 88.8777345,61.0349166 C86.7873873,56.5946726 85.6168385,51.631712 85.6168385,46.3965743 C85.6168385,45.0060798 85.6977625,43.6315287 85.8641697,42.2888645 C93.3775659,52.4095234 102.027318,52.0997654 107.521033,55.3875275 C109.970409,56.9135411 111.591169,59.6227846 111.591169,62.7123928 C111.591169,65.8031397 109.929377,68.5590747 107.481141,70.0680061 C103.163673,72.7043654 96.3102068,71.9185823 91.5482272,65.4056929 Z" id="Fill-18" fill="#ACB316"></path>
                <polygon id="Fill-1" fill="#444492" points="189.803579 123.594023 194 123.594023 194 95.0072335 189.803579 95.0072335"></polygon>
                <path d="M144.230156,94.7544419 C152.368515,94.7544419 158.822472,101.17587 158.822472,109.365097 C158.822472,117.345963 152.240909,123.853785 144.230156,123.853785 C136.168361,123.853785 129.591173,117.345963 129.591173,109.365097 C129.591173,101.216526 136.045859,94.7544419 144.230156,94.7544419 M144.057341,98.6385167 C138.360271,98.6385167 133.828428,103.40395 133.828428,109.405027 C133.828428,115.284136 138.406209,119.963176 144.230156,119.963176 C150.008165,119.963176 154.580842,115.284136 154.580842,109.405027 C154.580842,103.236971 150.089833,98.6385167 144.057341,98.6385167" id="Fill-2" fill="#444492"></path>
                <path d="M55.816927,98.2387837 C53.1875102,98.2387837 50.9037238,100.04143 51.2238331,102.755926 C51.3616478,103.910259 51.9413445,104.639158 53.0650082,105.399275 C53.3756382,105.60691 54.0260652,105.865364 54.8449324,106.15431 C55.6689038,106.447612 56.6715239,106.782296 57.6938318,107.141664 C59.7486562,107.860399 61.8596273,108.690938 62.754329,109.532366 C64.2856034,110.964755 65.1905136,112.803701 65.1905136,114.996207 C65.1905136,120.393981 60.8271108,124 55.6849457,124 C50.4859047,124 46.1319813,120.439719 46,115.208923 L50.0491269,115.208923 C50.5726769,118.783724 52.8360462,120.368572 55.6849457,120.368572 C58.324571,120.368572 61.0451351,118.712576 61.0451351,115.618385 C61.0451351,113.963115 60.2321014,112.702062 58.7314525,111.881687 C58.3347795,111.663162 57.7550828,111.436652 57.0784054,111.202881 C56.3966237,110.964755 55.6185905,110.716464 54.8143069,110.458736 C53.2181356,109.936746 51.5490466,109.364661 50.4815296,108.746839 C48.4318095,107.546769 47.1141844,105.399275 47.1141844,102.927987 C47.1141844,98.1175424 50.8118474,94.6080813 56.0203677,94.6080813 C60.1249122,94.6080813 64.3417501,97.7828586 64.6006084,102.376231 L60.4807512,102.376231 C60.2678311,99.8947789 58.15686,98.2387837 55.816927,98.2387837" id="Fill-4" fill="#444492"></path>
                <path d="M168.624159,95.0125333 L182.189791,95.0074513 L182.189791,98.8414323 L170.028556,98.8414323 L170.028556,108.124008 L182.189791,108.124008 L182.189791,111.952181 L170.028556,111.952181 L170.028556,123.594967 L165.83724,123.594967 L165.83724,97.7880132 C165.83724,96.2481772 167.083405,95.0125333 168.624159,95.0125333" id="Fill-7" fill="#444492"></path>
                <path d="M104.610328,101.672378 L104.589911,123.594532 L100.39349,123.594532 L100.408803,97.6510905 C100.408803,96.0509969 101.711115,94.7543693 103.318224,94.7543693 C104.360949,94.7543693 105.215546,95.1899665 105.795243,96.1272264 C109.953746,102.841957 117.607931,115.532354 118.437006,116.925539 L118.463257,95.0077417 L122.658949,95.0077417 L122.643636,120.951183 C122.643636,122.551276 121.341323,123.853712 119.734215,123.853712 C118.692219,123.853712 117.837622,123.417389 117.257196,122.475047 C113.091401,115.760317 105.439404,103.064837 104.610328,101.672378" id="Fill-9" fill="#444492"></path>
                <path d="M75.9231426,115.542082 L72.9531996,123.594822 L68.5730257,123.594822 L78.8785021,96.5471421 C79.2700709,95.4988049 80.3434213,94.7546597 81.5334402,94.7546597 C82.7183549,94.7546597 83.7924345,95.4988049 84.183274,96.5471421 L94.4880213,123.594822 L90.1093058,123.594822 L87.1437378,115.537 L75.9231426,115.542082 Z M81.5334402,100.264238 L77.3063938,111.806111 L85.7648617,111.810467 L81.5334402,100.264238 Z" id="Fill-11" fill="#444492"></path>
            </g>
        </g>
    </g>
</svg>