<?xml version="1.0" encoding="UTF-8"?>
<svg width="240px" height="135px" viewBox="0 0 240 135" version="1.1" xmlns="http://www.w3.org/2000/svg" xmlns:xlink="http://www.w3.org/1999/xlink">
    <title>logo_gsk</title>
    <defs>
        <linearGradient x1="34.75625%" y1="87.3248%" x2="100%" y2="18.0428%" id="linearGradient-1">
            <stop stop-color="#E81E23" offset="0%"></stop>
            <stop stop-color="#F25D18" offset="37.9555678%"></stop>
            <stop stop-color="#F9EC6E" offset="100%"></stop>
        </linearGradient>
        <path d="M136.299874,14 C111.49523,14 73.206262,18.3306773 60.9091621,43.8658699 L60.9091621,43.8658699 C59.0773694,47.5471448 58,52.7436919 58,57.0703851 L58,57.0703851 C58,63.6693227 58.9714854,69.6215139 61.7774107,75.9030544 L61.7774107,75.9030544 C66.5196891,86.5073041 75.0407018,92.564409 86.6866152,92.564409 L86.6866152,92.564409 C89.920047,92.564409 92.8358269,92.2390438 94.6715903,91.5922975 L94.6715903,91.5922975 C96.503383,90.8300133 98.3391464,89.4249668 98.3391464,86.8273572 L98.3391464,86.8273572 C98.3391464,85.5325365 97.3636903,84.12749 95.9607276,83.5843293 L95.9607276,83.5843293 C94.4558517,83.0438247 93.1600966,82.938911 89.1682708,82.7184595 L89.1682708,82.7184595 C85.1764451,82.499336 83.7734824,82.3904382 80.9728513,82.1739708 L80.9728513,82.1739708 C76.5495484,81.7436919 74.2836314,78.8207171 74.2836314,76.0119522 L74.2836314,76.0119522 C74.2836314,73.5179283 76.0108637,71.3532537 79.2442955,69.8393094 L79.2442955,69.8393094 C74.9321707,68.2138114 71.9515369,64.1088977 71.9515369,59.4754316 L71.9515369,59.4754316 C71.9515369,52.752988 77.1729403,47.5471448 85.6211577,47.5471448 L85.6211577,47.5471448 C87.454274,47.5471448 89.6010715,47.9774236 91.4315407,48.5192563 L91.4315407,48.5192563 C92.944358,48.9548473 94.5643827,49.2775564 96.2863208,49.2775564 L96.2863208,49.2775564 C98.3391464,49.2775564 100.709624,49.1699867 102.651271,48.6308101 L102.651271,48.6308101 L102.651271,52.9588313 C101.572578,52.7436919 98.1220842,52.5245684 96.2863208,52.5245684 L96.2863208,52.5245684 C98.0148767,54.4754316 98.9823915,57.1792829 98.9823915,59.7755644 L98.9823915,59.7755644 C98.9823915,65.8379814 94.2401131,70.9189907 85.8263079,70.9189907 L85.8263079,70.9189907 C85.1062969,70.9189907 84.3201084,70.8857902 83.4108298,70.7795485 L83.4108298,70.7795485 C82.5346399,70.9561753 81.737863,71.3346614 81.1263831,71.8432935 L81.1263831,71.8432935 C80.2078396,72.5856574 79.7856273,73.5471448 79.7856273,74.3798141 L79.7856273,74.3798141 C79.7856273,75.7915007 80.5413742,76.873838 83.9905446,77.0903054 L83.9905446,77.0903054 L91.4315407,77.5232404 C98.6607689,77.9575033 102.544064,80.8818061 102.435533,86.0690571 L102.435533,86.0690571 C102.21847,92.0225764 97.4722213,96.3545817 86.040723,96.3545817 L86.040723,96.3545817 C83.0203827,96.3545817 79.031204,95.812749 75.4695319,94.7277556 L75.4695319,94.7277556 C72.8819923,93.9760956 70.4003367,92.564409 68.2455979,90.9415671 L68.2455979,90.9415671 C77.9498639,107.606906 95.2063043,122 115.160139,122 L115.160139,122 C124.867052,122 133.17365,118.537849 140.940239,112.804781 L140.940239,112.804781 C159.485817,98.9508632 183,67.8911023 183,43.7609562 L183,43.7609562 C183,25.689243 169.951124,17.6786189 153.553667,15.0810093 L153.553667,15.0810093 C147.624165,14.1088977 142.229376,14 136.299874,14 Z M133.708364,73.1978752 L133.708364,43.2164675 C133.708364,38.3505976 133.390712,36.185923 132.417903,34.8844622 L132.417903,34.8844622 L139.858899,32.937583 L139.858899,61.9428951 L149.674343,52.7436919 C149.674343,52.7436919 151.615991,51.0092961 153.337929,48.7383798 L153.337929,48.7383798 L161.861588,48.7383798 C161.430111,48.8472776 159.919941,49.1699867 154.525153,54.2549801 L154.525153,54.2549801 L145.358248,62.9123506 C145.358248,62.9123506 150.860244,69.4063745 156.039294,75.1420983 L156.039294,75.1420983 C160.028472,79.4767596 163.047489,80.7675963 164.881929,80.7675963 L164.881929,80.7675963 C165.206198,80.7675963 165.636352,80.6613546 165.960622,80.5498008 L165.960622,80.5498008 C164.340597,81.7436919 161.97012,82.3904382 159.378609,82.3904382 L159.378609,82.3904382 C156.039294,82.3904382 153.232045,80.5498008 149.782874,76.4409031 L149.782874,76.4409031 C144.282202,69.8393094 139.858899,64.5378486 139.858899,64.5378486 L139.858899,64.5378486 L139.858899,73.1978752 C139.858899,79.252324 140.183169,80.2270916 140.723177,81.6347942 L140.723177,81.6347942 L132.742173,81.6347942 C133.390712,79.9057105 133.708364,79.252324 133.708364,73.1978752 L133.708364,73.1978752 Z M122.603782,74.4926959 C122.603782,70.9189907 118.829019,69.189907 114.729985,67.2403718 L114.729985,67.2403718 C110.203445,65.0743692 105.346018,62.6985392 105.346018,57.1792829 L105.346018,57.1792829 C105.346018,50.4701195 111.814205,47.5471448 117.641795,47.5471448 L117.641795,47.5471448 C120.770666,47.5471448 123.899537,48.3054449 126.592961,49.8180611 L126.592961,49.8180611 L126.592961,54.690571 C124.002774,52.6321381 120.87655,51.4435591 117.533263,51.4435591 L117.533263,51.4435591 C114.294537,51.4435591 111.17096,52.7436919 111.17096,55.6600266 L111.17096,55.6600266 C111.17096,59.123506 115.269994,61.0756972 119.580795,63.2377158 L119.580795,63.2377158 C124.112629,65.5152722 128.856231,68.1088977 128.856231,73.0836653 L128.856231,73.0836653 C128.856231,80.3359894 121.63362,82.8273572 115.59294,82.8273572 L115.59294,82.8273572 C111.814205,82.8273572 108.476213,82.0703851 105.021749,80.6613546 L105.021749,80.6613546 L105.021749,75.685259 C108.584744,77.626826 113.002753,78.8207171 115.806031,78.8207171 L115.806031,78.8207171 C118.829019,78.8207171 122.603782,78.062417 122.603782,74.4926959 L122.603782,74.4926959 Z M77.8413329,58.5790173 C77.8413329,63.5590969 80.7319653,67.4541833 86.0155755,67.4541833 L86.0155755,67.4541833 C90.6532935,67.4541833 93.0515655,64.2961487 93.0515655,59.8539177 L93.0515655,59.8539177 C93.0515655,54.9867198 90.2694641,51.1181939 85.0970321,51.1181939 L85.0970321,51.1181939 C80.5651981,51.1181939 77.8413329,54.1407703 77.8413329,58.5790173 L77.8413329,58.5790173 Z" id="path-2"></path>
    </defs>
    <g id="Page-1" stroke="none" stroke-width="1" fill="none" fill-rule="evenodd">
        <g id="logos-colored" transform="translate(-944.000000, -80.000000)">
            <g id="logo_gsk" transform="translate(944.000000, 80.000000)">
                <mask id="mask-3" fill="white">
                    <use xlink:href="#path-2"></use>
                </mask>
                <use id="gsk" fill="url(#linearGradient-1)" xlink:href="#path-2"></use>
            </g>
        </g>
    </g>
</svg>