<svg id="artwork" xmlns="http://www.w3.org/2000/svg" viewBox="0 0 808 190"><defs><style>.cls-1{fill:#ef4b46;}</style></defs><path class="cls-1" d="M221.64,60.8h13.63v64H221.64Z"/><path class="cls-1" d="M277.4,96.8c0-6.44-3.36-8.64-8.54-8.64a13.21,13.21,0,0,0-10.56,5.47v31.2H246.1V78.46h12.2v6.05a21.23,21.23,0,0,1,16.22-7.2c10.17,0,15.07,5.76,15.07,14.78v32.74H277.4Z"/><path class="cls-1" d="M330.92,96.8c0-6.44-3.36-8.64-8.55-8.64a13.19,13.19,0,0,0-10.55,5.47v31.2h-12.2V78.46h12.2v6.05A21.21,21.21,0,0,1,328,77.31c10.17,0,15.07,5.76,15.07,14.78v32.74H330.92Z"/><path class="cls-1" d="M350.33,101.6c0-13.16,9.22-24.29,24.48-24.29s24.57,11.13,24.57,24.29S390.17,126,374.81,126,350.33,114.84,350.33,101.6Zm36.38,0c0-7.2-4.32-13.44-11.9-13.44S363,94.4,363,101.6s4.23,13.53,11.81,13.53S386.71,108.89,386.71,101.6Z"/><path class="cls-1" d="M404.27,92.86c0-19.68,14.88-33.12,33.6-33.12,14.59,0,22.75,7.68,27.26,15.65l-11.71,5.76a17.55,17.55,0,0,0-15.55-9.31c-11.13,0-19.58,8.93-19.58,21s8.45,21,19.58,21a17.36,17.36,0,0,0,15.55-9.31l11.71,5.67c-4.61,8-12.67,15.74-27.26,15.74C419.15,126,404.27,112.54,404.27,92.86Z"/><path class="cls-1" d="M492.83,77.31c13.82,0,23.23,10.37,23.23,25.53v2.69H481.6c.77,5.86,5.47,10.75,13.34,10.75,4.32,0,9.41-1.72,12.39-4.6l5.37,7.87c-4.7,4.32-11.9,6.43-19.1,6.43-14.11,0-24.77-9.51-24.77-24.38C468.83,88.16,478.72,77.31,492.83,77.31Zm-11.42,20h22.84C504,92.86,500.89,87,492.83,87,485.25,87,482,92.67,481.41,97.28Z"/><path class="cls-1" d="M523,113.31V60.8h12.19V110c0,2.88,1.53,5.09,4.22,5.09a6.17,6.17,0,0,0,4.13-1.34L546.1,123c-1.82,1.63-5.09,3-10.08,3C527.48,126,523,121.56,523,113.31Z"/><path class="cls-1" d="M549.51,113.31V60.8H561.7V110c0,2.88,1.54,5.09,4.22,5.09a6.15,6.15,0,0,0,4.13-1.34l2.59,9.21c-1.82,1.63-5.08,3-10.08,3C554,126,549.51,121.56,549.51,113.31Z"/><path class="cls-1" d="M597,77.31c13.82,0,23.23,10.37,23.23,25.53v2.69H585.75c.76,5.86,5.47,10.75,13.34,10.75,4.32,0,9.41-1.72,12.38-4.6l5.38,7.87c-4.7,4.32-11.9,6.43-19.1,6.43C583.63,126,573,116.47,573,101.6,573,88.16,582.87,77.31,597,77.31Zm-11.43,20H608.4C608.11,92.86,605,87,597,87,589.39,87,586.13,92.67,585.55,97.28Z"/><path class="cls-1" d="M658.59,96.8c0-6.44-3.36-8.64-8.54-8.64a13.21,13.21,0,0,0-10.56,5.47v31.2H627.3V78.46h12.19v6.05a21.23,21.23,0,0,1,16.22-7.2c10.18,0,15.07,5.76,15.07,14.78v32.74H658.59Z"/><path class="cls-1" d="M702.58,77.31c9.5,0,15.26,4.13,18.33,8.45l-8,7.39a11.47,11.47,0,0,0-9.8-5c-7.39,0-12.57,5.37-12.57,13.44s5.18,13.53,12.57,13.53a11.71,11.71,0,0,0,9.8-5l8,7.39c-3.07,4.32-8.83,8.45-18.33,8.45C688.27,126,678,115.9,678,101.6S688.27,77.31,702.58,77.31Z"/><path class="cls-1" d="M746.74,77.31c13.82,0,23.23,10.37,23.23,25.53v2.69H735.51c.76,5.86,5.47,10.75,13.34,10.75,4.32,0,9.41-1.72,12.38-4.6l5.38,7.87c-4.71,4.32-11.91,6.43-19.1,6.43-14.12,0-24.77-9.51-24.77-24.38C722.74,88.16,732.63,77.31,746.74,77.31Zm-11.43,20h22.85C757.87,92.86,754.8,87,746.74,87,739.15,87,735.89,92.67,735.31,97.28Z"/><path class="cls-1" d="M103.92,38c-1.44-.1-2.88-.17-4.34-.17a61.35,61.35,0,0,0-32.33,113.5Z"/><path class="cls-1" d="M131.91,151.33A61.36,61.36,0,0,0,99.58,37.83c-1.46,0-2.9.07-4.34.17Z"/></svg>