<svg id="Layer_1" data-name="Layer 1" xmlns="http://www.w3.org/2000/svg" viewBox="0 0 1080 512"><defs><style>.cls-1,.cls-2{fill:none;stroke:#375eb4;stroke-linecap:round;}.cls-1{stroke-miterlimit:10;stroke-width:16px;}.cls-2{stroke-linejoin:round;stroke-width:8px;}</style></defs><path class="cls-1" d="M334.88,248.57H696.74A48.38,48.38,0,0,1,745.12,297h0a48.38,48.38,0,0,1-48.38,48.38H334.88"/><line class="cls-1" x1="361.67" y1="436.91" x2="361.67" y2="345.34"/><line class="cls-1" x1="696.12" y1="436.91" x2="696.12" y2="345.34"/><line class="cls-2" x1="361.67" y1="400.84" x2="696.12" y2="400.84"/><circle class="cls-2" cx="692.66" cy="296.96" r="21.68"/><circle class="cls-2" cx="633.99" cy="296.96" r="15.96"/><circle class="cls-2" cx="576.86" cy="296.96" r="15.96"/><circle class="cls-2" cx="519.73" cy="296.96" r="15.96"/><circle class="cls-2" cx="462.6" cy="296.96" r="15.96"/><circle class="cls-2" cx="405.48" cy="296.96" r="15.96"/><path class="cls-1" d="M355.78,199.28a9.72,9.72,0,0,0-9.72,9.72v39.57h63.49V209a9.71,9.71,0,0,0-9.71-9.72"/><line class="cls-1" x1="465.59" y1="86.38" x2="379" y2="86.38"/><line class="cls-1" x1="398.88" y1="126.14" x2="465.59" y2="126.14"/><line class="cls-1" x1="398.88" y1="199.28" x2="398.88" y2="126.14"/><polyline class="cls-1" points="398.88 86.38 359.12 86.38 359.12 199.28"/><path class="cls-1" d="M465.59,82.34a7.22,7.22,0,0,1,7.2-7.25H523.4a7.23,7.23,0,0,1,7.2,7.25v41.49a7.23,7.23,0,0,1-7.2,7.25H472.79A7.18,7.18,0,0,1,466.9,128"/><rect class="cls-2" x="478.58" y="131.08" width="38.59" height="29.17"/><rect class="cls-2" x="489.47" y="160.25" width="16.83" height="28.02"/><path class="cls-2" d="M460.93,226.47a9.27,9.27,0,0,1-9.28-9.28V202.51a14.23,14.23,0,0,1,14.24-14.24h64a14.24,14.24,0,0,1,14.24,14.24v14.68a9.28,9.28,0,0,1-9.28,9.28"/><path class="cls-2" d="M582.1,209.09h10.59a21.67,21.67,0,0,1,21.67,21.67v7.46a0,0,0,0,1,0,0H582.1a0,0,0,0,1,0,0V209.09a0,0,0,0,1,0,0Z"/><path class="cls-2" d="M483.09,209.16h10.59a21.67,21.67,0,0,1,21.67,21.67v7.46a0,0,0,0,1,0,0H483.09a0,0,0,0,1,0,0V209.16A0,0,0,0,1,483.09,209.16Z"/><path class="cls-2" d="M632.83,209.09h10.59a21.67,21.67,0,0,1,21.67,21.67v7.46a0,0,0,0,1,0,0H632.83a0,0,0,0,1,0,0V209.09A0,0,0,0,1,632.83,209.09Z"/><line class="cls-2" x1="350.81" y1="203.28" x2="407.68" y2="203.28"/><line class="cls-2" x1="469.67" y1="77.82" x2="469.67" y2="134.69"/></svg>