<?xml version="1.0" encoding="UTF-8"?>
<svg width="648px" height="403px" viewBox="0 0 648 403" version="1.1" xmlns="http://www.w3.org/2000/svg" xmlns:xlink="http://www.w3.org/1999/xlink">
    <!-- Generator: Sketch 52.2 (67145) - http://www.bohemiancoding.com/sketch -->
    <title>Group</title>
    <desc>Created with Sketch.</desc>
    <g id="Projects" stroke="none" stroke-width="1" fill="none" fill-rule="evenodd">
        <g id="Lilly-Award" transform="translate(-360.000000, 0.000000)">
            <g id="slide">
                <g id="graphicArea" transform="translate(360.000000, 0.000000)">
                    <g id="winning" transform="translate(195.000000, 6.000000)">
                        <g id="trophy" transform="translate(151.000000, 33.000000)">
                            <polygon id="Fill-1" fill="#7E4846" points="0 170.8397 0 239.8397 70.5 280.3397 134.25 243.0897 134.25 175.0907 63.25 132.5897"></polygon>
                            <polygon id="Fill-2" fill="#4F2D2B" points="70.4997 211.3397 70.4997 280.3397 134.2507 243.0897 134.2507 175.0907"></polygon>
                            <polygon id="Fill-3" fill="#70403E" points="0 239.84 70.5 280.34 70.5 211.34 0 170.84"></polygon>
                            <path d="M26.583,63.34 C26.583,63.34 19.5,64.173 18.667,36.507 L22.917,39.257 L22.694,29.844 L23.917,30.507 L23.917,23.423 L22.417,18.34 L18.5,16.257 C18.5,16.257 16.333,15.173 14.167,16.257 C12,17.34 5.226,20.368 5.226,20.368 L5.229,20.37 C3.115,21.561 2.917,26.173 2.917,26.173 C2.917,26.173 1.33226763e-15,80.84 28.667,88.507 C57.333,96.173 26.583,63.34 26.583,63.34" id="Fill-4" fill="#F8C22C"></path>
                            <path d="M18.667,36.507 L15.167,34.257 C15.167,34.257 11,31.757 10.417,36.923 C9.833,42.09 11.65,69.531 25.833,75.84 C32.966,79.013 33.365,74.716 32.002,69.66 C29.089,66.016 26.583,63.34 26.583,63.34 C26.583,63.34 19.5,64.173 18.667,36.507" id="Fill-6" fill="#F5C12C" style="mix-blend-mode: multiply;"></path>
                            <path d="M6.167,20.09 C9.167,19.923 13.167,22.84 13.167,22.84 L22.667,28.673 L22.694,29.844 L23.917,30.507 L23.917,23.423 L22.417,18.34 L18.5,16.257 C18.5,16.257 16.333,15.173 14.167,16.257 C12,17.34 5.226,20.368 5.226,20.368 L5.23,20.37 C5.509,20.213 5.817,20.11 6.167,20.09" id="Fill-8" fill="#F5C12C" style="mix-blend-mode: multiply;"></path>
                            <path d="M108.0967,167.34 L105.7187,166.309 L103.2657,169.042 C97.5117,161.954 87.0577,155.685 74.3087,152.501 C58.8627,148.644 44.2607,150.367 36.1717,156.124 L36.1727,156.123 L34.1667,153.007 L29.6417,153.422 L29.6417,167.946 L29.6437,167.947 C29.8307,179.131 43.9507,191.197 63.4297,196.063 C84.8827,201.42 104.7097,196.012 107.7147,183.983 C107.9887,182.888 108.1087,181.775 108.0927,180.653 L108.0967,180.653 L108.0967,167.34 Z" id="Fill-10" fill="#F0A32F"></path>
                            <path d="M105.7188,166.3087 L103.2658,169.0417 C103.0228,168.7427 102.7598,168.4477 102.4998,168.1507 L102.4998,172.9647 L96.3468,172.9647 L96.3468,180.6537 L96.3428,180.6537 C96.3588,181.7747 96.2388,182.8877 95.9648,183.9827 C94.0508,191.6447 85.3078,196.6147 73.6698,197.8327 C90.8678,199.4877 105.1978,194.0617 107.7148,183.9827 C107.9888,182.8877 108.1088,181.7747 108.0928,180.6537 L108.0968,180.6537 L108.0968,167.3397 L105.7188,166.3087 Z" id="Fill-12" fill="#DC9627"></path>
                            <path d="M107.7148,169.4831 C104.7098,181.5121 84.8828,186.9201 63.4298,181.5621 C41.9758,176.2041 27.0198,162.1091 30.0238,150.0801 C33.0268,138.0511 52.8548,132.6431 74.3088,138.0011 C95.7628,143.3581 110.7188,157.4541 107.7148,169.4831" id="Fill-14" fill="#FFDD4E"></path>
                            <path d="M104.2705,166.237 C101.5765,177.026 83.7925,181.877 64.5505,177.071 C45.3085,172.265 31.8945,159.624 34.5885,148.835 C37.2835,138.046 55.0665,133.195 74.3085,138.001 C93.5505,142.806 106.9645,155.448 104.2705,166.237" id="Fill-16" fill="#FFD22F"></path>
                            <path d="M47.0732,137.0734 C48.1072,146.8864 54.2552,157.8604 68.6872,161.4654 C81.6422,164.7004 96.1322,162.2424 105.0452,157.0014 C99.8652,148.9274 88.5142,141.5494 74.3082,138.0014 C64.3782,135.5204 54.8002,135.3514 47.0732,137.0734" id="Fill-18" fill="#F5C12C"></path>
                            <path d="M80.625,125.84 L56.75,125.84 L56.75,156.59 L56.758,156.592 C57.394,159.946 61.694,163.386 67.492,164.833 C73.085,166.23 79.708,163.673 80.615,158.965 L80.625,125.84 Z" id="Fill-20" fill="#F0A32F"></path>
                            <path d="M19.3574,24.6735 C19.3574,24.6735 19.3574,37.3405 25.0004,78.8405 C31.0604,123.4135 68.6874,131.8405 68.6874,131.8405 C68.6874,131.8405 113.4914,142.4785 120.1674,101.5065 C126.4114,63.1815 127.4994,44.1735 127.4994,44.1735 C127.4994,44.1735 57.3234,23.8505 56.7504,23.8685 C56.1754,23.8855 19.3574,24.6735 19.3574,24.6735" id="Fill-22" fill="#FFDD4D"></path>
                            <path d="M29.833,42.3332 C29.833,42.3332 24.228,119.3402 73.447,130.6732 C122.667,142.0062 122,49.3402 122,49.3402 L48.333,37.0062 L29.833,42.3332 Z" id="Fill-24" fill="#FFD22F"></path>
                            <path d="M122,49.34 L109.211,47.199 C108.298,56.354 106.409,72.371 102.667,95.34 C98.203,122.736 76.704,127.053 62.94,126.908 C66.131,128.515 69.623,129.793 73.447,130.673 C122.667,142.007 122,49.34 122,49.34" id="Fill-26" fill="#F5C12C"></path>
                            <path d="M127.0127,47.2638 C122.8697,63.8508 95.5297,71.3088 65.9467,63.9208 C36.3637,56.5328 15.7397,37.0968 19.8817,20.5088 C24.0247,3.9218 51.3657,-3.5362 80.9487,3.8518 C110.5317,11.2408 131.1557,30.6768 127.0127,47.2638" id="Fill-28" fill="#FFDD4D"></path>
                            <path d="M115.2637,45.3122 C111.9757,58.4792 90.2727,64.3982 66.7897,58.5342 C43.3067,52.6692 26.9367,37.2412 30.2247,24.0742 C33.5127,10.9072 55.2147,4.9872 78.6987,10.8522 C102.1807,16.7172 118.5517,32.1452 115.2637,45.3122" id="Fill-31" fill="#F0A32F"></path>
                            <path d="M75.3838,26.132 C56.3698,21.384 38.5278,24.362 30.6778,32.657 C34.2198,43.363 48.2948,53.915 66.7898,58.534 C85.8038,63.282 103.6468,60.304 111.4958,52.009 C107.9538,41.303 93.8788,30.751 75.3838,26.132" id="Fill-33" fill="#BF7E20"></path>
                            <path d="M114.875,60.798 L132.375,71.715 C132.375,71.715 146.25,78.09 141.375,96.34 C136.5,114.59 134.375,121.34 124.125,124.34 C124.125,124.34 120.562,128.996 114.219,128.059 C107.875,127.121 103.5,124.527 103.5,124.527 L104.375,113.777 L112.562,109.527 L118.563,112.277 C118.563,112.277 123.333,104.256 123.75,97.173 C124.167,90.09 124.583,86.673 119,83.506 C113.417,80.34 105.833,75.756 105.833,75.756 L107,64.756 L114.875,60.798 Z" id="Fill-35" fill="#FFDD4D"></path>
                            <path d="M132.375,71.715 L114.875,60.798 L107,64.757 C107,64.757 119.333,72.673 123.667,75.173 C128,77.673 131.943,81.044 133.583,87.257 C138.432,105.628 124.125,124.34 124.125,124.34 C134.375,121.34 136.5,114.59 141.375,96.34 C146.25,78.09 132.375,71.715 132.375,71.715" id="Fill-38" fill="#F0A32F"></path>
                            <path d="M118.5625,112.2775 L112.5625,109.5275 L104.3745,113.7775 C104.3745,113.7775 114.1255,120.2145 118.5625,112.2775" id="Fill-41" fill="#F0A32F"></path>
                            <path d="M30.0889,68.1847 C30.0479,68.4897 30.0309,68.6837 30.0309,68.6837 C30.0579,68.5327 30.0759,68.3647 30.0889,68.1847" id="Fill-43" fill="#FDFEFB"></path>
                            <path d="M34.917,61.923 C30.958,59.59 30.813,50.965 30.813,50.965 C30.813,50.965 30.5,59.027 25.938,59.027 L26.5,59.209 C29.017,60.354 30.272,65.595 30.089,68.185 C30.303,66.635 31.251,61.923 34.917,61.923" id="Fill-45" fill="#FDFEFB"></path>
                        </g>
                        <g id="man" transform="translate(209.000000, 0.000000)">
                            <path d="M55.6988026,49.639534 C62.4052435,50.7123402 70.2877462,50.7123402 79.3463107,49.639534 C92.9341574,48.0303247 107.647557,43.9193003 109.96516,39.8494075 C112.282763,35.7795147 117.803694,31.0252137 123.209072,28.8174398 C128.614451,26.6096659 135.278922,26.5555094 130.709668,22.657734 C126.140415,18.7599587 108.097233,9.41780816 102.405152,10.0285711 C96.7130712,10.639334 91.2515515,12.9130803 86.4751746,15.29064 C81.6987976,17.6681998 69.7624642,20.965432 67.5157193,22.657734 C65.2689744,24.3500361 56.173039,35.1529275 38.8865464,38.0868924 C34.0151121,40.5847821 39.6191975,44.4356626 55.6988026,49.639534 Z" id="cape" fill="#EF4B46"></path>
                            <g id="legs" transform="translate(0.000000, 78.000000)">
                                <path d="M14.4206728,54.1410885 C15.2964728,54.1231282 16.0591728,54.8172076 16.3996328,55.6236838 C16.7400928,56.4290012 16.7470528,57.331652 16.7487928,58.2064933 C16.7499528,58.9724139 16.7157328,59.8269774 16.1693728,60.3646282 C15.8161528,60.7110885 15.3167728,60.853033 14.8394328,60.9822314 C13.9410128,61.2249853 13.0367928,61.468898 12.1099528,61.5488504 C11.0595728,61.638652 9.99469277,61.5169853 8.95243277,61.6757314 C8.28833277,61.7765409 7.64685277,61.9897472 6.99319277,62.143279 C5.14415277,62.5778028 3.18375277,62.527398 1.35965277,61.9990171 C0.953072775,61.8802472 0.531412775,61.7249774 0.264612775,61.395898 C-0.177927225,60.8518742 -0.0236472252,60.0031044 0.419472775,59.4608187 C0.863752775,58.9173742 1.52495277,58.6074139 2.16237277,58.3148345 C4.08275277,57.434779 6.00255277,56.5535647 7.92293277,55.6729298 C9.80619277,54.8090964 11.7561528,53.9290409 13.8284928,53.881533 C14.4902728,53.8658901 15.3625928,54.1660012 15.3028528,54.8247393 L14.4206728,54.1410885 Z" id="Fill-71" fill="#1D202B"></path>
                                <path d="M13.2520818,57.1696702 L13.4405818,57.1540273 C14.7125218,57.0509003 15.6590818,55.9373606 15.5564218,54.6679718 L15.2403218,50.7868051 C15.1370818,49.5168368 14.0229018,48.5707337 12.7515418,48.67444 L12.5630418,48.6895035 C11.2911018,48.7926305 10.3439618,49.9061702 10.4477818,51.1755591 L10.7633018,55.0567257 C10.8665418,56.326694 11.9813018,57.2727971 13.2520818,57.1696702" id="Fill-73" fill="#EF4B46"></path>
                                <path d="M14.6893332,62.7622647 C14.3540932,63.5073282 14.0060932,64.2442806 13.6801332,64.9852886 C13.3477932,65.7407806 13.0137132,66.4991695 12.7730132,67.304487 C12.4157332,68.4973997 11.7429332,70.8194949 12.5885732,71.9023282 C13.8610932,73.5332409 15.9374932,72.1369711 16.9722132,70.9851933 C18.5115332,69.2714314 19.9435532,67.4157251 21.2520332,65.4389314 C21.8134732,64.5907409 22.3679532,63.6793997 22.5407932,62.6110505 C23.0709132,59.336479 21.4944732,54.6934473 18.1890532,55.7803362 C16.9820732,56.1777806 16.4676132,57.2073124 16.1816732,58.5439076 C15.8632532,60.0305584 15.2971732,61.410606 14.6893332,62.7622647" id="Fill-75" fill="#1D202B"></path>
                                <path d="M19.12898,60.6508333 L19.31864,60.6508333 C20.59406,60.6508333 21.6282,59.6178254 21.6282,58.3438016 L21.6282,54.4498889 C21.6282,53.1758651 20.59406,52.1428571 19.31864,52.1428571 L19.12898,52.1428571 C17.85356,52.1428571 16.82,53.1758651 16.82,54.4498889 L16.82,58.3438016 C16.82,59.6178254 17.85356,60.6508333 19.12898,60.6508333" id="Fill-77" fill="#EF4B46"></path>
                                <path d="M39.7413917,2.13322222 L32.1109117,7.10542736e-15 L30.1110717,4.01094444 L6.88787169,15.3948889 C4.92515169,16.193254 3.77617169,18.2424683 4.12069169,20.3316587 L4.49189169,22.580754 L4.50697169,22.5865476 L8.71603169,51.3972143 C8.90743169,52.7071587 9.98333169,53.708881 11.3051517,53.8056349 L12.7116517,53.9087619 C14.4035117,54.0333254 15.8239317,52.6509603 15.7421517,50.9580556 L14.5502517,26.121254 L14.7271517,26.1838254 L35.2504517,15.4348651 L35.4331517,16.1382143 C30.9717917,19.2888016 25.3092517,23.9156111 20.3850517,27.8205317 C19.4819917,28.5360476 18.8474717,29.5285 18.5708117,30.6466746 C18.4020317,31.3291667 18.2326717,32.0452619 18.2697917,32.3679683 L15.3767517,55.5472063 C15.5031917,57.0500794 16.7606317,58.2053333 18.2697917,58.2053333 L20.2673117,58.2053333 C21.8710117,58.2053333 23.1713717,56.9063968 23.1713717,55.3044524 L27.8293517,36.8331349 L53.5731358,21.6959571 C55.6553358,20.416719 56.9904958,18.2104968 57.1569558,15.7736873 L57.4923998,7.34488235 L39.7413917,2.13322222 Z" id="Fill-79" fill="#0D3054"></path>
                            </g>
                            <g id="body" transform="translate(13.000000, 0.000000)">
                                <path d="M12.7803852,11.507726 C12.4930588,12.3034674 10.7221897,12.5003364 8.8239923,11.9495541 C6.9257949,11.3980204 5.61900411,10.3069755 5.90633054,9.51273693 C6.19281929,8.71699553 7.96452605,8.51937514 9.86272345,9.07090884 C11.7609208,9.62169113 13.0677116,10.712736 12.7803852,11.507726" id="Fill-19" fill="#A8C4F2"></path>
                                <path d="M11.9922336,7.9198799 C14.0924939,8.70221341 16.4256762,7.62131589 17.2020833,5.50502393 C17.9800748,3.38793367 16.9065732,1.03773996 14.806313,0.254608152 C12.7060527,-0.527725353 10.3728703,0.553172163 9.5964633,2.67026242 C8.81926401,4.78655439 9.89197333,7.1375464 11.9922336,7.9198799" id="Fill-21" fill="#FFC2B0"></path>
                                <path d="M13.9788719,4.27305881 L12.0306538,2.67156523 C11.2141842,2.01772964 10.0567336,2.36482755 9.68576678,3.30925672 L7.02560087,10.0849307 L7.22864735,10.2988398 C8.0108475,11.1221884 9.07748407,11.5831021 10.3985713,11.6654369 C10.7815324,11.6896531 11.1550694,11.6783522 11.5114716,11.6323415 L11.7599251,11.6008606 L12.7306072,8.38172933 L13.9788719,4.27305881 Z" id="Fill-23" fill="#FFC2B0"></path>
                                <path d="M24.030744,41.9788375 L9.49940156,29.8115764 C9.01278048,29.3992639 8.81419313,28.7460316 8.99062404,28.1388812 L12.4741088,11.236494 L11.8775262,11.3181481 L11.6395496,11.3504863 C11.2973557,11.3941429 10.9387496,11.410312 10.5743992,11.3828245 C9.30409664,11.3019789 8.28243856,10.8387337 7.53568446,10.0173425 L7.34284137,9.79905945 L6.92268961,9.34228188 C6.92268961,9.34228188 -0.00981437372,30.5116992 0.0730671252,31.6176669 C0.155948624,32.7325276 0.669649795,33.8215176 1.59775846,34.6049114 L6.02248165,38.3545298 L18.2635046,48.5806883 C19.0972433,49.2880872 20.1246456,49.6308725 21.1463037,49.6308725 C22.3895262,49.6308725 23.6220807,49.1191199 24.494388,48.1182515 C26.0912929,46.294375 25.881217,43.545625 24.030744,41.9788375" id="Fill-25" fill="#A8C4F2"></path>
                                <path d="M18.6143859,46.4102464 L18.6143859,79.3006302 L26.7163483,84.336874 C30.0788987,86.4367948 33.9774731,87.3023738 37.8328456,86.9068658 C39.1817059,86.7593608 40.5297662,86.4659716 41.8330245,85.9959006 L44.6891523,84.968228 L43.631505,48.4955787 C43.5723023,46.9678479 42.9786758,45.5446673 41.9642304,44.4578307 C41.5874135,44.0315249 41.1377934,43.6643832 40.6313708,43.3564056 L38.0800566,41.7265559 L37.3696249,41.2710732 C35.4415386,39.9062463 31.7021713,38.4960332 28.3396209,38.0851263 C27.6731911,37.9967854 27.0347626,37.9530201 26.4267354,37.9530201 C25.0786751,37.9530201 23.8754212,38.1734672 23.0057823,38.6873035 C20.2960611,40.2871659 18.6143859,43.2242994 18.6143859,46.4102464" id="Fill-27" fill="#DCEAFF"></path>
                                <path d="M37.8338066,87 C39.1826353,86.8518864 40.5298639,86.5572869 41.8338916,86.0852765 L44.6891523,85.0533643 L43.6315298,48.430245 C43.5731286,46.8970252 42.9795159,45.4671594 41.9642944,44.3758389 C41.3994824,44.4344333 40.8338704,44.5231387 40.2834587,44.6557899 C40.1234553,44.6997357 39.9506516,44.7591439 39.8194488,44.8478493 C39.0370322,45.0692058 38.2978165,45.3776402 37.7618051,45.9530045 C36.5001783,47.2949787 36.8049848,49.4776196 37.428198,51.2313822 C38.037011,53.0014209 38.8778288,54.8438889 38.3994187,56.642411 C38.0514113,57.924977 37.0801906,58.9723517 36.8185851,60.2842149 C36.2833737,63.0560549 39.167435,69.985655 38.8914291,72.8014408 C38.7322257,74.4079035 37.5874014,75.705932 36.862586,77.1357978 C35.3265534,80.2469969 35.9505666,84.0507492 37.8338066,87" id="Fill-29" fill="#A8C4F2"></path>
                                <path d="M30.7826102,44.3758389 C28.1838011,44.3758389 26.1470962,42.8363678 26.1470962,40.8716188 C26.1470962,38.9077343 28.1838011,37.3691275 30.7826102,37.3691275 C33.38224,37.3691275 35.4181242,38.9077343 35.4181242,40.8716188 C35.4181242,42.8363678 33.38224,44.3758389 30.7826102,44.3758389" id="Fill-31" fill="#FFFFFF"></path>
                                <path d="M34.2592457,33.10398 L34.2592457,40.5854706 L34.2141797,40.5854706 C33.9563016,41.7503242 32.4165442,42.6241611 30.4895524,42.6241611 C28.569237,42.6241611 27.0294796,41.7503242 26.770767,40.5854706 L26.7265354,40.5854706 L26.7265354,33.10398 C26.7265354,32.1829512 27.152994,31.3515871 27.8331579,30.7538229 C28.4056639,30.2449369 29.1642761,29.9012225 29.9963292,29.8060521 C30.1924501,29.7895349 30.4002548,29.7785235 30.6139013,29.7785235 C31.0687348,29.7895349 31.490186,29.8697612 31.8999535,30.0066177 C32.4115368,30.1922392 32.8663703,30.4722445 33.2319062,30.8222512 C33.8661694,31.4200154 34.2592457,32.2199182 34.2592457,33.10398" id="Fill-33" fill="#FFC2B0"></path>
                                <path d="M34.2592457,33.3007951 L34.2592457,34.9494647 L26.7265354,39.704698 L26.7265354,33.3007951 C26.7265354,32.3252558 27.152994,31.4446879 27.8331579,30.8115454 C28.4056639,30.2725412 29.1642761,29.9084843 29.9963292,29.8076814 C30.1924501,29.7901866 30.4002548,29.7785235 30.6139013,29.7785235 C31.0687348,29.7901866 31.490186,29.875161 31.8999535,30.0201173 C32.4115368,30.2167247 32.8663703,30.513302 33.2319062,30.8840236 C33.8661694,31.5171661 34.2592457,32.3644107 34.2592457,33.3007951" id="Fill-35" fill="#FFC2B0"></path>
                                <path d="M28.4648532,20.0205718 C27.9360248,20.1577904 27.3019129,20.270794 26.9024787,19.8962679 C26.3929389,19.4176172 26.6734269,18.562826 27.044732,17.9695573 C27.4168407,17.3770958 27.8661037,16.6740522 27.5832046,16.0331606 C27.3533491,15.5125371 26.7337037,15.2994447 26.1711203,15.2267996 C24.8120795,15.051644 23.392762,15.3858117 22.2531287,16.1493929 C20.4062478,17.387589 19.439408,19.5661361 18.709657,21.6728453 C18.6204473,21.9327534 18.5424894,22.2531992 18.7265345,22.45822 C18.8414623,22.5865597 19.0255074,22.6228823 19.1966935,22.6479045 C22.0055921,23.0668249 24.9607623,22.4130186 27.3348643,20.8454978 L28.4648532,20.0205718 Z" id="Fill-37" fill="#715154"></path>
                                <path d="M20.9321429,26.5671141 C20.9321429,31.5683656 24.8196144,35.6174497 29.6270409,35.6174497 C31.5380984,35.6174497 33.299415,34.9816169 34.7347764,33.8886806 C36.9064326,32.2500669 38.3153205,29.575457 38.3153205,26.5671141 C38.3153205,25.9249547 38.249964,25.3001936 38.1258693,24.6904585 C37.9240087,23.6868867 37.5591705,22.7489543 37.0760287,21.9011774 C36.27355,20.5187948 35.1384976,19.3807807 33.7751112,18.6089241 C32.5358193,17.9153602 31.1269315,17.5167785 29.6270409,17.5167785 C29.4442081,17.5167785 29.2555843,17.5223144 29.0727515,17.5357586 C27.878961,17.6132606 26.7571455,17.9343403 25.7395694,18.4618284 C22.8887018,19.946229 20.9321429,23.0194205 20.9321429,26.5671141" id="Fill-39" fill="#715154"></path>
                                <path d="M18.0349467,27.1514021 C18.0349467,32.1516443 21.9217759,36.2013423 26.7294311,36.2013423 C28.6405796,36.2013423 30.40198,35.5655373 31.8374097,34.4726487 C34.0091693,32.8333158 35.4181242,30.1596136 35.4181242,27.1514021 C35.4181242,26.5084799 35.3535919,25.884537 35.2286641,25.2740377 C35.0267938,24.2713006 34.6619382,23.3334092 34.1787734,22.4848784 C33.3762565,21.1025562 32.2419775,19.9645919 30.8776988,19.1935598 C29.638348,18.4992354 28.2293931,18.1006711 26.7294311,18.1006711 C26.5465896,18.1006711 26.3579568,18.1069976 26.1751153,18.1196504 C24.9812681,18.197149 23.8593991,18.5182147 22.8426019,19.0456797 C19.9915986,20.5308062 18.0349467,23.6030727 18.0349467,27.1514021" id="Fill-41" fill="#715154"></path>
                                <path d="M19.1938252,28.9054536 C19.1938252,33.5795408 22.6949302,37.3691275 27.0190682,37.3691275 C28.7390784,37.3691275 30.3288823,36.7710216 31.6196938,35.7520262 C33.5703783,34.2148306 34.838685,31.7187668 34.838685,28.9054536 C34.838685,24.2250371 31.33758,20.4362416 27.0190682,20.4362416 C26.8559083,20.4362416 26.6863185,20.4417796 26.5231587,20.4536468 C22.429695,20.7289654 19.1938252,24.4022537 19.1938252,28.9054536" id="Fill-43" fill="#FFC2B0"></path>
                                <path d="M33.2549724,26.2751678 C33.1368712,25.7001094 32.8791959,25.1258833 32.4976381,24.7414014 L31.8484943,24.0872829 C31.8270214,24.0656454 31.8022449,24.0498334 31.780772,24.0290281 C31.5949484,21.9360153 30.2239832,19.6590838 28.4648532,18.6845638 L31.5957742,19.7323184 L32.491031,21.1112934 L32.491031,19.5151112 C34.8472742,20.8075361 36.5857571,23.093622 37.156442,25.8191157 L33.8339162,25.8191157 L33.8339162,26.2751678 L33.2549724,26.2751678 Z" id="Fill-45" fill="#715154"></path>
                                <path d="M33.1003672,27.7353019 C33.1003672,29.1861324 34.2676794,30.3624161 35.7082433,30.3624161 C37.1472093,30.3624161 38.3153205,29.1861324 38.3153205,27.7353019 C38.3153205,26.2836663 37.1472093,25.1073826 35.7082433,25.1073826 C34.2676794,25.1073826 33.1003672,26.2836663 33.1003672,27.7353019" id="Fill-47" fill="#FFC2B0"></path>
                                <path d="M24.9882177,20.1197225 L27.4213485,20.1197225 C32.0705703,20.1197225 32.6066424,24.7347749 32.6066424,28.2520166 C32.6066424,28.7772341 33.0505133,29.1946309 33.5678188,29.1946309 C34.0851243,29.1946309 34.5289952,28.7772341 34.5289952,28.2520166 L34.5289952,25.0386332 C35.1703235,25.1113305 35.7904373,25.1391025 35.8369458,24.9920743 C35.8695834,24.8924219 36.1527143,24.1760677 36.5770027,23.2130329 C35.7610635,21.7852255 34.5893747,20.6106334 33.202278,19.8134137 C31.9424678,19.0962428 30.5015191,18.6845638 28.9765287,18.6845638 C28.7904946,18.6845638 28.5938532,18.6919152 28.407819,18.7049843 C27.1937015,18.7842162 26.0513865,19.2261177 25.0167756,19.7709389 L24.9882177,20.1197225 Z" id="Fill-49" fill="#715154"></path>
                                <path d="M24.0644429,30.8009307 C22.3413657,31.3111273 20.5655847,30.4378754 19.8268802,28.8169217 C19.6849198,28.5058457 19.8353809,28.1347937 20.1541544,28.0404313 L26.0501894,26.2963267 C26.3519616,26.2067624 26.6724353,26.4106811 26.7055877,26.7353516 C26.8934516,28.5426311 25.801971,30.2867357 24.0644429,30.8009307" id="Fill-51" fill="#FFFFFF"></path>
                                <path d="M48.7848352,14.4271452 C49.0721617,15.2229329 50.8430307,15.4198133 52.7412281,14.868999 C54.6394255,14.3174332 55.9462163,13.2263248 55.6588899,12.43204 C55.3715634,11.6370038 53.6006944,11.4386204 51.702497,11.9901862 C49.8042996,12.5410006 48.4975088,13.6321089 48.7848352,14.4271452" id="Fill-53" fill="#A8C4F2"></path>
                                <path d="M49.5731092,10.839343 C47.4729459,11.6216765 45.1398713,10.540779 44.3627079,8.42448702 C43.5855445,6.30739676 44.6589965,3.95720304 46.7591597,3.17407124 C48.859323,2.39173773 51.1916054,3.47263525 51.9687688,5.58972551 C52.7459322,7.70681577 51.6732724,10.0570095 49.5731092,10.839343" id="Fill-55" fill="#FFC2B0"></path>
                                <path d="M47.0069093,6.60931614 L48.9551274,5.00711484 C49.771597,4.35331985 50.9290476,4.7003962 51.3000144,5.64476674 L53.9601803,12.42002 L53.7571338,12.6339159 C52.9749337,13.4572133 51.9082971,13.9180984 50.5872099,14.0004282 C50.2042488,14.0254499 49.8307118,14.0141498 49.4743095,13.968142 L49.225856,13.9358558 L48.2551739,10.7169244 L47.0069093,6.60931614 Z" id="Fill-57" fill="#FFC2B0"></path>
                                <path d="M37.5344765,44.8981471 L52.0658189,32.7306418 C52.5524399,32.318321 52.7510273,31.6658841 52.5745964,31.057913 L49.0911116,14.1551866 L49.6876943,14.2368423 L49.9256709,14.2691812 C50.2678648,14.3128387 50.6264709,14.3290081 50.9908212,14.3023286 C52.2611238,14.2206729 53.2827819,13.7574184 54.029536,12.9360107 L54.2223791,12.7185317 L54.6425308,12.261745 C54.6425308,12.261745 61.5750348,33.4315871 61.4921533,34.5367685 C61.4092718,35.6516515 60.8955706,36.7406635 59.967462,37.524073 L55.5427388,41.2745751 L43.3017158,51.5001303 C42.4679772,52.2075434 41.4405748,52.5503356 40.4180961,52.5503356 C39.1756943,52.5503356 37.9431397,52.0385727 37.0708324,51.0376843 C35.4739275,49.2145796 35.6840034,46.4657745 37.5344765,44.8981471" id="Fill-59" fill="#A8C4F2"></path>
                            </g>
                        </g>
                        <g id="woman" transform="translate(59.000000, 31.000000)">
                            <path d="M11.30332,146.017507 C18.3039788,149.989519 29.6535318,149.989519 36.6536141,146.017507 C43.6536965,142.045496 43.6536965,135.605637 36.6536141,131.633059 C29.6535318,127.661614 18.3039788,127.661614 11.30332,131.633059 C4.30323765,135.605637 4.30323765,142.045496 11.30332,146.017507" id="shadow" fill="#000000" opacity="0.1001"></path>
                            <g id="legs" transform="translate(2.000000, 18.000000)">
                                <path d="M24.0505906,115.113541 C24.0154259,115.996776 24.2292965,116.883411 24.9412376,117.267525 C25.2582965,117.438621 25.6376141,117.497541 26.0071318,117.547963 C29.5875906,118.037453 33.2550965,118.049917 36.8401671,117.584221 C39.3132259,117.262993 37.5774729,115.701043 36.3011671,115.195122 C36.0907553,115.110708 35.8803435,115.030259 35.6705082,114.945845 C34.2829435,114.398567 32.9011435,113.85129 31.5181906,113.304579 C29.9536494,112.684784 28.3331906,112.057058 26.6141553,112.021366 C26.4227671,112.016833 26.2031318,112.041195 26.0071318,112.097282 C25.8480259,112.141472 25.7079435,112.202092 25.5961082,112.286506 C25.10092,112.45137 24.6898965,112.83775 24.4800612,113.26832 C24.2633082,113.711921 24.0782612,114.411598 24.0505906,115.113541" id="Fill-3" fill="#1D202B"></path>
                                <path d="M17.5652388,129.176195 C16.6544153,129.176195 15.6519329,128.660077 14.8858035,127.971164 C13.5772153,126.794461 12.3458741,125.506149 11.2280976,124.142487 C10.7346388,123.539122 10.2394506,122.883636 10.0797682,122.086514 C9.76328588,120.5104 10.29018,118.673678 11.3318624,117.719058 C12.0887682,117.025046 13.0520506,116.808628 14.1162153,117.090765 C15.3988624,117.431256 15.8046976,118.385309 16.0151094,119.178465 C16.2820153,120.184073 16.7691329,121.131328 17.2550976,122.004932 C17.3732741,122.216818 17.4926035,122.427005 17.6119329,122.636624 C17.7808388,122.934624 17.9497447,123.231491 18.1117329,123.528925 C18.3936271,124.046176 18.6847447,124.581556 18.8974624,125.153195 C19.2047212,125.982043 19.8440271,127.706024 18.9937329,128.58586 C18.5913565,129.002267 18.0938624,129.176195 17.5652388,129.176195" id="Path" fill="#1D202B"></path>
                                <path d="M25.4732047,55.8013996 L11.5301106,53.7176658 L10.9409576,60.4017038 L12.5983106,87.4284909 L12.6530753,88.3428863 L11.50244,105.829141 C11.50244,105.829141 10.6734753,118.369502 10.6711694,118.408027 C10.5581812,120.202259 11.98264,122.547734 13.1321224,123.873438 C13.9950988,124.868848 15.1987694,125.639343 16.5252282,125.742453 C16.8059694,125.763981 17.1322518,125.735654 17.2988518,125.512438 C17.40204,125.374768 17.4181812,125.194042 17.4291341,125.023514 C17.5692165,122.765286 15.6293929,120.761434 16.0236988,118.606316 L17.6758635,108.221073 L20.5720518,89.9886848 L20.84184,88.289065 L21.6016282,78.4233388 L22.5268635,63.0967342 L26.2716165,61.1104452 L25.2091812,86.7361791 L25.4732047,89.6963502 L25.4732047,89.7178787 L24.6915106,106.992814 L24.4488165,112.355681 C24.4378635,112.620822 24.4649576,112.875765 24.5312518,113.11881 C24.5312518,113.129575 24.5370165,113.146004 24.5422047,113.162434 C24.8235224,114.179373 25.7101341,114.899445 26.7345224,114.81843 L27.7911929,114.731749 C28.7879106,114.650734 29.5978518,113.817354 29.7408165,112.723932 L29.7517694,112.637251 L30.8804988,104.427521 L33.1938753,87.5746582 L34.0309106,52.2293654 L25.4732047,55.8013996 Z" id="Fill-9" fill="#FBBA9F"></path>
                                <path d="M34.3969694,13.0168144 C34.7180635,11.5392783 34.8028047,10.0555103 34.4177224,8.583073 C33.6844518,5.77813384 31.3439812,3.63378023 28.8028988,2.16644183 C25.47724,0.245871483 20.9363812,-0.665124715 17.9560282,1.74210342 C14.6246047,4.43316806 14.4245694,9.086727 13.8221576,12.8717802 C12.8923106,18.7082745 8.74864,18.8312137 4.39628706,21.510381 C1.12885176,23.5210312 -0.477195294,27.8086053 0.683816471,31.4214304 C5.87896941,47.592746 30.5899576,35.3855103 31.6108871,22.3958829 C31.9031576,18.6714494 33.65044,16.4528791 34.3969694,13.0168144" id="Fill-19" fill="#715154"></path>
                                <path d="M25.0712318,112.50961 C24.3489141,113.111275 23.9938082,113.954853 24.6936435,114.771804 C25.7566553,116.012526 31.0769024,115.528135 32.5728435,115.633511 C33.1360553,115.673169 34.7519024,115.787043 34.3362671,114.743477 C34.1990671,114.399587 33.8589494,114.181469 33.5309376,114.00131 C32.5261494,113.451199 31.4475729,113.048389 30.3551612,112.7028 C29.8115494,112.531138 29.1791612,112.438226 28.6643729,112.200846 C28.3605729,112.06091 28.1265259,111.826929 27.7921729,111.729484 C27.0197024,111.502868 25.8385141,111.869986 25.0712318,112.50961" id="Fill-11" fill="#FBBA9F"></path>
                                <path d="M35.0767435,53.4040859 C35.1044141,51.1039338 34.4328259,48.8474053 33.1438376,46.9041734 L31.5032024,44.4419909 L14.4264141,45.2538426 C8.62769647,48.403238 10.5496494,61.9333445 10.5496494,61.9333445 L11.9233788,87.0055688 L10.3594141,103.693569 C10.3536494,104.913896 10.92032,106.078135 11.9112729,106.812371 C11.9568141,106.845797 12.0023553,106.878656 12.0478965,106.911516 L12.0530847,106.911516 C13.9196965,108.264413 17.1000847,108.242884 17.6754024,108.221356 L17.6932729,108.223622 C18.6692376,108.36639 19.5794847,107.708071 19.7310965,106.750052 L19.74032,106.689432 L21.1820729,84.7960631 L21.6017435,78.4230555 L22.5269788,63.096451 L25.0294376,61.9645042 L25.20872,86.7358958 L24.6184141,98.5641163 C24.4656494,103.18085 24.4581553,103.4069 25.4468024,103.979105 C27.1185671,104.947322 29.8764024,105.078759 31.6006259,104.204021 C32.9270847,103.530405 32.8423435,103.066409 33.0648612,101.84155 L35.0767435,53.4040859 Z" id="Fill-13" fill="#1D202B"></path>
                            </g>
                            <g id="body">
                                <path d="M36.1408435,60.1001414 C37.4794082,60.8655369 39.1967141,60.41967 39.9755259,59.1041643 L48.0432318,45.4771795 C48.8220435,44.1616738 48.3683612,42.4739513 47.0297965,41.7085559 C45.6906553,40.9431605 43.9739259,41.3890274 43.1951141,42.7045331 L35.1274082,56.3315179 C34.34802,57.6470236 34.8022788,59.3341795 36.1408435,60.1001414" id="Fill-15" fill="#F8C22C"></path>
                                <path d="M29.0348635,38.9812894 L28.7224165,39.1042285 C27.1838165,39.7098597 26.4355576,41.4270422 27.0523812,42.9397038 L32.9427576,57.396103 C33.5590047,58.9087646 35.3062871,59.6441335 36.8454635,59.0379357 L37.1573341,58.9155631 C38.6965106,58.3099319 39.4447694,56.5921829 38.8279459,55.0800878 L32.9375694,40.6231221 C32.3213224,39.111027 30.5734635,38.3756582 29.0348635,38.9812894" id="Fill-17" fill="#F8C22C"></path>
                                <path d="M12.9524871,46.4367848 L14.1463576,50.8331346 L15.9518635,64.1915795 C16.1985929,65.0974768 16.7981224,65.8402106 17.5994165,66.2311232 C19.7606047,67.2860205 24.9793929,67.8055376 31.1862518,65.2209825 C32.1483812,64.8204388 33.9100753,63.9389027 34.12164,62.8596441 L36.0614635,52.9621916 L36.1018165,52.7639027 C36.3986988,51.2246137 36.1669576,49.6303703 35.4469459,48.263876 L33.1796871,43.9859331 L33.1796871,41.6988114 C33.1796871,38.9856517 30.7366047,37.0344882 28.2929459,37.7925186 L27.4466871,38.0791878 L26.0914047,38.5397848 L20.1318518,40.5844274 L18.3886047,41.1787278 L14.9978047,42.3373019 C13.3859929,42.8868456 12.4843929,44.7037392 12.9524871,46.4367848" id="Fill-23" fill="#F8C22C"></path>
                                <path d="M12.9524871,46.4367848 L14.1463576,50.8331346 C14.7458871,51.5611384 15.3408047,52.2891422 15.9449459,53.0165795 C17.2097224,54.556435 18.5292635,56.1359483 20.2880753,56.9427011 C23.2096282,58.2848342 26.5646871,57.1902791 29.5323576,55.9529559 C31.3661106,55.1949255 33.1848753,54.3830738 34.9730871,53.5219331 C35.3356871,53.3531042 35.7086635,53.1701118 36.0614635,52.9621916 L36.1018165,52.7639027 C36.3986988,51.2246137 36.1669576,49.6303703 35.4469459,48.263876 L33.1796871,43.9859331 L33.1796871,41.6988114 C33.1796871,38.9856517 30.7366047,37.0344882 28.2929459,37.7925186 L27.4466871,38.0791878 L26.0914047,38.5397848 L20.1318518,40.5844274 L18.3886047,41.1787278 L14.9978047,42.3373019 C13.3859929,42.8868456 12.4843929,44.7037392 12.9524871,46.4367848" id="Fill-25" fill="#FFDD4D"></path>
                                <path d="M18.3884318,41.1785578 C19.2295024,42.5399532 20.3887847,43.7183563 21.6074435,44.7783525 C22.5246082,45.580573 23.5121024,46.3425692 24.6759965,46.7142194 C25.8347024,47.0904019 27.2147729,47.0110863 28.1567259,46.2485236 C28.9222788,45.629862 29.3056318,44.644649 29.3511729,43.6741662 C29.3961376,42.7036833 29.1390318,41.7433981 28.7966082,40.8324019 C28.4391965,39.876649 27.9855141,38.9503563 27.4465141,38.0790179 L26.0912318,38.5396148 L20.1316788,40.584824 L18.3884318,41.1785578 Z" id="Fill-27" fill="#FBBA9F"></path>
                                <path d="M43.0908306,45.8661091 C44.8179365,47.1425236 47.0523365,47.0875692 48.08076,45.74317 C49.1091835,44.3982042 48.5430894,42.2736795 46.81656,40.997265 C45.0894541,39.7208506 42.8556306,39.7758049 41.8266306,41.1207707 C40.7976306,42.46517 41.3637247,44.5896947 43.0908306,45.8661091" id="Fill-31" fill="#FBBA9F"></path>
                                <path d="M23.9777753,20.1330726 C24.4677753,20.2571449 25.0546224,20.3591221 25.4235635,20.0203312 C25.8956929,19.5869281 25.6351282,18.8130346 25.2915518,18.2765213 C24.9479753,17.7394414 24.5317635,17.1026506 24.7934812,16.5230802 C25.0061988,16.051719 25.5797871,15.8585289 26.10034,15.7928103 C27.3576224,15.6341791 28.6702459,15.9367114 29.7251871,16.6284567 C31.4344224,17.7490726 32.3285282,19.7211981 33.0029988,21.628738 C33.0865871,21.8644186 33.1580694,22.1544871 32.9880106,22.3397456 C32.8807871,22.4558863 32.7113047,22.4887456 32.5533518,22.5119738 C29.9540459,22.890989 27.2204224,22.2983882 25.0240694,20.8803388 L23.9777753,20.1330726 Z" id="Fill-33" fill="#715154"></path>
                                <path d="M34.3216176,27.6687335 C34.3216176,32.2899996 30.7192529,36.0319958 26.2648647,36.0319958 C24.4939471,36.0319958 22.8625353,35.4439274 21.5326176,34.4337867 C19.5201588,32.9194255 18.2144529,30.4487449 18.2144529,27.6687335 C18.2144529,27.0744331 18.2749824,26.4988285 18.3897,25.9339882 C18.5770529,25.0076954 18.9154412,24.1403228 19.3627824,23.3562316 C20.1064294,22.0792506 21.1579118,21.0277525 22.4209588,20.3150452 C23.5692882,19.6737221 24.8749941,19.3054711 26.2648647,19.3054711 C26.4343471,19.3054711 26.6095941,19.311703 26.7790765,19.3236004 C27.8847471,19.3944179 28.9247,19.6912848 29.8672294,20.1785091 C32.5080412,21.5506688 34.3216176,24.3896004 34.3216176,27.6687335" id="Fill-35" fill="#715154"></path>
                                <polygon id="Fill-37" fill="#FBBA9F" points="28.74242 33.9742662 28.5164435 34.7158669 26.8043259 40.3444411 26.4959141 41.3562814 25.6312082 41.4214335 19.1551376 41.8922281 19.49122 40.9285437 21.2973024 35.716943 21.7106318 34.5374068 22.6520082 31.8202814"></polygon>
                                <path d="M28.74242,33.9742662 L28.5164435,34.7158669 L26.8043259,40.3444411 C24.8656553,38.5043194 23.1754435,36.5344601 21.7106318,34.5374068 L22.6520082,31.8202814 L28.74242,33.9742662 Z" id="Fill-39" fill="#FBBA9F" opacity="0.248511905" style="mix-blend-mode: multiply;"></path>
                                <path d="M34.7215729,28.2159544 C34.7215729,32.5335551 31.2846553,36.0342053 27.0395259,36.0342053 C25.35162,36.0342053 23.7905376,35.4818289 22.5228788,34.5402395 C20.60842,33.119924 19.3626671,30.8141065 19.3626671,28.2159544 C19.3626671,23.8926882 22.7995847,20.3926046 27.0395259,20.3926046 C27.1997847,20.3926046 27.3658082,20.39827 27.5266435,20.4096008 C31.5446435,20.6628441 34.7215729,24.0564183 34.7215729,28.2159544" id="Fill-41" fill="#FBBA9F"></path>
                                <path d="M21.5798882,25.456565 C23.7583706,25.0089985 25.6255588,23.9257741 26.6211235,21.5213787 C26.8067471,21.0738122 26.9410647,20.5588274 26.7467941,20.1152266 C26.1968412,18.8609072 22.5368294,20.3378768 22.5362529,21.6040935 L22.5362529,20.2024738 C20.4148412,21.3372532 18.8491471,23.3445042 18.3355118,25.7381354 C19.4469471,25.7381354 20.5485824,25.6690175 21.5798882,25.456565" id="Fill-43" fill="#715154"></path>
                                <path d="M22.2931553,27.5697023 C22.2931553,28.8869076 21.2065082,29.9542688 19.8667906,29.9542688 C18.5264965,29.9542688 17.4404259,28.8869076 17.4404259,27.5697023 C17.4404259,26.252497 18.5264965,25.1851357 19.8667906,25.1851357 C21.2065082,25.1851357 22.2931553,26.252497 22.2931553,27.5697023" id="Fill-45" fill="#FBBA9F"></path>
                                <path d="M29.6116224,30.4602456 C31.1629047,30.9259414 32.7620341,30.1282532 33.4272812,28.6467513 C33.5546812,28.3629148 33.4186341,28.0235574 33.1315518,27.9374433 L27.8234106,26.3437665 C27.5513165,26.2616183 27.2630812,26.4480099 27.2331047,26.7454433 C27.0641988,28.3963407 28.0470812,29.990584 29.6116224,30.4602456" id="Fill-47" fill="#FFFFFF"></path>
                                <path d="M16.6129024,47.2846684 C14.7324553,47.6818129 12.9206082,46.568562 12.3821847,44.780562 C12.3573965,44.6972806 12.3585494,44.6004023 12.33722,44.510889 L5.20282,11.9297445 L4.42689059,8.35714373 L3.56160824,4.40496122 L5.42822,3.00787376 C6.20818471,2.43963422 7.23372588,2.83564563 7.50870235,3.74947452 L19.2554435,42.7829422 C19.8584318,44.7867939 18.6928082,46.8456 16.6129024,47.2846684" id="Fill-49" fill="#FBBA9F"></path>
                                <path d="M5.10683765,8.22576312 C3.00041412,8.83819278 0.787343529,7.65639049 0.164178824,5.58568707 C-0.458409412,3.51555019 0.744108235,1.34060342 2.85053176,0.728173764 C4.95753176,0.116310646 7.17002588,1.29811293 7.79319059,3.36824981 C8.41635529,5.43895323 7.21383765,7.61333346 5.10683765,8.22576312" id="Fill-51" fill="#FBBA9F"></path>
                                <path d="M19.7553012,42.6375114 L9.90284235,9.89886882 L9.28371294,10.4937357 C8.52334824,11.2251388 7.52778353,11.5956559 6.32699529,11.5956559 C5.97938353,11.5956559 5.64099529,11.5633631 5.32163059,11.4987776 L4.53878353,11.3412795 L11.8051953,44.5484506 C11.8132659,44.5796103 11.8201835,44.6232338 11.8282541,44.668557 C11.8443953,44.7643023 11.8639953,44.8640133 11.8824424,44.9263327 C12.4214424,46.7177319 14.0395953,47.8780057 15.8404894,47.8780057 C16.1310306,47.8780057 16.4261835,47.8479791 16.7224894,47.7850932 C17.8437247,47.5482795 18.7793365,46.8910932 19.3575365,45.9342072 C19.9472659,44.9580589 20.09196,43.7569943 19.7553012,42.6375114" id="Fill-54" fill="#FFDD4D"></path>
                            </g>
                            <g id="megaphone" transform="translate(35.000000, 21.000000)">
                                <path d="M6.216875,13.2771158 C6.15679167,12.9586947 6.318375,12.6084316 6.71504167,12.3102737 C7.475125,11.7394316 8.80279167,11.5750105 9.680125,11.9426421 C10.119375,12.1261684 10.362625,12.4086947 10.4017083,12.7155368 L11.3659583,20.3721158 C11.4050417,20.6795368 11.2387917,21.0124316 10.8590417,21.2978526 C10.0989583,21.8686947 8.77129167,22.0336947 7.89395833,21.6660632 C7.45470833,21.4819579 7.21145833,21.2000105 7.172375,20.8925895 L6.216875,13.2771158 Z" id="Fill-40" fill="#505050"></path>
                                <path d="M10.9807605,17.3134714 L8.69910239,16.6276668 L6.61288993,16.4334123 L6.216875,13.2771158 C6.15679167,12.9586947 6.318375,12.6084316 6.71504167,12.3102737 C7.475125,11.7394316 8.80279167,11.5750105 9.680125,11.9426421 C10.119375,12.1261684 10.362625,12.4086947 10.4017083,12.7155368 L10.9807605,17.3134714 Z" id="Path" fill="#505050" opacity="0.404413132" style="mix-blend-mode: multiply;"></path>
                                <path d="M1.55530714,8.95765988 L4.63405833,8.60142105 L5.01205833,14.1923158 L1.6949208,14.3592229 C1.36816689,14.3002935 1.04016712,14.0703652 0.760316667,13.6655895 C0.0620666667,12.6570632 -0.07385,10.9439579 0.457566667,9.83932632 C0.733656652,9.26543066 1.13523576,8.96875443 1.55530714,8.95765988 Z" id="Path" fill="#F5F5F5"></path>
                                <path d="M10.5421167,7.69258947 C11.7052833,9.37385263 11.9310333,12.2286421 11.0461167,14.0696947 C10.5200679,15.1634085 9.72041864,15.6529437 8.91390702,15.5176653 L4.11262766,14.8269476 C3.67722339,14.7708527 3.23661403,14.4758618 2.863175,13.9363632 C1.975925,12.6545737 1.80384167,10.4771526 2.47875833,9.07378421 C2.77149323,8.46509438 3.17561437,8.10179009 3.61182327,7.99015429 L8.04254033,6.65779885 C8.85822253,6.28539095 9.80096144,6.62184663 10.5421167,7.69258947 Z" id="Path" fill="#505050"></path>
                                <path d="M20.1926667,0.9603 L21.1114167,18.9673 L9.03136697,15.1197369 C8.52670846,15.0521488 8.01648406,14.708912 7.58374167,14.0834737 C6.550075,12.5903684 6.34940833,10.0545789 7.13574167,8.42021053 C7.4952028,7.67281752 8.00273082,7.28758596 8.54354607,7.10839103 L20.1926667,0.9603 Z" id="Path" fill="#F4F4F4"></path>
                                <path d="M17.5953167,3.52231579 C15.7473167,7.36536842 16.2180667,13.3262105 18.64765,16.8363684 C21.07665,20.3465263 24.5445667,20.0767368 26.39315,16.2336842 C28.24115,12.3900526 27.7698167,6.42921053 25.3408167,2.91905263 C22.9112333,-0.590526316 19.4433167,-0.320736842 17.5953167,3.52231579" id="Fill-47" fill="#CCCCCC"></path>
                                <path d="M23.76955,17.7105211 C24.3616333,17.3069947 24.9012167,16.6221 25.3299667,15.7305211 C26.9854667,12.2881 26.5456333,6.72441579 24.3703833,3.58073158 C23.0847167,1.72346842 21.5324667,1.14973158 20.2182167,2.04536316 C19.6261333,2.44888947 19.08655,3.13378421 18.6578,4.02536316 C17.0023,7.46778421 17.4421333,13.0308895 19.6173833,16.1751526 C20.90305,18.0324158 22.4553,18.6061526 23.76955,17.7105211" id="Fill-48" fill="#004080"></path>
                                <path d="M19.6176167,16.1755 C20.9032833,18.0327632 22.4555333,18.6070789 23.7697833,17.7108684 C24.3612833,17.3073421 24.9020333,16.6230263 25.3313667,15.7308684 C26.19645,13.9320789 26.4892833,11.5520263 26.2606167,9.24318421 C26.0512,7.13407895 25.4083667,5.08171053 24.3700333,3.58223684 C23.08495,1.72439474 21.5327,1.15007895 20.21845,2.04628947 C19.6263667,2.44981579 19.0873667,3.13355263 18.6580333,4.02513158 C18.2835333,4.80497368 18.0163667,5.6925 17.8530333,6.63560526 C17.5707,8.26186842 17.5940333,10.0525526 17.9008667,11.7401842 C18.0502,12.5599737 18.26545,13.3548684 18.54545,14.0959211 C18.83595,14.8572368 19.1941167,15.5629737 19.6176167,16.1755" id="Fill-49" fill="#F4F4F4"></path>
                                <path d="M19.6176167,16.1755 C20.9032833,18.0327632 22.4555333,18.6070789 23.7697833,17.7108684 C24.3612833,17.3073421 24.9020333,16.6230263 25.3313667,15.7308684 C26.19645,13.9320789 26.4892833,11.5520263 26.2606167,9.24318421 C25.9567,8.75165789 25.6090333,8.31628947 25.2217,7.95502632 C23.5667833,6.41213158 21.6021167,6.52213158 19.9652833,8.24971053 C19.2273667,9.02781579 18.5623667,10.1110263 18.0402833,11.3847105 C17.9930333,11.5016579 17.9463667,11.6203421 17.9008667,11.7401842 C18.0502,12.5599737 18.26545,13.3548684 18.54545,14.0959211 C18.83595,14.8572368 19.1941167,15.5629737 19.6176167,16.1755" id="Fill-50" fill="#FFFFFF"></path>
                                <path d="M22.1358757,13.8468246 L18.4794167,14.2563474 C17.5863333,11.8988737 17.3220833,9.00761053 17.759,6.49497895 L21.6284489,6.63187186 C22.0654509,6.61465059 22.5226188,6.90865383 22.9215,7.48463158 C23.8729167,8.85963158 24.0654167,11.2935263 23.3409167,12.7993684 C23.1536667,13.1901579 22.9174167,13.4894737 22.6584167,13.6660526 C22.4912635,13.7800748 22.3152737,13.8396622 22.1358757,13.8468246 Z" id="Path" fill="#696969"></path>
                                <path d="M22.441125,12.7066211 C22.6272083,12.5792526 22.7975417,12.3638842 22.9322917,12.0825158 C23.4537917,10.9987263 23.3155417,9.24625263 22.630125,8.25625263 C22.2252917,7.67093684 21.7364583,7.48972632 21.3222917,7.77225263 C21.1362083,7.89904211 20.965875,8.11498947 20.8305417,8.39577895 C20.309625,9.48014737 20.447875,11.2326211 21.1332917,12.2232 C21.538125,12.8079368 22.0269583,12.9885684 22.441125,12.7066211" id="Fill-54" fill="#CCCCCC"></path>
                            </g>
                        </g>
                        <g id="man" transform="translate(30.500000, 238.500000) scale(-1, 1) translate(-30.500000, -238.500000) translate(0.000000, 148.000000)">
                            <path d="M49.2870843,177.961748 C42.2985272,182.004082 30.9681214,182.004082 23.9801311,177.961748 C16.991574,173.919413 16.991574,167.365028 23.9801311,163.322694 C30.9681214,159.28036 42.2985272,159.28036 49.2870843,163.322694 C56.2756414,167.365028 56.2756414,173.919413 49.2870843,177.961748" id="shadow" fill="#000000" opacity="0.1001"></path>
                            <g id="leg" transform="translate(20.000000, 94.000000)">
                                <path d="M19.9540083,64.4217539 C21.6429143,63.0924795 25.5086955,65.4086309 27.3630917,65.8225741 C28.5617615,66.0900189 32.9313808,66.3387256 32.5935996,68.4203659 C32.7318859,68.9331104 32.7919611,69.4929842 32.8106637,70.0148139 C32.8350338,70.6910915 32.8163312,71.4122271 32.6185365,72.0453502 C31.8965008,72.820429 31.0288112,73.3167066 30.0534396,73.5875584 C29.9378232,73.5744984 29.8199399,73.5710915 29.707724,73.5461073 C28.8785731,73.3627003 28.1367013,72.9107129 27.4123987,72.4661073 C25.1255746,71.0613123 21.6984555,69.8285678 19.9783784,67.7054763 C19.211003,66.758347 18.9973394,65.1758233 19.9540083,64.4217539" id="Fill-60" fill="#1D202B"></path>
                                <path d="M15.0398018,73.3988139 C15.8955898,73.3812114 16.6414288,74.0614637 16.9741093,74.8518738 C17.3067898,75.6417161 17.313024,76.525817 17.3147242,77.3832303 C17.3158577,78.1338927 17.2824197,78.9714322 16.748544,79.4983722 C16.4039618,79.8379306 15.9154259,79.9770473 15.4489932,80.1036719 C14.5711021,80.3421577 13.6875435,80.5806435 12.7818818,80.6590032 C11.755503,80.7470158 10.7149556,80.6277729 9.69651123,80.7833565 C9.04815267,80.8821577 8.42133051,81.0911167 7.7820399,81.2415899 C5.97581725,81.6674574 4.05964569,81.6180568 2.27722641,81.1002019 C1.87993677,80.9837981 1.46791171,80.8316215 1.2072081,80.5090978 C0.775346892,79.9759117 0.925534843,79.1440505 1.35909629,78.6125678 C1.79322448,78.0799495 2.4387493,77.776164 3.06160424,77.4894132 C4.93810352,76.6268896 6.81403605,75.7632303 8.69053533,74.9001388 C10.5307628,74.0535142 12.4361662,73.1909905 14.4611532,73.144429 C15.1078115,73.1290978 15.9601989,73.4232303 15.901824,74.0694132 L15.0398018,73.3988139 Z" id="Fill-62" fill="#1D202B"></path>
                                <path d="M29.782988,69.766164 L29.5982284,69.7684353 C28.3519518,69.7831987 27.3295402,68.7838297 27.3142381,67.5346183 L27.2683316,63.7194132 C27.2524627,62.4702019 28.2510708,61.4458486 29.4973475,61.4305174 L29.682107,61.4282461 C30.9283836,61.4129148 31.9513619,62.4134196 31.9666641,63.6620631 L32.0125706,67.477836 C32.0278728,68.7259117 31.0292646,69.7508328 29.782988,69.766164" id="Fill-64" fill="#FBBA9F"></path>
                                <path d="M13.45138,76.1652492 L13.2666205,76.1652492 C12.0203439,76.1652492 11.0092673,75.1528202 11.0092673,73.9041767 L11.0092673,70.0884038 C11.0092673,68.8397603 12.0203439,67.8267634 13.2666205,67.8267634 L13.45138,67.8267634 C14.6976567,67.8267634 15.7081666,68.8397603 15.7081666,70.0884038 L15.7081666,73.9041767 C15.7081666,75.1528202 14.6976567,76.1652492 13.45138,76.1652492" id="Fill-66" fill="#FBBA9F"></path>
                                <path d="M9.13157783,11.6208265 L13.8644819,0.256410095 L36.5354949,3.78372871 L36.5360617,11.7514259 C36.5360617,11.7514259 32.7178872,33.9260631 32.5892357,34.8107319 L32.5892357,65.7620714 C32.4027759,67.04592 32.2664487,68.1444298 29.8587018,68.2830458 C27.4509549,68.4216617 26.4832295,67.4212512 26.5625741,65.7620714 L22.7686439,38.9569779 L24.150373,20.6537603 L20.1582072,24.039123 L20.051092,24.000511 L15.5953272,40.8262524 C14.3677533,47.3318044 16.5364266,72.1589483 16.5364266,72.3968662 C16.4134425,73.8698 16.1746574,75 13.4369559,75 C10.6992544,75 10.0783488,73.4468593 10.0783488,71.8768277 L6.10344867,39.8649274 L9.13157783,11.6208265 Z" id="Fill-68" fill="#0D3054"></path>
                            </g>
                            <g id="body" transform="translate(0.871325, 0.359685)">
                                <path d="M58.8485509,35.0706246 C59.6765683,36.0961136 60.0375861,37.4804669 59.7100064,38.8625489 L54.9413972,58.9776909 C54.3803177,61.3449464 52.0101818,62.808795 49.6468468,62.246082 C47.2835119,61.6839369 45.8230049,59.3092997 46.3840844,56.9414763 L51.1521268,36.8263344 C51.7132064,34.4590789 54.0844758,32.9952303 56.447244,33.5573754 C57.4311167,33.7913186 58.2585673,34.339836 58.8485509,35.0706246" id="Fill-45" fill="#375EB4"></path>
                                <path d="M55.645637,40.2919306 C57.9829016,40.1397539 59.7500187,38.0910473 59.7500187,35.7442334 L59.2002741,13.8109211 C59.2002741,11.8973565 58.0163397,10.1223407 56.1902809,9.56133123 C53.1712197,8.63294006 51.50385,10.870164 51.50385,13.7547066 L50.9546722,35.8952744 C50.9546722,38.4260631 53.0839406,40.4583028 55.645637,40.2919306" id="Fill-48" fill="#375EB4"></path>
                                <path d="M55.3534223,14.4787382 C56.7198493,14.4787382 57.8272729,13.8649211 57.8272729,12.4958991 L57.8272729,6.20100946 C57.8272729,4.83255521 56.7198493,3.72246057 55.3534223,3.72246057 C53.9869953,3.72246057 52.8795717,4.83255521 52.8795717,6.20100946 L52.8795717,12.4958991 C52.8795717,13.8649211 53.9869953,14.4787382 55.3534223,14.4787382" id="Fill-50" fill="#FBBA9F"></path>
                                <path d="M49.1496397,5.12736909 C49.1496397,7.52301577 51.0879144,9.46497161 53.47902,9.46497161 C55.8695587,9.46497161 57.8078334,7.52301577 57.8078334,5.12736909 C57.8078334,2.7317224 55.8695587,0.789766562 53.47902,0.789766562 C51.0879144,0.789766562 49.1496397,2.7317224 49.1496397,5.12736909" id="Fill-52" fill="#FBBA9F"></path>
                                <path d="M10.666292,79.5200722 C8.32902738,79.3678956 6.56191027,77.3186211 6.56191027,74.9718072 L7.11165485,53.0384949 C7.11165485,51.1249303 8.2955893,49.3499145 10.1216481,48.788905 C13.1407093,47.8605139 14.8080789,50.0977378 14.8080789,52.9822804 L15.3572568,75.1228483 C15.3572568,77.6542047 13.2279883,79.6864445 10.666292,79.5200722" id="Fill-54" fill="#375EB4" transform="translate(10.959584, 64.052790) rotate(-20.000000) translate(-10.959584, -64.052790) "></path>
                                <path d="M5.52509408,54.2770642 C4.15866709,54.2770642 3.05124348,53.6632472 3.05124348,52.2947929 L3.05124348,45.9993355 C3.05124348,44.6308812 4.15866709,43.5207866 5.52509408,43.5207866 C6.89152107,43.5207866 7.99894468,44.6308812 7.99894468,45.9993355 L7.99894468,52.2947929 C7.99894468,53.6632472 6.89152107,54.2770642 5.52509408,54.2770642" id="Fill-56" fill="#FBBA9F" transform="translate(5.525094, 48.898925) rotate(-20.000000) translate(-5.525094, -48.898925) "></path>
                                <path d="M10.5576275,45.4072243 C10.5576275,47.802871 8.61935282,49.7448268 6.22824728,49.7448268 C3.83770848,49.7448268 1.89943379,47.802871 1.89943379,45.4072243 C1.89943379,43.0110098 3.83770848,41.0696218 6.22824728,41.0696218 C8.61935282,41.0696218 10.5576275,43.0110098 10.5576275,45.4072243" id="Fill-58" fill="#FBBA9F" transform="translate(6.228531, 45.407224) rotate(-20.000000) translate(-6.228531, -45.407224) "></path>
                                <path d="M54.8774681,62.4786625 L55.664113,97.4242145 C55.6930171,98.5882524 55.0877313,99.6756341 54.0840224,100.26106 L46.6063626,104.623647 C43.1741428,106.743331 39.1938787,107.617779 35.2589544,107.217464 C33.882326,107.069262 32.5062643,106.773426 31.1755424,106.298726 L28.2601959,105.261312 L29.3404156,64.5835836 C29.399924,63.0419432 30.0063433,61.6042145 31.0417901,60.5071798 C31.4266113,60.0773375 31.8856763,59.7065489 32.4031163,59.3953817 L35.006752,57.7503975 L35.7321881,57.2904606 C37.6999337,55.9123533 41.5175414,54.489388 44.9491944,54.0737413 C45.6304243,53.9851609 46.2816166,53.9408707 46.9027713,53.9408707 C48.2782662,53.9408707 49.5064069,54.1623218 50.3944995,54.6818801 C53.1613583,56.2973375 54.8774681,59.2619432 54.8774681,62.4786625" id="Fill-70" fill="#375EB4"></path>
                                <path d="M35.2588411,107.217464 C33.8822126,107.069262 32.5067177,106.773426 31.175429,106.298726 L28.2600825,105.261312 L29.340869,64.5835836 C29.3998107,63.0419432 30.00623,61.6042145 31.0422435,60.5071798 C31.6191919,60.5668013 32.1961403,60.6553817 32.7583533,60.7888202 C32.9210097,60.8331104 33.0984015,60.8927319 33.2315871,60.9813123 C34.0307003,61.2038991 34.7850406,61.5156341 35.3325182,62.0931104 C36.6196006,63.4422587 36.30959,65.6363281 35.6725664,67.3999874 C35.0514117,69.1789779 34.1933567,74.887306 34.6813259,76.6958233 C35.0366762,77.985918 36.0279167,79.0380946 36.2942878,80.3571483 C36.8417654,83.1440252 33.8975148,90.1112177 34.1786213,92.9423849 C34.3412777,94.5584101 35.50991,95.8632681 36.2500815,97.300429 C37.8188372,100.428568 37.1823803,104.252858 35.2588411,107.217464" id="Fill-72" fill="#274C9D"></path>
                                <path d="M42.5429567,60.036 C45.1148546,60.036 47.1302068,58.5869148 47.1302068,56.738082 C47.1302068,54.889817 45.1148546,53.4407319 42.5429567,53.4407319 C39.9710589,53.4407319 37.9551399,54.889817 37.9551399,56.738082 C37.9551399,58.5869148 39.9710589,60.036 42.5429567,60.036" id="Fill-76" fill="#FFFFFF"></path>
                                <path d="M44.5376227,47.5949338 L45.7884333,56.417205 C45.9618579,57.6380252 44.5285548,58.6283091 42.5880131,58.6283091 C40.6474714,58.6283091 38.9336285,57.6380252 38.7607707,56.417205 L38.7290329,56.417205 L37.4782223,47.5949338 L44.5376227,47.5949338 Z" id="Fill-78" fill="#FBBA9F"></path>
                                <path d="M43.9172048,50.1190789 C44.8829417,49.128795 45.1306101,51.9162397 45.5398014,50.7533375 C45.9648617,49.5489842 47.509814,50.3717603 47.7484145,49.1055142 C47.9178718,48.2055142 47.2661128,47.090877 47.0388472,46.2425489 C46.7656752,45.2261451 46.3598843,44.3658927 45.6248135,43.6061451 C44.7372877,42.6885426 43.6094612,42.0542839 42.469733,41.4949779 C41.1945523,40.8703722 39.8734651,40.3366183 38.5195065,39.9209716 L38.384054,38.5116341 L32.4649484,37.4174385 L30.1480867,49.9941577 C31.7474467,50.4160505 31.7440463,50.6011609 31.7570814,50.8316972 C31.932773,54.0944101 34.9841388,56.3770599 38.1312848,55.7428013 L43.9172048,50.1190789 Z" id="Fill-80" fill="#FBBA9F"></path>
                                <path d="M31.561157,36.9083281 C31.6354009,37.464795 31.9114067,37.9678864 32.2469209,38.3914826 C33.8219107,40.492429 35.5748592,40.9063722 36.9135156,42.6916088 C37.8378799,43.9175394 38.722572,45.2042271 38.2646404,47.2904101 C38.2793758,47.3687697 38.2799426,47.4442902 38.281076,47.5192429 C38.2561392,47.5748896 38.2198674,47.6140694 38.1807618,47.666877 C37.9829671,48.338612 37.6757903,48.884858 37.2269267,49.2391798 C36.4164785,49.8728707 33.7266973,49.7672555 32.7116534,49.6707256 C31.7685864,49.5866877 30.8011493,49.151735 30.2412033,48.4305994 C30.3086462,48.5174763 29.3933498,52.6069401 29.4817623,53.095836 C29.6738895,54.1576656 30.2225006,55.0480126 31.1139936,55.6379811 C32.9717903,56.8673186 37.0642703,56.5527445 38.9220669,55.6141325 C40.0487599,55.0451735 41.6152486,53.0560883 42.8479233,53.0839117 C43.6855753,53.1032177 44.5226606,53.1225237 45.3603127,53.1418297 C46.239904,53.1690852 47.2305777,53.1560252 47.8902712,52.5393691 C48.2257854,52.2395584 48.4377488,51.8114196 48.6293093,51.4099685 C50.7619782,47.0411356 52.9235512,42.9681388 50.0042375,38.0723659 C47.2946201,33.5610095 37.5414712,31.5923659 32.9100148,34.3088328 C32.0332573,34.8249842 31.424571,35.8879495 31.561157,36.9083281" id="Fill-82" fill="#0D3054"></path>
                                <polygon id="Fill-84" fill="#0D3054" points="37.7870427 52.943205 43.5412249 52.1601767 45.023835 45.9799874 39.2651188 44.9153186"></polygon>
                                <path d="M40.4110246,49.3754574 C39.7501976,50.7484543 38.407574,51.4622082 37.4123663,50.9693375 C36.4165918,50.4753312 36.1456867,48.962082 36.8065137,47.5890852 C37.4673407,46.2160883 38.8099643,45.5023344 39.805172,45.995205 C40.8003798,46.4886435 41.0712848,48.0018927 40.4110246,49.3754574" id="Fill-86" fill="#FBBA9F"></path>
                                <path d="M36.3463719,48.2093186 L36.4075805,48.2206751 C37.0230678,48.3342397 37.6141849,47.9265426 37.728101,47.3098864 L38.9358388,40.7481199 C39.0503217,40.1314637 38.6428307,39.539224 38.0273434,39.4256593 L37.9661347,39.4143028 C37.3506475,39.3007382 36.7595304,39.7078675 36.646181,40.3250915 L35.4373097,46.8862902 C35.3239603,47.5035142 35.7308846,48.0951861 36.3463719,48.2093186" id="Fill-88" fill="#0D3054"></path>
                                <path d="M14.3909706,65.3925649 L27.4986949,81.3603252 C29.0413802,83.2398204 31.8133398,83.5101043 33.6892723,81.965057 C35.5652048,80.4188741 35.8349764,77.6416501 34.2922911,75.7627226 L21.1845668,59.7949624 C19.6418815,57.9154671 16.8699219,57.6446154 14.9945562,59.1907984 C14.2135788,59.8341422 13.7103075,60.6909876 13.5011778,61.6074545 C13.2070362,62.8930066 13.4898429,64.2955302 14.3909706,65.3925649 Z" id="Fill-94" fill="#375EB4" transform="translate(24.341492, 70.577577) rotate(-80.000000) translate(-24.341492, -70.577577) "></path>
                            </g>
                        </g>
                        <g id="bubble" transform="translate(9.000000, 109.000000)">
                            <path d="M19.9862,31.6668 C20.0037217,29.8125949 20.5310696,29.1813641 21.2878957,29.2366462 C22.8733304,27.272441 27.8489391,34.2035692 27.8489391,34.2035692 C27.8489391,34.2035692 27.8308522,34.2938256 27.8048522,34.4506462 C27.5098087,34.3806974 27.2430261,34.4010051 27.0169391,34.5313128 C27.0203304,34.5363897 27.027113,34.5459795 27.027113,34.5459795 C27.027113,34.5459795 27.0095913,34.6362359 26.9830261,34.7919282 C26.9050261,34.7738769 26.829287,34.7637231 26.7558087,34.7575179 C26.4613304,35.1174154 26.2821565,35.7768513 26.2719826,36.8435692 C26.2522,38.9493641 26.9129391,40.8165436 27.8359391,42.3943385 C27.8404609,42.430441 27.2407652,42.7959795 27.1808522,42.7576205 L27.027113,42.8428 L27.027113,42.8433641 L27.0265478,42.8428 L26.049287,43.3854667 L24.3841565,40.7398256 C22.3708522,38.8201846 19.9494609,35.6741846 19.9862,31.6668" id="Fill-96" fill="#375EB4"></path>
                            <path d="M0.0871,6.63971282 C0.0944478261,4.06007179 1.25540435,2.45632821 3.00475217,2.14043077 C3.66153478,1.75909744 4.31831739,1.3777641 4.97453478,0.996430769 C6.14623043,0.317815385 7.76896957,0.415969231 9.56240435,1.44714872 L32.3926652,14.6031487 C35.9484478,16.6519692 38.8271,21.622841 38.8163609,25.7052513 L38.7920565,34.1893538 C38.7847087,36.2150462 38.0685783,37.6410974 36.9138391,38.3123795 C36.9138391,38.3123795 33.986013,39.9144308 34.2414913,39.5957128 C33.0545348,40.5140718 31.2893609,40.5163282 29.3195783,39.3802256 L12.5427957,29.7143282 L5.46288261,25.5303795 C2.39205652,23.1978154 0.0526217391,18.8028923 0.0627956522,15.121559 L0.0871,6.63971282 Z" id="Fill-98" fill="#375EB4"></path>
                            <path d="M5.46276957,25.5305487 C2.39194348,23.1974205 0.053073913,18.8030615 0.0626826087,15.1217282 L0.0869869565,6.63988205 C0.0988565217,2.55690769 2.99446522,0.909728205 6.55081304,2.96249744 L29.3861609,16.1168051 C32.940813,18.1673179 35.8189,23.1398821 35.8081609,27.2206 L35.7844217,35.7047026 C35.7714217,39.7859846 32.8752478,41.4309077 29.3194652,39.3803949 L12.5426826,29.7144974 L5.46276957,25.5305487 Z" id="Fill-101" fill="#FFFFFF"></path>
                            <path d="M26.062287,35.1952051 C26.062287,35.1952051 26.0442,35.2854615 26.0182,35.4417179 C25.1387217,35.2346923 24.5039826,35.7959744 24.4853304,37.8352051 C24.4655478,39.941 25.126287,41.8081795 26.0487217,43.3859744 C26.0538087,43.4220769 26.0572,43.4570513 26.062287,43.4931538 C26.062287,43.4931538 18.9580696,39.1574615 19.0213739,32.3160256 C19.0852435,25.4751538 26.062287,35.1952051 26.062287,35.1952051" id="Fill-103" fill="#FFFFFF"></path>
                        </g>
                    </g>
                </g>
            </g>
        </g>
    </g>
</svg>