<?xml version="1.0" encoding="utf-8"?>
<!-- Generator: Adobe Illustrator 18.1.1, SVG Export Plug-In . SVG Version: 6.00 Build 0)  -->
<!DOCTYPE svg PUBLIC "-//W3C//DTD SVG 1.1//EN" "http://www.w3.org/Graphics/SVG/1.1/DTD/svg11.dtd">
<svg version="1.1" xmlns="http://www.w3.org/2000/svg" xmlns:xlink="http://www.w3.org/1999/xlink" x="0px" y="0px"
	 viewBox="0 0 690 182" enable-background="new 0 0 690 182" xml:space="preserve">
<g id="artwork">
	<g>
		<g>
			<path fill="#EF4B46" d="M204.9,136.1v-22.3h1.9v22.3H204.9z"/>
			<path fill="#EF4B46" d="M224.9,136.1v-10.9c0-3.1-1.6-4-3.9-4c-2.1,0-4.2,1.3-5.3,2.8v12.2H214v-16.2h1.7v2.4
				c1.2-1.4,3.5-2.8,5.8-2.8c3.3,0,5.1,1.6,5.1,5.3v11.3H224.9z"/>
			<path fill="#EF4B46" d="M244.6,136.1v-10.9c0-3.1-1.6-4-3.9-4c-2.1,0-4.2,1.3-5.3,2.8v12.2h-1.7v-16.2h1.7v2.4
				c1.2-1.4,3.5-2.8,5.8-2.8c3.3,0,5.1,1.6,5.1,5.3v11.3H244.6z"/>
			<path fill="#EF4B46" d="M252.5,128c0-4.7,3-8.5,7.8-8.5c4.8,0,7.8,3.7,7.8,8.5c0,4.7-3,8.5-7.8,8.5
				C255.5,136.5,252.5,132.7,252.5,128z M266.2,128c0-3.6-2.1-6.9-5.9-6.9c-3.7,0-5.9,3.3-5.9,6.9c0,3.6,2.1,6.9,5.9,6.9
				C264.1,134.9,266.2,131.6,266.2,128z"/>
			<path fill="#EF4B46" d="M278.6,136.1l-6.8-16.2h1.9l5.9,14.1l5.8-14.1h2l-6.8,16.2H278.6z"/>
			<path fill="#EF4B46" d="M302.3,136.1v-1.9c-1.4,1.6-3.2,2.3-5.5,2.3c-2.8,0-5.7-1.9-5.7-5.4c0-3.5,2.8-5.4,5.7-5.4
				c2.2,0,4.1,0.7,5.5,2.3v-3.3c0-2.4-1.9-3.7-4.3-3.7c-2,0-3.6,0.7-5.1,2.4l-1-1.2c1.7-1.8,3.5-2.7,6.2-2.7c3.3,0,5.9,1.6,5.9,5.2
				v11.4H302.3z M302.3,132.9v-3.5c-1.1-1.5-2.9-2.2-4.9-2.2c-2.7,0-4.4,1.7-4.4,4c0,2.3,1.7,4,4.4,4
				C299.3,135.1,301.1,134.4,302.3,132.9z"/>
			<path fill="#EF4B46" d="M311.4,133v-11.5h-2.7v-1.5h2.7v-4.4h1.8v4.4h3.3v1.5h-3.3v11.2c0,1.3,0.5,2.2,1.7,2.2
				c0.8,0,1.4-0.4,1.8-0.8l0.7,1.3c-0.6,0.6-1.4,1-2.7,1C312.5,136.5,311.4,135.2,311.4,133z"/>
			<path fill="#EF4B46" d="M321.5,116c0-0.7,0.6-1.3,1.3-1.3c0.7,0,1.3,0.6,1.3,1.3c0,0.7-0.6,1.3-1.3,1.3
				C322.1,117.4,321.5,116.8,321.5,116z M322,136.1v-16.2h1.7v16.2H322z"/>
			<path fill="#EF4B46" d="M329.9,128c0-4.7,3-8.5,7.8-8.5c4.8,0,7.8,3.7,7.8,8.5c0,4.7-3,8.5-7.8,8.5
				C332.9,136.5,329.9,132.7,329.9,128z M343.5,128c0-3.6-2.1-6.9-5.9-6.9c-3.7,0-5.9,3.3-5.9,6.9c0,3.6,2.1,6.9,5.9,6.9
				C341.4,134.9,343.5,131.6,343.5,128z"/>
			<path fill="#EF4B46" d="M362.5,136.1v-10.9c0-3.1-1.6-4-3.9-4c-2.1,0-4.2,1.3-5.3,2.8v12.2h-1.7v-16.2h1.7v2.4
				c1.2-1.4,3.5-2.8,5.8-2.8c3.3,0,5.1,1.6,5.1,5.3v11.3H362.5z"/>
			<path fill="#EF4B46" d="M400.9,136.1v-11.3c0-2.3-1-3.7-3.2-3.7c-1.7,0-3.7,1.3-4.6,2.7v12.2h-1.8v-11.3c0-2.3-0.9-3.7-3.2-3.7
				c-1.7,0-3.6,1.3-4.6,2.8v12.2h-1.7v-16.2h1.7v2.4c0.7-1,2.9-2.8,5.2-2.8c2.5,0,3.8,1.5,4.2,3c0.9-1.5,3.1-3,5.4-3
				c3,0,4.4,1.7,4.4,4.9v11.6H400.9z"/>
			<path fill="#EF4B46" d="M408.8,128c0-4.7,3.3-8.5,7.8-8.5c4.9,0,7.6,3.9,7.6,8.6v0.5h-13.5c0.2,3.5,2.5,6.4,6.3,6.4
				c2,0,3.9-0.8,5.3-2.2l0.9,1.1c-1.6,1.7-3.6,2.6-6.3,2.6C412.2,136.5,408.8,133,408.8,128z M416.6,121c-3.8,0-5.7,3.3-5.9,6.2
				h11.7C422.4,124.4,420.6,121,416.6,121z"/>
			<path fill="#EF4B46" d="M429.4,128c0-4.7,3.3-8.5,7.8-8.5c4.9,0,7.6,3.9,7.6,8.6v0.5h-13.5c0.2,3.5,2.5,6.4,6.3,6.4
				c2,0,3.9-0.8,5.3-2.2l0.9,1.1c-1.6,1.7-3.6,2.6-6.3,2.6C432.8,136.5,429.4,133,429.4,128z M437.2,121c-3.8,0-5.7,3.3-5.9,6.2
				h11.7C443.1,124.4,441.3,121,437.2,121z"/>
			<path fill="#EF4B46" d="M451.4,133v-11.5h-2.7v-1.5h2.7v-4.4h1.8v4.4h3.3v1.5h-3.3v11.2c0,1.3,0.5,2.2,1.7,2.2
				c0.8,0,1.4-0.4,1.8-0.8l0.7,1.3c-0.6,0.6-1.4,1-2.7,1C452.4,136.5,451.4,135.2,451.4,133z"/>
			<path fill="#EF4B46" d="M460.5,133.9l1-1.3c1,1.3,2.9,2.4,5.2,2.4c2.7,0,4.3-1.4,4.3-3.3c0-4.4-10.2-1.9-10.2-7.7
				c0-2.5,2.1-4.5,5.8-4.5c2.8,0,4.6,1.1,5.8,2.4l-1,1.2c-0.9-1.3-2.7-2.1-4.8-2.1c-2.5,0-4,1.3-4,2.9c0,4,10.2,1.6,10.2,7.8
				c0,2.6-2,4.8-6.1,4.8C464.1,136.5,462.1,135.7,460.5,133.9z"/>
			<path fill="#EF4B46" d="M488.3,128c0-4.7,3.3-8.5,7.8-8.5c4.9,0,7.6,3.9,7.6,8.6v0.5h-13.5c0.2,3.5,2.5,6.4,6.3,6.4
				c2,0,3.9-0.8,5.3-2.2l0.9,1.1c-1.6,1.7-3.6,2.6-6.3,2.6C491.7,136.5,488.3,133,488.3,128z M496.1,121c-3.8,0-5.7,3.3-5.9,6.2H502
				C502,124.4,500.1,121,496.1,121z"/>
			<path fill="#EF4B46" d="M520.6,136.1l-5.4-7.1l-5.4,7.1h-2.1l6.4-8.3l-6-7.9h2.1l5,6.7l5-6.7h2.1l-6,7.9l6.4,8.3H520.6z"/>
			<path fill="#EF4B46" d="M525.4,128c0-4.7,3.1-8.5,7.9-8.5c2.8,0,4.4,1.1,5.7,2.7l-1.2,1.1c-1.2-1.6-2.6-2.2-4.4-2.2
				c-3.8,0-6.1,3-6.1,6.9c0,3.9,2.3,6.9,6.1,6.9c1.8,0,3.2-0.7,4.4-2.3l1.2,1.1c-1.3,1.7-2.9,2.8-5.7,2.8
				C528.5,136.5,525.4,132.7,525.4,128z"/>
			<path fill="#EF4B46" d="M543.6,128c0-4.7,3.3-8.5,7.8-8.5c4.9,0,7.6,3.9,7.6,8.6v0.5h-13.5c0.2,3.5,2.5,6.4,6.3,6.4
				c2,0,3.9-0.8,5.3-2.2l0.9,1.1c-1.6,1.7-3.6,2.6-6.3,2.6C547,136.5,543.6,133,543.6,128z M551.3,121c-3.8,0-5.7,3.3-5.9,6.2h11.7
				C557.2,124.4,555.4,121,551.3,121z"/>
			<path fill="#EF4B46" d="M565.2,136.1v-22.3h1.7v22.3H565.2z"/>
			<path fill="#EF4B46" d="M574,136.1v-22.3h1.7v22.3H574z"/>
			<path fill="#EF4B46" d="M581.9,128c0-4.7,3.3-8.5,7.8-8.5c4.9,0,7.6,3.9,7.6,8.6v0.5h-13.5c0.2,3.5,2.5,6.4,6.3,6.4
				c2,0,3.9-0.8,5.3-2.2l0.9,1.1c-1.6,1.7-3.6,2.6-6.3,2.6C585.3,136.5,581.9,133,581.9,128z M589.7,121c-3.8,0-5.7,3.3-5.9,6.2
				h11.7C595.5,124.4,593.7,121,589.7,121z"/>
			<path fill="#EF4B46" d="M614.4,136.1v-10.9c0-3.1-1.6-4-3.9-4c-2.1,0-4.2,1.3-5.3,2.8v12.2h-1.7v-16.2h1.7v2.4
				c1.2-1.4,3.5-2.8,5.8-2.8c3.3,0,5.1,1.6,5.1,5.3v11.3H614.4z"/>
			<path fill="#EF4B46" d="M622.3,128c0-4.7,3.1-8.5,7.9-8.5c2.8,0,4.4,1.1,5.7,2.7l-1.2,1.1c-1.2-1.6-2.6-2.2-4.4-2.2
				c-3.8,0-6.1,3-6.1,6.9c0,3.9,2.3,6.9,6.1,6.9c1.8,0,3.2-0.7,4.4-2.3l1.2,1.1c-1.3,1.7-2.9,2.8-5.7,2.8
				C625.4,136.5,622.3,132.7,622.3,128z"/>
			<path fill="#EF4B46" d="M640.5,128c0-4.7,3.3-8.5,7.8-8.5c4.9,0,7.6,3.9,7.6,8.6v0.5h-13.5c0.2,3.5,2.5,6.4,6.3,6.4
				c2,0,3.9-0.8,5.3-2.2l0.9,1.1c-1.6,1.7-3.6,2.6-6.3,2.6C643.9,136.5,640.5,133,640.5,128z M648.2,121c-3.8,0-5.7,3.3-5.9,6.2
				h11.7C654.1,124.4,652.3,121,648.2,121z"/>
		</g>
		<g>
			<path fill="#EF4B46" d="M204.9,90.2v-44h9.4v44H204.9z"/>
			<path fill="#EF4B46" d="M245.6,90.2V71c0-4.4-2.3-5.9-5.9-5.9c-3.3,0-5.9,1.8-7.3,3.8v21.4h-8.4V58.4h8.4v4.2
				c2-2.4,5.9-4.9,11.1-4.9c7,0,10.4,4,10.4,10.2v22.5H245.6z"/>
			<path fill="#EF4B46" d="M285.1,90.2V71c0-4.4-2.3-5.9-5.9-5.9c-3.3,0-5.9,1.8-7.3,3.8v21.4h-8.4V58.4h8.4v4.2
				c2-2.4,5.9-4.9,11.1-4.9c7,0,10.4,4,10.4,10.2v22.5H285.1z"/>
			<path fill="#EF4B46" d="M301,74.3c0-9,6.3-16.7,16.8-16.7c10.6,0,16.9,7.6,16.9,16.7c0,9.1-6.3,16.7-16.9,16.7
				C307.4,91,301,83.4,301,74.3z M326,74.3c0-4.9-3-9.2-8.2-9.2c-5.2,0-8.1,4.3-8.1,9.2c0,5,2.9,9.3,8.1,9.3
				C323.1,83.6,326,79.3,326,74.3z"/>
			<path fill="#EF4B46" d="M340.3,68.3c0-13.5,10.2-22.8,23.4-22.8c9.7,0,15.3,5.3,18.4,10.7l-8,4c-1.8-3.6-5.8-6.4-10.4-6.4
				c-8,0-13.8,6.1-13.8,14.4s5.8,14.4,13.8,14.4c4.6,0,8.5-2.8,10.4-6.4l8,3.9C379,85.7,373.5,91,363.8,91
				C350.6,91,340.3,81.8,340.3,68.3z"/>
			<path fill="#EF4B46" d="M386.8,74.3c0-9.2,6.8-16.7,16.5-16.7c9.5,0,16,7.1,16,17.5V77h-23.7c0.5,4,3.8,7.4,9.2,7.4
				c2.7,0,6.5-1.2,8.5-3.2l3.7,5.4c-3.2,2.9-8.2,4.4-13.1,4.4C394.2,91,386.8,84.5,386.8,74.3z M403.3,64.3c-5.2,0-7.5,3.9-7.8,7.1
				h15.7C411,68.3,408.9,64.3,403.3,64.3z"/>
			<path fill="#EF4B46" d="M426.7,90.2v-44h8.4v44H426.7z"/>
			<path fill="#EF4B46" d="M444.7,90.2v-44h8.4v44H444.7z"/>
			<path fill="#EF4B46" d="M460.6,74.3c0-9.2,6.8-16.7,16.5-16.7c9.5,0,16,7.1,16,17.5V77h-23.7c0.5,4,3.8,7.4,9.2,7.4
				c2.7,0,6.5-1.2,8.5-3.2l3.7,5.4c-3.2,2.9-8.2,4.4-13.1,4.4C468,91,460.6,84.5,460.6,74.3z M477.1,64.3c-5.2,0-7.5,3.9-7.8,7.1
				H485C484.8,68.3,482.7,64.3,477.1,64.3z"/>
			<path fill="#EF4B46" d="M522,90.2V71c0-4.4-2.3-5.9-5.9-5.9c-3.3,0-5.9,1.8-7.3,3.8v21.4h-8.4V58.4h8.4v4.2
				c2-2.4,5.9-4.9,11.1-4.9c7,0,10.4,4,10.4,10.2v22.5H522z"/>
			<path fill="#EF4B46" d="M537.9,74.3c0-9.8,7.1-16.7,16.9-16.7c6.5,0,10.5,2.8,12.6,5.7l-5.5,5.1c-1.5-2.2-3.8-3.4-6.7-3.4
				c-5.1,0-8.6,3.7-8.6,9.2c0,5.5,3.6,9.3,8.6,9.3c2.9,0,5.2-1.3,6.7-3.4l5.5,5.1c-2.1,3-6.1,5.8-12.6,5.8
				C545,91,537.9,84.1,537.9,74.3z"/>
			<path fill="#EF4B46" d="M572.2,74.3c0-9.2,6.8-16.7,16.5-16.7c9.5,0,16,7.1,16,17.5V77h-23.7c0.5,4,3.8,7.4,9.2,7.4
				c2.7,0,6.5-1.2,8.5-3.2l3.7,5.4c-3.2,2.9-8.2,4.4-13.1,4.4C579.5,91,572.2,84.5,572.2,74.3z M588.6,64.3c-5.2,0-7.5,3.9-7.8,7.1
				h15.7C596.3,68.3,594.2,64.3,588.6,64.3z"/>
		</g>
		<g>
			<path fill="#EF4B46" d="M96.8,34.3l36.9,113.5c15.7-11.4,25.9-29.9,25.9-50.8C159.5,62.3,131.4,34.3,96.8,34.3L96.8,34.3z"/>
			<path fill="#EF4B46" d="M59.9,147.8L96.8,34.3l0,0c-34.7,0-62.7,28.1-62.7,62.7C34.1,117.9,44.2,136.3,59.9,147.8z"/>
		</g>
	</g>
</g>
<g id="guides">
	<g>
	</g>
	<g>
	</g>
	<g>
	</g>
	<g>
	</g>
	<g>
	</g>
	<g>
	</g>
	<g>
	</g>
	<g>
	</g>
	<g>
	</g>
	<g>
	</g>
	<g>
	</g>
	<g>
	</g>
	<g>
	</g>
	<g>
	</g>
	<g>
	</g>
</g>
</svg>
